<?xml version="1.0" encoding="utf-8"?>
<!-- Generator: Adobe Illustrator 24.0.3, SVG Export Plug-In . SVG Version: 6.00 Build 0)  -->
<svg version="1.1" id="Capa_1" xmlns="http://www.w3.org/2000/svg" xmlns:xlink="http://www.w3.org/1999/xlink" x="0px" y="0px"
	 viewBox="0 0 352.2 109.7" style="enable-background:new 0 0 352.2 109.7;" xml:space="preserve">
<style type="text/css">
	.st0{fill:#FFFFFF;}
</style>
<title>casilleros-adidas</title>
<g id="Capa_2_1_">
	<g id="Modo_de_aislamiento">
		<g>
			<path class="st0" d="M85.5,102.2H69.4l-2.1,6.7H54l15.4-46h16.9l15.4,46H87.6L85.5,102.2z M77.5,75.9l-4.9,15.6h9.6L77.5,75.9z"
				/>
			<path class="st0" d="M104.4,62.9h19.5c15.1,0,24.4,10.1,24.4,22.8c0,12.9-9.3,23.2-24.4,23.2h-19.5V62.9z M117.6,74.6v22.6h6.3
				c6.7,0,10.9-4.8,10.9-11.2s-4.2-11.4-10.9-11.4H117.6z"/>
			<path class="st0" d="M152,108.9v-46h13.2v46H152z"/>
			<path class="st0" d="M169.9,62.9h19.5c15.1,0,24.4,10.1,24.4,22.8c0,12.9-9.3,23.2-24.4,23.2h-19.5V62.9z M183.1,74.6v22.6h6.3
				c6.7,0,10.9-4.8,10.9-11.2s-4.2-11.4-10.9-11.4H183.1z"/>
			<path class="st0" d="M243.4,102.2h-16.1l-2.1,6.7h-13.3l15.4-46h16.9l15.4,46h-14.1L243.4,102.2z M235.3,75.9l-4.8,15.6h9.6
				L235.3,75.9z"/>
			<path class="st0" d="M259.5,94.1h13.2c0.2,2.6,1.8,5.2,6.6,5.2c3.3,0,5.4-1.1,5.4-3.2s-3-3-6.8-3.9c-7.3-1.8-17.9-4-17.9-15.6
				c0-9.1,7.1-15.1,18-15.1c11.5,0,18.2,6.2,19,16h-13c-0.1-2.3-0.9-5.3-6.2-5.3c-3.3,0-4.7,1.4-4.7,3c0,2.9,3.8,3.8,8.3,4.8
				c7.2,1.6,16.6,3.6,16.6,14.6c0,8.5-6.6,15-19.1,15C266.9,109.7,260.2,104.2,259.5,94.1z"/>
		</g>
		<g>
			<path class="st0" d="M22.4,23.5c-0.2,11,8.5,20,19.5,20.2c0.2,0,0.5,0,0.7,0c8,0,13.5-3.7,17.1-9.7l2.8,1.8
				C58.4,42.7,52,47,42.6,47c-13.1,0-23.7-9.9-23.7-23.5S29.6,0,42.6,0c9.3,0,16,4.4,20,11.3l-2.9,1.9c-3.4-6.2-10-10-17.1-9.8
				C31.3,3.4,22.4,11.9,22.4,23.5z"/>
			<path class="st0" d="M94.4,34.3h-23l-4.8,12.2H63l18.2-46h3.6l18.2,46h-3.8L94.4,34.3z M83,5.2L72.8,31h20.3L83,5.2z"/>
			<path class="st0" d="M103.6,32.7h3.6c0.9,7.3,6.2,11.3,14.9,11.1s13.2-3.8,13.2-9.9c0-6.9-6.9-8-14-9.3
				c-7.7-1.4-15.6-3-15.6-12.4c0-7.3,6.1-12.2,15.3-12.2c9.8,0,16,5.2,16.6,13.2H134c-0.5-5.2-4.7-9.9-13.3-9.9
				c-7.4,0-11.6,3.8-11.6,9c0,6.6,6.5,7.7,13.4,9c7.9,1.5,16.3,3,16.3,12.7c0,7.2-5.2,13-16.7,13C111.3,47.2,104.8,42.4,103.6,32.7z
				"/>
			<path class="st0" d="M144.4,46.5v-46h3.6v46L144.4,46.5z"/>
			<path class="st0" d="M154.7,0.5h3.6v42.7h23.7v3.3h-27.2V0.5z"/>
			<path class="st0" d="M187.1,0.5h3.6v42.7h23.7v3.3h-27.2V0.5z"/>
			<path class="st0" d="M219.5,0.5h27.6v3.3h-24v17.8h22.3v3.3H223v18.3h25.4v3.3h-28.9V0.5z"/>
			<path class="st0" d="M256.5,46.5h-3.6v-46H268c9.7,0,15.5,6,15.5,14c0,7.7-6.2,13.8-15.3,13.8h-6.7l22.8,18.1H279l-22.5-18.2
				V46.5z M256.5,3.8v21.3h10.4c8.8,0,13.1-4.7,13.1-10.6s-4.4-10.7-12.8-10.7L256.5,3.8z"/>
			<path class="st0" d="M286.4,23.5c-0.3-12.9,10-23.6,22.9-23.9c12.9-0.3,23.6,10,23.9,22.9c0,0.3,0,0.6,0,1
				c0.3,12.9-10,23.6-22.9,23.9c-12.9,0.3-23.6-10-23.9-22.9C286.4,24.1,286.4,23.8,286.4,23.5z M329.7,23.5
				c0-11-8.9-19.9-19.9-19.9c-11,0-19.9,8.9-19.9,19.9c0,11.5,8.7,20.2,19.9,20.2S329.7,35,329.7,23.5z"/>
		</g>
	</g>
</g>
</svg>
