<svg xmlns="http://www.w3.org/2000/svg" viewBox="0 0 352.16 109.73"><title>casilleros-adidas</title><g id="Capa_2" data-name="Capa 2"><g id="Modo_de_aislamiento" data-name="Modo de aislamiento"><path d="M91.88,102.15H75.78l-2.08,6.71H60.35l15.43-46H92.69l15.36,46H94Zm-8-26.3L79,91.48h9.59Z" style="fill:#fff"/><path d="M110.73,62.9h19.53c15.09,0,24.42,10.07,24.42,22.75,0,12.88-9.33,23.21-24.42,23.21H110.73ZM124,74.58V97.19h6.31c6.71,0,10.93-4.83,10.93-11.21s-4.22-11.4-10.93-11.4Z" style="fill:#fff"/><path d="M158.37,108.86v-46h13.21v46Z" style="fill:#fff"/><path d="M176.28,62.9H195.8c15.1,0,24.43,10.07,24.43,22.75,0,12.88-9.33,23.21-24.43,23.21H176.28ZM189.5,74.58V97.19h6.3c6.71,0,10.94-4.83,10.94-11.21s-4.23-11.4-10.94-11.4Z" style="fill:#fff"/><path d="M249.75,102.15H233.64l-2.08,6.71H218.21l15.43-46h16.91l15.36,46H251.83Zm-8.06-26.3-4.83,15.63h9.6Z" style="fill:#fff"/><path d="M265.85,94.1h13.21c.2,2.62,1.75,5.23,6.65,5.23,3.28,0,5.36-1.14,5.36-3.15s-2.95-3-6.84-3.89c-7.31-1.81-17.85-4-17.85-15.63,0-9.13,7.12-15.1,18.05-15.1,11.47,0,18.25,6.17,19,16h-13c-.13-2.35-.94-5.3-6.17-5.3-3.29,0-4.7,1.41-4.7,3,0,2.89,3.76,3.83,8.32,4.84,7.25,1.61,16.64,3.62,16.64,14.62,0,8.52-6.64,15-19.12,15C273.29,109.73,266.52,104.17,265.85,94.1Z" style="fill:#fff"/><path d="M3.56,23.48a19.84,19.84,0,0,0,20.19,20.2C31.8,43.68,37.24,40,40.86,34l2.75,1.81C39.52,42.67,33.08,47,23.75,47,10.67,47,0,37.1,0,23.48S10.67,0,23.75,0c9.33,0,16,4.43,20,11.34l-2.89,1.88a18.88,18.88,0,0,0-17.11-9.8C12.41,3.42,3.56,11.94,3.56,23.48Z" style="fill:#fff"/><path d="M75.54,34.35h-23L47.77,46.5H44.15L62.33.54h3.55l18.25,46H80.31ZM64.07,5.17,53.87,31H74.2Z" style="fill:#fff"/><path d="M84.74,32.74h3.55C89.17,40,94.53,44,103.19,43.88s13.15-3.76,13.15-9.86c0-6.85-6.85-8-14-9.33-7.65-1.41-15.63-3-15.63-12.35C86.75,5,92.79.13,102,.13c9.8,0,16,5.17,16.57,13.22h-3.49c-.53-5.16-4.69-9.93-13.28-9.93-7.38,0-11.61,3.76-11.61,9,0,6.58,6.51,7.72,13.42,9,7.92,1.48,16.3,3,16.3,12.75,0,7.18-5.23,13-16.7,13C92.45,47.17,85.88,42.4,84.74,32.74Z" style="fill:#fff"/><path d="M125.53,46.5V.54h3.55v46Z" style="fill:#fff"/><path d="M135.79.54h3.56V43.21H163V46.5H135.79Z" style="fill:#fff"/><path d="M168.2.54h3.55V43.21h23.69V46.5H168.2Z" style="fill:#fff"/><path d="M200.6.54h27.58V3.82h-24V21.6H226.5v3.29H204.16V43.21h25.36V46.5H200.6Z" style="fill:#fff"/><path d="M237.57,46.5H234V.54h15.1c9.66,0,15.5,6,15.5,14,0,7.72-6.18,13.82-15.3,13.82H242.6L265.41,46.5h-5.3L237.57,28.31Zm0-42.68V25.16H248c8.79,0,13.08-4.7,13.08-10.6S256.69,3.82,248.3,3.82Z" style="fill:#fff"/><path d="M267.56,23.48a23.42,23.42,0,1,1,46.83,0,23.42,23.42,0,1,1-46.83,0Zm43.27,0a19.86,19.86,0,1,0-39.72,0c0,11.54,8.72,20.2,19.86,20.2S310.83,35,310.83,23.48Z" style="fill:#fff"/><path d="M317,32.74h3.56C321.43,40,326.8,44,335.45,43.88S348.6,40.12,348.6,34c0-6.85-6.84-8-14-9.33C327,23.28,319,21.67,319,12.34,319,5,325.05.13,334.24.13c9.8,0,16,5.17,16.58,13.22h-3.49c-.54-5.16-4.7-9.93-13.29-9.93-7.38,0-11.6,3.76-11.6,9,0,6.58,6.5,7.72,13.41,9,7.92,1.48,16.31,3,16.31,12.75,0,7.18-5.24,13-16.71,13C324.72,47.17,318.14,42.4,317,32.74Z" style="fill:#fff"/></g></g></svg>