<svg xmlns="http://www.w3.org/2000/svg" viewBox="0 0 783.95 324.89"><title>este-mes</title><g id="Capa_2" data-name="Capa 2"><g id="Capa_1-2" data-name="Capa 1"><path d="M6.76,86.68V.72h36.1v12.2H20.28V37.3H39.72V49.5H20.28v25H42.86V86.68Z" style="fill:#fff"/><path d="M87.16,86.68,66.88,35.61V86.68H53.36V.72H65.43L85.59,51.79V.72H99.11v86Z" style="fill:#fff"/><path d="M132.79,86.68V.72h36.1v12.2H146.31V37.3h19.44V49.5H146.31v25h22.58V86.68Z" style="fill:#fff"/><path d="M220.92,62.9a46.65,46.65,0,0,1-1.15,11.22,15.78,15.78,0,0,1-4.4,7.73,19.89,19.89,0,0,1-6.83,4.1,28.14,28.14,0,0,1-10,1.57q-11,0-16.66-5.67a16.75,16.75,0,0,1-4.34-7.36,41.43,41.43,0,0,1-1.21-11.11h13.52a27.31,27.31,0,0,0,.49,5.73A8.75,8.75,0,0,0,192.31,73a7.92,7.92,0,0,0,2.47,1.63,9.52,9.52,0,0,0,3.8.66q4.47,0,6.52-2.41a8.55,8.55,0,0,0,1.81-3.81,27.31,27.31,0,0,0,.49-5.73,44.74,44.74,0,0,0-.3-5.67,10.12,10.12,0,0,0-1.21-3.81,8.47,8.47,0,0,0-2.48-2.59,19.23,19.23,0,0,0-4.1-2.06L189.05,45a25.87,25.87,0,0,1-5.56-3,13,13,0,0,1-3.68-4.16,19.71,19.71,0,0,1-2.05-6,46.35,46.35,0,0,1-.66-8.45A29.39,29.39,0,0,1,178.85,13a19.35,19.35,0,0,1,5.25-7.79,20.88,20.88,0,0,1,6.46-3.8A23.18,23.18,0,0,1,198.83,0q10,0,15.45,5.19A17.49,17.49,0,0,1,219,13.1a39.71,39.71,0,0,1,1.32,10.8H206.79a33.72,33.72,0,0,0-.36-5.19,8.4,8.4,0,0,0-1.69-4q-1.94-2.54-6-2.54a8,8,0,0,0-3.45.67,7.23,7.23,0,0,0-2.35,1.75c-1.53,1.77-2.29,4.58-2.29,8.45a34.65,34.65,0,0,0,.24,4.46,7.11,7.11,0,0,0,3.2,5.32,16.8,16.8,0,0,0,3.68,1.81l10.14,4.1a28.19,28.19,0,0,1,6.4,3.5,14,14,0,0,1,4,4.71,21.34,21.34,0,0,1,2.05,6.64A60.27,60.27,0,0,1,220.92,62.9Z" style="fill:#fff"/><path d="M254.12,12.92V86.68H240.6V12.92H226.23V.72H268.6v12.2Z" style="fill:#fff"/><path d="M277.17,86.68V.72h36.1v12.2H290.69V37.3h19.44V49.5H290.69v25h22.58V86.68Z" style="fill:#fff"/><path d="M388.36,86.68V33.08L376.65,68.33h-7.49L357.69,33.68v53H344.17V.72h12.19L373,45.87,389.56.72h12.32v86Z" style="fill:#fff"/><path d="M415.15,86.68V.72h36.1v12.2H428.68V37.3h19.43V49.5H428.68v25h22.57V86.68Z" style="fill:#fff"/><path d="M503.28,62.9a46.65,46.65,0,0,1-1.15,11.22,15.78,15.78,0,0,1-4.4,7.73,19.84,19.84,0,0,1-6.82,4.1,28.22,28.22,0,0,1-10,1.57q-11,0-16.66-5.67a16.77,16.77,0,0,1-4.35-7.36,41.9,41.9,0,0,1-1.2-11.11h13.52a28.09,28.09,0,0,0,.48,5.73A8.75,8.75,0,0,0,474.67,73a8,8,0,0,0,2.48,1.63,9.49,9.49,0,0,0,3.8.66c3,0,5.15-.8,6.52-2.41a8.66,8.66,0,0,0,1.81-3.81,28.09,28.09,0,0,0,.48-5.73,44.74,44.74,0,0,0-.3-5.67,9.77,9.77,0,0,0-1.21-3.81,8.44,8.44,0,0,0-2.47-2.59,19.58,19.58,0,0,0-4.11-2.06L471.41,45a25.78,25.78,0,0,1-5.55-3,12.88,12.88,0,0,1-3.68-4.16,19.45,19.45,0,0,1-2.06-6,46.35,46.35,0,0,1-.66-8.45A29.39,29.39,0,0,1,461.21,13a19.55,19.55,0,0,1,5.25-7.79,20.88,20.88,0,0,1,6.46-3.8A23.18,23.18,0,0,1,481.19,0q10,0,15.45,5.19a17.49,17.49,0,0,1,4.71,7.91,39.68,39.68,0,0,1,1.33,10.8H489.16a32.44,32.44,0,0,0-.37-5.19,8.4,8.4,0,0,0-1.69-4c-1.28-1.69-3.3-2.54-6-2.54a8,8,0,0,0-3.44.67,7.27,7.27,0,0,0-2.36,1.75c-1.53,1.77-2.29,4.58-2.29,8.45a34.65,34.65,0,0,0,.24,4.46,7.18,7.18,0,0,0,3.2,5.32,16.8,16.8,0,0,0,3.68,1.81l10.14,4.1a28.19,28.19,0,0,1,6.4,3.5,14.11,14.11,0,0,1,4,4.71,21.88,21.88,0,0,1,2.05,6.64A61.69,61.69,0,0,1,503.28,62.9Z" style="fill:#fff"/><path d="M51.55,162.21q0,7.48-.18,13.09a93.41,93.41,0,0,1-.79,9.9,31.34,31.34,0,0,1-1.87,7.43,18.57,18.57,0,0,1-3.44,5.55,22.6,22.6,0,0,1-6.58,5.07,21.64,21.64,0,0,1-10.08,2.05H6.76v-86H28.61a21.64,21.64,0,0,1,10.08,2.05,22.6,22.6,0,0,1,6.58,5.07A18.78,18.78,0,0,1,48.71,132a30.44,30.44,0,0,1,1.87,7.37,93.85,93.85,0,0,1,.79,9.9Q51.55,154.84,51.55,162.21Zm-13.52,0q0-11.36-.42-17.75c-.29-4.27-1.11-7.4-2.48-9.42a7.15,7.15,0,0,0-2.72-2.53,8.39,8.39,0,0,0-4.16-1h-8v61.57h8a8.5,8.5,0,0,0,4.16-1,7.18,7.18,0,0,0,2.72-2.54q2.05-3,2.48-9.54T38,162.21Z" style="fill:#fff"/><path d="M62.53,205.3v-86h36.1v12.19H76.05v24.39H95.49v12.19H76.05v25H98.63V205.3Z" style="fill:#fff"/><path d="M109.13,205.3v-86h13.52v73.76h22.58V205.3Z" style="fill:#fff"/><path d="M208.36,205.3l-20.28-51.06V205.3H174.56v-86h12.07l20.16,51.06V119.35h13.52v86Z" style="fill:#fff"/><path d="M233.59,205.3v-86h13.52v86Z" style="fill:#fff"/><path d="M294.19,205.3l-20.28-51.06V205.3H260.39v-86h12.07l20.16,51.06V119.35h13.53v86ZM301,107a22.15,22.15,0,0,1-5.61,4.34,11.75,11.75,0,0,1-5.25,1.21,13,13,0,0,1-3.68-.48,20.3,20.3,0,0,1-3.68-1.57,14.24,14.24,0,0,0-2.6-1.33,7.59,7.59,0,0,0-2.72-.48,7.12,7.12,0,0,0-2.47.42,10.12,10.12,0,0,0-3.08,2.35L266.31,106a24.68,24.68,0,0,1,5.55-4.41,11.06,11.06,0,0,1,5.19-1.26,15.45,15.45,0,0,1,3.74.42,14.26,14.26,0,0,1,3.75,1.63,15.18,15.18,0,0,0,2.59,1.33,7.63,7.63,0,0,0,2.72.48,7.28,7.28,0,0,0,2.41-.42,8.85,8.85,0,0,0,3-2.36Z" style="fill:#fff"/><path d="M363,162.33q0,7.6-.18,13.34a96.94,96.94,0,0,1-.78,10.08,32.4,32.4,0,0,1-1.87,7.48,20.34,20.34,0,0,1-3.44,5.67,22.19,22.19,0,0,1-6.64,5.26,24.85,24.85,0,0,1-20,0,22.07,22.07,0,0,1-6.64-5.26,18.86,18.86,0,0,1-3.38-5.73,37.11,37.11,0,0,1-1.87-7.48,81.9,81.9,0,0,1-.85-10q-.18-5.74-.18-13.34t.18-13.34a81.73,81.73,0,0,1,.85-10,37.21,37.21,0,0,1,1.87-7.49,19,19,0,0,1,3.38-5.73,22.2,22.2,0,0,1,6.64-5.25,24.74,24.74,0,0,1,20,0,22.32,22.32,0,0,1,6.64,5.25,20.48,20.48,0,0,1,3.44,5.67,32.49,32.49,0,0,1,1.87,7.49,96.72,96.72,0,0,1,.78,10.08Q363,154.72,363,162.33Zm-13.52,0q0-11.84-.48-18.6t-2.41-9.89a7.58,7.58,0,0,0-2.54-2.36,7.92,7.92,0,0,0-4-.9,7.62,7.62,0,0,0-3.93.9,7.74,7.74,0,0,0-2.47,2.36q-1.94,3.14-2.48,9.89t-.54,18.6q0,11.82.54,18.59t2.48,9.9a7.71,7.71,0,0,0,2.47,2.35,7.62,7.62,0,0,0,3.93.91,7.92,7.92,0,0,0,4-.91,7.55,7.55,0,0,0,2.54-2.35q1.92-3.13,2.41-9.9T349.48,162.33Z" style="fill:#fff"/><path d="M373.63,223.41V190.33h13.88v22.82Z" style="fill:#fff"/><path d="M444,131.54V205.3H430.48V131.54H416.12V119.35h42.37v12.19Z" style="fill:#fff"/><path d="M509.44,162.33q0,7.6-.19,13.34a96.94,96.94,0,0,1-.78,10.08,31.9,31.9,0,0,1-1.87,7.48,20.34,20.34,0,0,1-3.44,5.67,22.19,22.19,0,0,1-6.64,5.26,24.85,24.85,0,0,1-20,0,22.07,22.07,0,0,1-6.64-5.26,18.86,18.86,0,0,1-3.38-5.73,37.11,37.11,0,0,1-1.87-7.48,81.9,81.9,0,0,1-.85-10q-.18-5.74-.18-13.34t.18-13.34a81.73,81.73,0,0,1,.85-10,37.21,37.21,0,0,1,1.87-7.49,19,19,0,0,1,3.38-5.73,22.2,22.2,0,0,1,6.64-5.25,24.74,24.74,0,0,1,20,0,22.32,22.32,0,0,1,6.64,5.25,20.48,20.48,0,0,1,3.44,5.67,32,32,0,0,1,1.87,7.49,96.72,96.72,0,0,1,.78,10.08Q509.45,154.72,509.44,162.33Zm-13.53,0q0-11.84-.48-18.6T493,133.84a7.58,7.58,0,0,0-2.54-2.36,7.92,7.92,0,0,0-4-.9,7.62,7.62,0,0,0-3.93.9,7.74,7.74,0,0,0-2.47,2.36q-1.94,3.14-2.48,9.89t-.54,18.6q0,11.82.54,18.59t2.48,9.9a7.71,7.71,0,0,0,2.47,2.35,7.62,7.62,0,0,0,3.93.91,7.92,7.92,0,0,0,4-.91,7.55,7.55,0,0,0,2.54-2.35q1.92-3.13,2.41-9.9T495.91,162.33Z" style="fill:#fff"/><path d="M565.21,162.21q0,7.48-.18,13.09a93.41,93.41,0,0,1-.79,9.9,31.34,31.34,0,0,1-1.87,7.43,18.57,18.57,0,0,1-3.44,5.55,22.6,22.6,0,0,1-6.58,5.07,21.66,21.66,0,0,1-10.08,2.05H520.42v-86h21.85a21.66,21.66,0,0,1,10.08,2.05,22.6,22.6,0,0,1,6.58,5.07,18.78,18.78,0,0,1,3.44,5.49,30.44,30.44,0,0,1,1.87,7.37,93.85,93.85,0,0,1,.79,9.9Q565.21,154.84,565.21,162.21Zm-13.52,0q0-11.36-.43-17.75c-.28-4.27-1.1-7.4-2.47-9.42a7.23,7.23,0,0,0-2.72-2.53,8.39,8.39,0,0,0-4.16-1h-8v61.57h8a8.5,8.5,0,0,0,4.16-1,7.25,7.25,0,0,0,2.72-2.54q2.06-3,2.47-9.54T551.69,162.21Z" style="fill:#fff"/><path d="M619.77,162.33q0,7.6-.18,13.34a96.94,96.94,0,0,1-.78,10.08,32.4,32.4,0,0,1-1.87,7.48,20.37,20.37,0,0,1-3.45,5.67,22.07,22.07,0,0,1-6.64,5.26,24.82,24.82,0,0,1-20,0,21.94,21.94,0,0,1-6.64-5.26,19.09,19.09,0,0,1-3.39-5.73,38.5,38.5,0,0,1-1.87-7.48,84.12,84.12,0,0,1-.84-10q-.18-5.74-.18-13.34t.18-13.34a83.93,83.93,0,0,1,.84-10,38.61,38.61,0,0,1,1.87-7.49,19.21,19.21,0,0,1,3.39-5.73,22.07,22.07,0,0,1,6.64-5.25,24.72,24.72,0,0,1,20,0,22.2,22.2,0,0,1,6.64,5.25,20.52,20.52,0,0,1,3.45,5.67,32.49,32.49,0,0,1,1.87,7.49,96.72,96.72,0,0,1,.78,10.08Q619.77,154.72,619.77,162.33Zm-13.52,0q0-11.84-.48-18.6t-2.42-9.89a7.54,7.54,0,0,0-2.53-2.36,8,8,0,0,0-4-.9,7,7,0,0,0-6.39,3.26Q588.5,137,588,143.73t-.54,18.6q0,11.82.54,18.59t2.48,9.9a7.07,7.07,0,0,0,6.39,3.26,8,8,0,0,0,4-.91,7.51,7.51,0,0,0,2.53-2.35q1.93-3.13,2.42-9.9T606.25,162.33Z" style="fill:#fff"/><path d="M672.28,181.52a47.3,47.3,0,0,1-1.14,11.23,15.84,15.84,0,0,1-4.41,7.72,19.91,19.91,0,0,1-6.82,4.11,28.45,28.45,0,0,1-10,1.57q-11,0-16.66-5.68a16.7,16.7,0,0,1-4.34-7.36A41.43,41.43,0,0,1,627.74,182h13.52a28.13,28.13,0,0,0,.48,5.74,8.77,8.77,0,0,0,1.93,3.92,7.92,7.92,0,0,0,2.48,1.63,9.48,9.48,0,0,0,3.8.67q4.47,0,6.52-2.42a8.57,8.57,0,0,0,1.81-3.8,28.13,28.13,0,0,0,.48-5.74,44.85,44.85,0,0,0-.3-5.67,9.67,9.67,0,0,0-1.21-3.8,8.47,8.47,0,0,0-2.47-2.6,19.35,19.35,0,0,0-4.11-2.05l-10.26-4.23a25.77,25.77,0,0,1-5.55-3,13,13,0,0,1-3.68-4.17,19.47,19.47,0,0,1-2-6,45.5,45.5,0,0,1-.67-8.46,29.39,29.39,0,0,1,1.75-10.44,19.59,19.59,0,0,1,5.25-7.78,21.22,21.22,0,0,1,6.46-3.81,23.44,23.44,0,0,1,8.27-1.39q10,0,15.45,5.2a17.33,17.33,0,0,1,4.71,7.9,39.32,39.32,0,0,1,1.33,10.81H658.16a33.72,33.72,0,0,0-.36-5.19,8.53,8.53,0,0,0-1.69-4q-1.93-2.53-6-2.53a8,8,0,0,0-3.44.66,7.53,7.53,0,0,0-2.35,1.75q-2.29,2.66-2.3,8.45a34.93,34.93,0,0,0,.24,4.47,7.78,7.78,0,0,0,1,3.08,7.65,7.65,0,0,0,2.17,2.23,16.25,16.25,0,0,0,3.69,1.81l10.14,4.11a27.56,27.56,0,0,1,6.39,3.5,14,14,0,0,1,4,4.71,21.52,21.52,0,0,1,2,6.64A61.55,61.55,0,0,1,672.28,181.52Z" style="fill:#fff"/><path d="M32.84,323.93h-14L0,238H14.85l11,65.19L36.94,238H51.79Z" style="fill:#fff"/><path d="M101.29,281q0,7.6-.18,13.34a96.72,96.72,0,0,1-.79,10.08,32,32,0,0,1-1.87,7.49A20.48,20.48,0,0,1,95,317.53a22.2,22.2,0,0,1-6.64,5.25,21.25,21.25,0,0,1-10,2.11,21.22,21.22,0,0,1-10-2.11,22.2,22.2,0,0,1-6.64-5.25,19,19,0,0,1-3.38-5.73,37.21,37.21,0,0,1-1.87-7.49,83.75,83.75,0,0,1-.85-10q-.18-5.73-.18-13.34t.18-13.34a83.94,83.94,0,0,1,.85-10,37.11,37.11,0,0,1,1.87-7.48,19,19,0,0,1,3.38-5.74,22.2,22.2,0,0,1,6.64-5.25,21.22,21.22,0,0,1,10-2.11,21.25,21.25,0,0,1,10,2.11A22.2,22.2,0,0,1,95,244.37a20.39,20.39,0,0,1,3.44,5.68,31.77,31.77,0,0,1,1.87,7.48,96.72,96.72,0,0,1,.79,10.08Q101.29,273.36,101.29,281Zm-13.52,0q0-11.83-.49-18.59t-2.41-9.9a7.45,7.45,0,0,0-2.54-2.35,7.79,7.79,0,0,0-4-.91,7.46,7.46,0,0,0-3.92.91A7.54,7.54,0,0,0,72,252.46q-1.94,3.14-2.47,9.9T68.93,281q0,11.83.55,18.59t2.47,9.9a7.67,7.67,0,0,0,2.48,2.36,7.56,7.56,0,0,0,3.92.9,7.89,7.89,0,0,0,4-.9,7.58,7.58,0,0,0,2.54-2.36q1.93-3.13,2.41-9.9T87.77,281Z" style="fill:#fff"/><path d="M112.27,323.93V238h13.52v73.76h22.58v12.2Z" style="fill:#fff"/><path d="M176.74,323.93h-14L143.9,238h14.85l11,65.19L180.84,238h14.85Z" style="fill:#fff"/><path d="M233.6,323.93l-3.5-17H210.18l-3.38,17H192.55l21.13-86h13.16l20.88,86Zm-13.4-65.19-7.37,36h14.73Z" style="fill:#fff"/><path d="M298.67,323.93v-53.6L287,305.58h-7.49L268,270.93v53H254.48V238h12.19l16.66,45.15L299.87,238h12.32v86Z" style="fill:#fff"/><path d="M369,281q0,7.6-.18,13.34a96.94,96.94,0,0,1-.78,10.08,32.49,32.49,0,0,1-1.87,7.49,20.48,20.48,0,0,1-3.44,5.67,22.32,22.32,0,0,1-6.64,5.25,24.85,24.85,0,0,1-20,0,22.2,22.2,0,0,1-6.64-5.25,19,19,0,0,1-3.38-5.73,37.21,37.21,0,0,1-1.87-7.49,81.73,81.73,0,0,1-.85-10q-.18-5.73-.18-13.34t.18-13.34a81.9,81.9,0,0,1,.85-10,37.11,37.11,0,0,1,1.87-7.48,19,19,0,0,1,3.38-5.74,22.2,22.2,0,0,1,6.64-5.25,24.85,24.85,0,0,1,20,0,22.32,22.32,0,0,1,6.64,5.25,20.39,20.39,0,0,1,3.44,5.68,32.27,32.27,0,0,1,1.87,7.48,96.94,96.94,0,0,1,.78,10.08Q369,273.36,369,281Zm-13.52,0q0-11.83-.48-18.59t-2.41-9.9a7.45,7.45,0,0,0-2.54-2.35,7.82,7.82,0,0,0-4-.91,7.52,7.52,0,0,0-3.93.91,7.6,7.6,0,0,0-2.47,2.35q-1.93,3.14-2.48,9.9T336.69,281q0,11.83.54,18.59t2.48,9.9a7.74,7.74,0,0,0,2.47,2.36,7.62,7.62,0,0,0,3.93.9,7.92,7.92,0,0,0,4-.9,7.58,7.58,0,0,0,2.54-2.36q1.92-3.13,2.41-9.9T355.52,281Z" style="fill:#fff"/><path d="M421.56,300.15a47.16,47.16,0,0,1-1.15,11.22A15.72,15.72,0,0,1,416,319.1a19.74,19.74,0,0,1-6.82,4.1,28.14,28.14,0,0,1-10,1.57q-11,0-16.66-5.67a16.73,16.73,0,0,1-4.34-7.37,41.3,41.3,0,0,1-1.21-11.1h13.52a27.31,27.31,0,0,0,.49,5.73,8.75,8.75,0,0,0,1.93,3.93,7.92,7.92,0,0,0,2.47,1.63,9.52,9.52,0,0,0,3.8.66q4.47,0,6.52-2.41a8.55,8.55,0,0,0,1.81-3.81,27.31,27.31,0,0,0,.49-5.73,45,45,0,0,0-.3-5.68,10.12,10.12,0,0,0-1.21-3.8,8.47,8.47,0,0,0-2.48-2.59,19.23,19.23,0,0,0-4.1-2.06l-10.26-4.22a25.63,25.63,0,0,1-5.56-3,13,13,0,0,1-3.68-4.16,19.71,19.71,0,0,1-2.05-6,46.35,46.35,0,0,1-.66-8.45,29.39,29.39,0,0,1,1.75-10.44,19.35,19.35,0,0,1,5.25-7.79,20.88,20.88,0,0,1,6.46-3.8,23.18,23.18,0,0,1,8.27-1.39q10,0,15.45,5.19a17.49,17.49,0,0,1,4.71,7.91,39.71,39.71,0,0,1,1.32,10.8H407.43a33.72,33.72,0,0,0-.36-5.19,8.4,8.4,0,0,0-1.69-4q-1.94-2.53-6-2.54a8,8,0,0,0-3.44.67,7.23,7.23,0,0,0-2.35,1.75c-1.53,1.77-2.29,4.58-2.29,8.45a34.65,34.65,0,0,0,.24,4.46,7.11,7.11,0,0,0,3.2,5.32,16.36,16.36,0,0,0,3.68,1.81l10.14,4.1a28.41,28.41,0,0,1,6.4,3.5,14,14,0,0,1,4,4.71,21.34,21.34,0,0,1,2.05,6.64A60.27,60.27,0,0,1,421.56,300.15Z" style="fill:#fff"/><path d="M487,323.93l-3.5-17H463.57l-3.38,17H445.94l21.13-86h13.16l20.88,86Zm-13.4-65.19-7.37,36H481Z" style="fill:#fff"/><path d="M561.47,301.47A29.29,29.29,0,0,1,560,311a19.77,19.77,0,0,1-4.47,7.43q-6.15,6.51-17.26,6.51a24,24,0,0,1-9.54-1.81,22,22,0,0,1-7.36-5.07L530.8,309a8.77,8.77,0,0,0,3.08,2.65,9,9,0,0,0,4.41,1.09,9.15,9.15,0,0,0,6.94-2.84C547,308,548,305.18,548,301.47V238h13.52Z" style="fill:#fff"/><path d="M617.12,302.8a24.28,24.28,0,0,1-1.57,8.93,21,21,0,0,1-4.35,6.89q-6.15,6.27-15.93,6.27t-16.06-6.27a20.77,20.77,0,0,1-4.34-6.89,24.08,24.08,0,0,1-1.57-8.93V238h13.52v65.56q0,4.59,2.47,6.88a8.47,8.47,0,0,0,6,2.29,8.25,8.25,0,0,0,5.91-2.29q2.42-2.3,2.42-6.88V238h13.52Z" style="fill:#fff"/><path d="M672.29,301a30.08,30.08,0,0,1-1.63,10.38,21.13,21.13,0,0,1-4.53,7.49,18.43,18.43,0,0,1-6.94,4.53,25.33,25.33,0,0,1-8.87,1.5,21.19,21.19,0,0,1-10-2.11,22.2,22.2,0,0,1-6.64-5.25,19.18,19.18,0,0,1-3.38-5.67,35.88,35.88,0,0,1-1.87-7.49,83.7,83.7,0,0,1-.85-10.08q-.18-5.73-.18-13.34t.18-13.34a83.7,83.7,0,0,1,.85-10.08,35.62,35.62,0,0,1,1.87-7.48,19.1,19.1,0,0,1,3.38-5.68,22.2,22.2,0,0,1,6.64-5.25,21.19,21.19,0,0,1,10-2.11,23.41,23.41,0,0,1,8.81,1.51,19.29,19.29,0,0,1,6.52,4.28,21.68,21.68,0,0,1,4.77,7.85,34.87,34.87,0,0,1,1.87,10.14H658.77a25.52,25.52,0,0,0-.3-3.8,12.24,12.24,0,0,0-1.21-3.74,7.88,7.88,0,0,0-2.54-2.9,9,9,0,0,0-8.33-.24,7.6,7.6,0,0,0-2.47,2.35q-2.05,3.14-2.54,9.9T640.9,281q0,11.83.48,18.59t2.54,9.9a7.74,7.74,0,0,0,2.47,2.36,7.62,7.62,0,0,0,3.93.9c3,0,5.13-1.09,6.46-3.26a14.59,14.59,0,0,0,2-7.72V288.31h-8.45v-11.1h22Z" style="fill:#fff"/><path d="M716.59,323.93l-3.5-17H693.17l-3.38,17H675.55l21.12-86h13.16l20.89,86Zm-13.4-65.19-7.36,36h14.73Z" style="fill:#fff"/><path d="M769.83,323.93,758.6,288.68H751v35.25H737.48V238h21.73q11.82,0,16.9,6t5.07,19.38A40.16,40.16,0,0,1,779.12,277a16,16,0,0,1-8,8.81L784,323.93Zm-2.17-60.6a41.09,41.09,0,0,0-.31-5.07,14.21,14.21,0,0,0-1.14-4.23,6.48,6.48,0,0,0-2.54-2.84,8.3,8.3,0,0,0-4.34-1H751v26.31h8.33a8.3,8.3,0,0,0,4.34-1,6.42,6.42,0,0,0,2.54-2.84,14.15,14.15,0,0,0,1.14-4.22A41.09,41.09,0,0,0,767.66,263.33Z" style="fill:#fff"/></g></g></svg>