<svg xmlns="http://www.w3.org/2000/svg" viewBox="0 0 836.15 67.68"><title>legales</title><g id="Capa_2" data-name="Capa 2"><g id="Capa_1-2" data-name="Capa 1"><path d="M158.6,6.94a11.8,11.8,0,0,1-.36,3.16,5.09,5.09,0,0,1-1.08,2,4,4,0,0,1-1.69,1.1,6.9,6.9,0,0,1-2.27.34h-2.37v9.5h-2.75V.29h5.12a7.29,7.29,0,0,1,2.28.33,4.07,4.07,0,0,1,1.72,1.11,4.9,4.9,0,0,1,1.05,2.05A11.89,11.89,0,0,1,158.6,6.94Zm-2.75,0a5.79,5.79,0,0,0-.67-3.24,2.38,2.38,0,0,0-2.08-1h-2.27V11.1h2.27a2.41,2.41,0,0,0,2.08-.92A5.75,5.75,0,0,0,155.85,6.94Z" style="fill:#fff"/><path d="M167.37,8.74a2.83,2.83,0,0,0-3,3V23.07h-2.59V6.5h2.5V8.26a2.66,2.66,0,0,1,.51-.66,6,6,0,0,1,.64-.53,4.65,4.65,0,0,1,2.72-.83v2.5Z" style="fill:#fff"/><path d="M179.05,14.78a36.76,36.76,0,0,1-.21,4.28,5.48,5.48,0,0,1-1,2.73A3.67,3.67,0,0,1,176.35,23a5.48,5.48,0,0,1-2,.35,5.35,5.35,0,0,1-2-.35,3.61,3.61,0,0,1-1.5-1.19,5.48,5.48,0,0,1-1-2.73,34.22,34.22,0,0,1-.23-4.28,34,34,0,0,1,.23-4.27,5.48,5.48,0,0,1,1-2.73,3.61,3.61,0,0,1,1.5-1.19,5.35,5.35,0,0,1,2-.35,5.48,5.48,0,0,1,2,.35,3.67,3.67,0,0,1,1.52,1.19,5.48,5.48,0,0,1,1,2.73A36.57,36.57,0,0,1,179.05,14.78Zm-2.59,0c0-1.49,0-2.67-.1-3.55a3.91,3.91,0,0,0-.54-2,1.7,1.7,0,0,0-1.47-.7,1.67,1.67,0,0,0-1.44.7,4,4,0,0,0-.56,2c-.08.88-.12,2.06-.12,3.55s0,2.68.12,3.56a4,4,0,0,0,.56,1.95,1.67,1.67,0,0,0,1.44.7,1.7,1.7,0,0,0,1.47-.7,3.91,3.91,0,0,0,.54-1.95C176.43,17.46,176.46,16.28,176.46,14.78Z" style="fill:#fff"/><path d="M195.21,23.07V10.88a2.37,2.37,0,0,0-.56-1.7,2,2,0,0,0-2.78,0,2.33,2.33,0,0,0-.56,1.7V23.07h-2.6V10.88a2.33,2.33,0,0,0-.57-1.7,2,2,0,0,0-1.41-.57,1.85,1.85,0,0,0-1.39.57,2.33,2.33,0,0,0-.56,1.7V23.07h-2.59V6.5h2.49V7.78a2.22,2.22,0,0,1,.47-.58,3.45,3.45,0,0,1,.56-.45,3.35,3.35,0,0,1,1.79-.51,3.63,3.63,0,0,1,1.81.48A4.09,4.09,0,0,1,190.67,8a4.18,4.18,0,0,1,.6-.67,4.86,4.86,0,0,1,.71-.55,2.68,2.68,0,0,1,.91-.38,4,4,0,0,1,1-.13,4.3,4.3,0,0,1,1.75.3,3.68,3.68,0,0,1,1.22.92,3.2,3.2,0,0,1,.74,1.31,7.81,7.81,0,0,1,.22,2.11V23.07Z" style="fill:#fff"/><path d="M210.25,14.78a36.76,36.76,0,0,1-.21,4.28,5.48,5.48,0,0,1-1,2.73A3.63,3.63,0,0,1,207.54,23a5.41,5.41,0,0,1-2,.35,5.34,5.34,0,0,1-2-.35,3.61,3.61,0,0,1-1.5-1.19,5.39,5.39,0,0,1-1-2.73,34.22,34.22,0,0,1-.23-4.28,34,34,0,0,1,.23-4.27,5.39,5.39,0,0,1,1-2.73,3.61,3.61,0,0,1,1.5-1.19,5.34,5.34,0,0,1,2-.35,5.41,5.41,0,0,1,2,.35,3.63,3.63,0,0,1,1.53,1.19,5.48,5.48,0,0,1,1,2.73A36.57,36.57,0,0,1,210.25,14.78Zm-2.59,0c0-1.49,0-2.67-.1-3.55a3.91,3.91,0,0,0-.54-2,1.71,1.71,0,0,0-1.48-.7,1.66,1.66,0,0,0-1.43.7,4.1,4.1,0,0,0-.57,2c-.07.88-.11,2.06-.11,3.55s0,2.68.11,3.56a4.1,4.1,0,0,0,.57,1.95,1.66,1.66,0,0,0,1.43.7,1.71,1.71,0,0,0,1.48-.7,3.91,3.91,0,0,0,.54-1.95C207.62,17.46,207.66,16.28,207.66,14.78Z" style="fill:#fff"/><path d="M222.12,18.43a8,8,0,0,1-.37,2.13,4.1,4.1,0,0,1-.94,1.62,3.65,3.65,0,0,1-1.43.88,5.79,5.79,0,0,1-1.84.27,5.4,5.4,0,0,1-1.95-.35,3.57,3.57,0,0,1-1.53-1.19,5.52,5.52,0,0,1-1-2.75,36.38,36.38,0,0,1-.22-4.26,36.32,36.32,0,0,1,.22-4.27,5.48,5.48,0,0,1,1-2.73,3.57,3.57,0,0,1,1.53-1.19,5.4,5.4,0,0,1,1.95-.35,6.15,6.15,0,0,1,1.81.24,3.38,3.38,0,0,1,1.43.88,3.6,3.6,0,0,1,1,1.71,10.36,10.36,0,0,1,.32,2h-2.59a6.63,6.63,0,0,0-.08-1,1.9,1.9,0,0,0-.43-.92,1.8,1.8,0,0,0-1.44-.6,1.73,1.73,0,0,0-1.48.7,3.82,3.82,0,0,0-.54,1.92c-.06.88-.1,2.07-.1,3.58s0,2.68.1,3.56a4,4,0,0,0,.54,1.95,1.91,1.91,0,0,0,2.88.09,1.69,1.69,0,0,0,.45-.88,5.12,5.12,0,0,0,.1-1.07Z" style="fill:#fff"/><path d="M224.74,3.55v-3h3v3ZM225,23.07V6.5h2.59V23.07Z" style="fill:#fff"/><path d="M240.1,14.78a37,37,0,0,1-.2,4.28,5.48,5.48,0,0,1-1,2.73A3.61,3.61,0,0,1,237.4,23a5.44,5.44,0,0,1-2,.35,5.26,5.26,0,0,1-2-.35,3.64,3.64,0,0,1-1.51-1.19,5.58,5.58,0,0,1-1-2.73,34.44,34.44,0,0,1-.22-4.28,34.27,34.27,0,0,1,.22-4.27,5.58,5.58,0,0,1,1-2.73,3.64,3.64,0,0,1,1.51-1.19,5.26,5.26,0,0,1,2-.35,5.44,5.44,0,0,1,2,.35,3.61,3.61,0,0,1,1.52,1.19,5.48,5.48,0,0,1,1,2.73A36.83,36.83,0,0,1,240.1,14.78Zm-2.59,0c0-1.49,0-2.67-.09-3.55a4,4,0,0,0-.55-2,1.7,1.7,0,0,0-1.47-.7,1.67,1.67,0,0,0-1.44.7,4.11,4.11,0,0,0-.56,2c-.07.88-.11,2.06-.11,3.55s0,2.68.11,3.56a4.11,4.11,0,0,0,.56,1.95,1.67,1.67,0,0,0,1.44.7,1.7,1.7,0,0,0,1.47-.7,4,4,0,0,0,.55-1.95C237.48,17.46,237.51,16.28,237.51,14.78ZM236.23,4.32h-1.95L236.46,0h2.37Z" style="fill:#fff"/><path d="M249.77,23.07V10.88a2.29,2.29,0,0,0-.58-1.7,1.92,1.92,0,0,0-1.41-.57,1.87,1.87,0,0,0-1.39.57,2.37,2.37,0,0,0-.56,1.7V23.07h-2.59V6.5h2.5V7.78a2.17,2.17,0,0,1,.46-.58,3.93,3.93,0,0,1,.56-.45,3.35,3.35,0,0,1,1.79-.51,3.9,3.9,0,0,1,1.6.3,3.78,3.78,0,0,1,1.22.92,3.33,3.33,0,0,1,.75,1.31,7.32,7.32,0,0,1,.24,2.11V23.07Z" style="fill:#fff"/><path d="M266.92,23.07h-2.75l-4-16.57H263L265.54,19,268,6.5h2.85Z" style="fill:#fff"/><path d="M278.7,23.07V21.6a3.67,3.67,0,0,1-.45.64,3.74,3.74,0,0,1-.51.48,3.4,3.4,0,0,1-.84.45,3.54,3.54,0,0,1-1.12.16,3.51,3.51,0,0,1-2.84-1.25,3.91,3.91,0,0,1-.77-1.47,7.71,7.71,0,0,1-.29-2.24,5.88,5.88,0,0,1,.37-2.13,3.93,3.93,0,0,1,1.1-1.62,4.66,4.66,0,0,1,1.43-.83,6.24,6.24,0,0,1,2.09-.29h1.7V10.88q0-2.37-1.95-2.37a1.6,1.6,0,0,0-.74.15,2,2,0,0,0-.54.4,1.71,1.71,0,0,0-.48.8,4,4,0,0,0-.13,1.12h-2.59a6.63,6.63,0,0,1,.27-1.88,4,4,0,0,1,2.4-2.52,4.74,4.74,0,0,1,1.81-.34,4.37,4.37,0,0,1,3.23,1.15,5,5,0,0,1,1,1.51,5.77,5.77,0,0,1,.35,2.14v12Zm-.13-7.68H277.1a3.47,3.47,0,0,0-1,.13,2.24,2.24,0,0,0-.82.48,2.43,2.43,0,0,0-.56,1,4,4,0,0,0-.21,1.29,3.63,3.63,0,0,0,.5,2.05,1.7,1.7,0,0,0,1.52.74,1.82,1.82,0,0,0,1.5-.72,2.89,2.89,0,0,0,.58-1.88Zm-1-11.07h-2L277.8,0h2.37Z" style="fill:#fff"/><path d="M289.61,23.07a9.08,9.08,0,0,1-1.95-.19,3.71,3.71,0,0,1-1.64-.83A3.88,3.88,0,0,1,285,20.61a5.56,5.56,0,0,1-.4-2.27V.29h2.59v18a2.2,2.2,0,0,0,2.47,2.5Z" style="fill:#fff"/><path d="M291.75,3.55v-3h3v3ZM292,23.07V6.5h2.59V23.07Z" style="fill:#fff"/><path d="M304.42,23.07V21.79a2.21,2.21,0,0,1-.44.58,3.41,3.41,0,0,1-.55.45,3.55,3.55,0,0,1-4.54-.74,4.84,4.84,0,0,1-1-2.66,40.22,40.22,0,0,1-.21-4.64,40.94,40.94,0,0,1,.21-4.64,4.87,4.87,0,0,1,1-2.68,3.41,3.41,0,0,1,1.17-.92,3.74,3.74,0,0,1,1.58-.3,3.51,3.51,0,0,1,1.79.48,2.72,2.72,0,0,1,.5.42,6.47,6.47,0,0,1,.43.51V.29H307V23.07ZM304.36,11a3.28,3.28,0,0,0-.16-1.12,2.1,2.1,0,0,0-.48-.77,1.82,1.82,0,0,0-1.34-.51,1.66,1.66,0,0,0-1.41.67,1.7,1.7,0,0,0-.35.67,5.61,5.61,0,0,0-.21,1.07,13.74,13.74,0,0,0-.1,1.59c0,.62,0,1.35,0,2.2,0,1.71,0,3,.11,3.8a3,3,0,0,0,.56,1.74,1.66,1.66,0,0,0,1.41.67,1.82,1.82,0,0,0,1.34-.51,2.6,2.6,0,0,0,.64-1.92Z" style="fill:#fff"/><path d="M316.62,23.07V21.6a3.67,3.67,0,0,1-.45.64,3.74,3.74,0,0,1-.51.48,3.4,3.4,0,0,1-.84.45,3.54,3.54,0,0,1-1.12.16,3.51,3.51,0,0,1-2.84-1.25,3.91,3.91,0,0,1-.77-1.47,7.71,7.71,0,0,1-.29-2.24,5.88,5.88,0,0,1,.37-2.13,3.93,3.93,0,0,1,1.1-1.62,4.66,4.66,0,0,1,1.43-.83,6.24,6.24,0,0,1,2.09-.29h1.7V10.88q0-2.37-1.95-2.37a1.6,1.6,0,0,0-.74.15,2,2,0,0,0-.54.4,1.71,1.71,0,0,0-.48.8,4,4,0,0,0-.13,1.12h-2.59a6.63,6.63,0,0,1,.27-1.88,3.88,3.88,0,0,1,1-1.64,3.94,3.94,0,0,1,1.4-.88,4.74,4.74,0,0,1,1.81-.34,4.37,4.37,0,0,1,3.23,1.15,5,5,0,0,1,1,1.51,5.77,5.77,0,0,1,.35,2.14v12Zm-.13-7.68H315a3.47,3.47,0,0,0-1,.13,2.24,2.24,0,0,0-.82.48,2.43,2.43,0,0,0-.56,1,4,4,0,0,0-.21,1.29,3.63,3.63,0,0,0,.5,2.05,1.7,1.7,0,0,0,1.52.74,1.82,1.82,0,0,0,1.5-.72,3,3,0,0,0,.58-1.88Z" style="fill:#fff"/><path d="M334.79,23.07V21.79a2.07,2.07,0,0,1-.45.58,3,3,0,0,1-.54.45,3.51,3.51,0,0,1-1.79.51,3.47,3.47,0,0,1-2.76-1.25,4.91,4.91,0,0,1-1-2.66,40.22,40.22,0,0,1-.21-4.64,40.94,40.94,0,0,1,.21-4.64,5,5,0,0,1,1-2.68,3.61,3.61,0,0,1,1.17-.92,3.82,3.82,0,0,1,1.59-.3,3.53,3.53,0,0,1,1.79.48,2.67,2.67,0,0,1,.49.42,5,5,0,0,1,.44.51V.29h2.59V23.07ZM334.73,11a3.54,3.54,0,0,0-.16-1.12,2.1,2.1,0,0,0-.48-.77,1.82,1.82,0,0,0-1.35-.51,1.69,1.69,0,0,0-1.41.67,2,2,0,0,0-.35.67,7.78,7.78,0,0,0-.21,1.07q-.07.66-.09,1.59c0,.62,0,1.35,0,2.2,0,1.71,0,3,.11,3.8a3.2,3.2,0,0,0,.56,1.74,1.69,1.69,0,0,0,1.41.67,1.82,1.82,0,0,0,1.35-.51,2.65,2.65,0,0,0,.64-1.92Z" style="fill:#fff"/><path d="M343.05,15.39c0,1.32,0,2.38.11,3.17a3.15,3.15,0,0,0,.56,1.73,1.72,1.72,0,0,0,.59.51,1.87,1.87,0,0,0,.88.19,2.2,2.2,0,0,0,.8-.14,1.89,1.89,0,0,0,.67-.5,1.7,1.7,0,0,0,.43-.83,4.49,4.49,0,0,0,.12-1.09h2.59a6.71,6.71,0,0,1-.34,2.05,4.2,4.2,0,0,1-4.27,2.85,5.59,5.59,0,0,1-1.86-.29,3.59,3.59,0,0,1-1.44-1,5.28,5.28,0,0,1-1.2-2.83,31.23,31.23,0,0,1-.27-4.44,32.64,32.64,0,0,1,.26-4.44,5,5,0,0,1,1.18-2.82,3.59,3.59,0,0,1,1.44-1,5.45,5.45,0,0,1,1.83-.29,5.39,5.39,0,0,1,1.82.29,3.59,3.59,0,0,1,1.44,1,5.21,5.21,0,0,1,1.2,2.9,36.73,36.73,0,0,1,.27,5Zm4.19-2a21.56,21.56,0,0,0-.13-2.78,2.73,2.73,0,0,0-.51-1.41,2,2,0,0,0-.59-.5,1.89,1.89,0,0,0-.88-.17,1.8,1.8,0,0,0-.87.17,2.05,2.05,0,0,0-.57.5,2.72,2.72,0,0,0-.52,1.41,24,24,0,0,0-.12,2.78Z" style="fill:#fff"/><path d="M361.54,18.56a4.84,4.84,0,0,1-.38,2,5.16,5.16,0,0,1-1,1.49,3.77,3.77,0,0,1-1.52,1,5.71,5.71,0,0,1-3.74,0,4,4,0,0,1-1.46-1A5,5,0,0,1,352,18.4h2.56a2.81,2.81,0,0,0,.7,2,1.88,1.88,0,0,0,.69.43,2.43,2.43,0,0,0,.78.14,2.12,2.12,0,0,0,1.57-.61,2.22,2.22,0,0,0,.64-1.66,2.64,2.64,0,0,0-.42-1.5,3.3,3.3,0,0,0-.6-.64,4.49,4.49,0,0,0-.87-.55l-2.14-1.09A5.2,5.2,0,0,1,352.65,13a4.2,4.2,0,0,1-.52-2.17,4.71,4.71,0,0,1,.37-1.91,5,5,0,0,1,1-1.45,4.13,4.13,0,0,1,1.47-1,5.25,5.25,0,0,1,1.79-.3A4.38,4.38,0,0,1,360,7.42a4.83,4.83,0,0,1,1.34,3.65h-2.56a4.18,4.18,0,0,0-.14-1.18,2.23,2.23,0,0,0-.47-.8,1.66,1.66,0,0,0-.65-.45,2.21,2.21,0,0,0-.76-.13,1.94,1.94,0,0,0-1.44.55,2.17,2.17,0,0,0-.6,1.6,2.43,2.43,0,0,0,.28,1.21A3,3,0,0,0,356.39,13L358.5,14a5.4,5.4,0,0,1,2.34,1.88A4.7,4.7,0,0,1,361.54,18.56Z" style="fill:#fff"/><path d="M370.57,23.07V21.79a2.54,2.54,0,0,1-.45.58,3.41,3.41,0,0,1-.55.45,3.55,3.55,0,0,1-4.54-.74,4.91,4.91,0,0,1-1-2.66,40.22,40.22,0,0,1-.21-4.64,40.94,40.94,0,0,1,.21-4.64,5,5,0,0,1,1-2.68,3.41,3.41,0,0,1,1.17-.92,3.74,3.74,0,0,1,1.58-.3,3.51,3.51,0,0,1,1.79.48,2.43,2.43,0,0,1,.5.42,6.47,6.47,0,0,1,.43.51V.29h2.59V23.07ZM370.5,11a3.28,3.28,0,0,0-.16-1.12,1.86,1.86,0,0,0-.48-.77,1.82,1.82,0,0,0-1.34-.51,1.66,1.66,0,0,0-1.41.67,1.7,1.7,0,0,0-.35.67,5.61,5.61,0,0,0-.21,1.07c-.05.44-.09,1-.1,1.59s0,1.35,0,2.2c0,1.71,0,3,.11,3.8a3,3,0,0,0,.56,1.74,1.66,1.66,0,0,0,1.41.67,1.82,1.82,0,0,0,1.34-.51,2.6,2.6,0,0,0,.64-1.92Z" style="fill:#fff"/><path d="M378.82,15.39c0,1.32,0,2.38.11,3.17a3.32,3.32,0,0,0,.56,1.73,1.67,1.67,0,0,0,.6.51A1.82,1.82,0,0,0,381,21a2.28,2.28,0,0,0,.8-.14,2,2,0,0,0,.67-.5,1.89,1.89,0,0,0,.43-.83,5.08,5.08,0,0,0,.11-1.09h2.59a7,7,0,0,1-.33,2.05A4.2,4.2,0,0,1,381,23.33a5.5,5.5,0,0,1-1.86-.29,3.59,3.59,0,0,1-1.44-1,5.13,5.13,0,0,1-1.2-2.83,31.23,31.23,0,0,1-.27-4.44,32.82,32.82,0,0,1,.25-4.44,5,5,0,0,1,1.19-2.82,3.46,3.46,0,0,1,1.44-1,5.39,5.39,0,0,1,1.82-.29,5.49,5.49,0,0,1,1.83.29,3.59,3.59,0,0,1,1.44,1,5.35,5.35,0,0,1,1.2,2.9,36.73,36.73,0,0,1,.27,5Zm4.19-2a24,24,0,0,0-.12-2.78,2.72,2.72,0,0,0-.52-1.41,1.65,1.65,0,0,0-1.47-.67,1.75,1.75,0,0,0-.86.17,2,2,0,0,0-.58.5,2.82,2.82,0,0,0-.51,1.41,21.56,21.56,0,0,0-.13,2.78Z" style="fill:#fff"/><path d="M396.71,15.39c0,1.32,0,2.38.11,3.17a3.23,3.23,0,0,0,.56,1.73,1.72,1.72,0,0,0,.59.51,1.87,1.87,0,0,0,.88.19,2.2,2.2,0,0,0,.8-.14,1.92,1.92,0,0,0,.68-.5,1.89,1.89,0,0,0,.43-.83,5.08,5.08,0,0,0,.11-1.09h2.59a7,7,0,0,1-.33,2.05,4.44,4.44,0,0,1-1,1.63,4.36,4.36,0,0,1-3.27,1.22A5.48,5.48,0,0,1,397,23a3.46,3.46,0,0,1-1.44-1,5.13,5.13,0,0,1-1.2-2.83,31.23,31.23,0,0,1-.27-4.44,32.82,32.82,0,0,1,.25-4.44,5,5,0,0,1,1.19-2.82,3.46,3.46,0,0,1,1.44-1,5.86,5.86,0,0,1,3.64,0,3.46,3.46,0,0,1,1.44,1,5.21,5.21,0,0,1,1.2,2.9,36.49,36.49,0,0,1,.28,5Zm4.19-2a21.56,21.56,0,0,0-.13-2.78,2.64,2.64,0,0,0-.51-1.41,2,2,0,0,0-.59-.5,1.87,1.87,0,0,0-.88-.17,1.75,1.75,0,0,0-.86.17,2,2,0,0,0-.58.5,2.64,2.64,0,0,0-.51,1.41,21.56,21.56,0,0,0-.13,2.78Z" style="fill:#fff"/><path d="M411.46,23.07a9.22,9.22,0,0,1-1.95-.19,4,4,0,0,1-2.7-2.27,5.56,5.56,0,0,1-.4-2.27V.29H409v18a2.19,2.19,0,0,0,2.46,2.5Z" style="fill:#fff"/><path d="M428.68,16.67c0,.75,0,1.4-.05,1.95a7.63,7.63,0,0,1-.21,1.48,4.75,4.75,0,0,1-.43,1.12,4.1,4.1,0,0,1-.69.89,4.19,4.19,0,0,1-1.47.9,5.39,5.39,0,0,1-3.63,0,3.46,3.46,0,0,1-1.46-.91,3.68,3.68,0,0,1-1-1.39,5.52,5.52,0,0,1-.34-2.13V17.15H422v1.54a2.33,2.33,0,0,0,.58,1.73A1.91,1.91,0,0,0,424,21a1.64,1.64,0,0,0,1.38-.61,2.7,2.7,0,0,0,.53-1.18,12.55,12.55,0,0,0,.17-2.53q0-1.05,0-1.71a8.83,8.83,0,0,0-.11-1.09,2.54,2.54,0,0,0-.21-.7,2,2,0,0,0-.32-.5,1.76,1.76,0,0,0-1.41-.61h-1.21V9.82H424a1.5,1.5,0,0,0,1.25-.48,2.32,2.32,0,0,0,.52-1.13,13.64,13.64,0,0,0,.12-2.13A13.26,13.26,0,0,0,425.77,4a2.41,2.41,0,0,0-.45-1.06,1.85,1.85,0,0,0-2.63,0,2.41,2.41,0,0,0-.51,1.68v1.6h-2.59V4.74a5.87,5.87,0,0,1,.32-2.08,3.89,3.89,0,0,1,.93-1.44A4.41,4.41,0,0,1,424,0a4.29,4.29,0,0,1,3.17,1.15,4,4,0,0,1,1,1.8,11.36,11.36,0,0,1,.31,2.94,16.39,16.39,0,0,1-.12,2.24,4.46,4.46,0,0,1-.46,1.5,3.35,3.35,0,0,1-1.28,1.28,4.76,4.76,0,0,1,1.31,1.25,5.4,5.4,0,0,1,.37.77,4.09,4.09,0,0,1,.22.9,11.4,11.4,0,0,1,.12,1.18C428.67,15.49,428.68,16,428.68,16.67Z" style="fill:#fff"/><path d="M440.84,18.59a5.66,5.66,0,0,1-.34,2.1A3.92,3.92,0,0,1,438.07,23a5.35,5.35,0,0,1-1.81.32,5.15,5.15,0,0,1-1.79-.32,4.19,4.19,0,0,1-1.47-.9,4.32,4.32,0,0,1-.95-1.42,5.67,5.67,0,0,1-.33-2.1V4.77a5.71,5.71,0,0,1,.33-2.1A4.32,4.32,0,0,1,433,1.25a4.19,4.19,0,0,1,1.47-.9A5.15,5.15,0,0,1,436.26,0a5.35,5.35,0,0,1,1.81.32,4.27,4.27,0,0,1,1.49.9,4.29,4.29,0,0,1,.94,1.42,5.69,5.69,0,0,1,.34,2.1ZM438.25,4.67a2.38,2.38,0,0,0-.58-1.73,1.93,1.93,0,0,0-1.41-.57,1.87,1.87,0,0,0-1.39.57,2.42,2.42,0,0,0-.56,1.73v14a2.42,2.42,0,0,0,.56,1.73,1.87,1.87,0,0,0,1.39.57,1.93,1.93,0,0,0,1.41-.57,2.38,2.38,0,0,0,.58-1.73Z" style="fill:#fff"/><path d="M456.39,23.07V21.79a2.54,2.54,0,0,1-.45.58,3,3,0,0,1-.54.45,3.51,3.51,0,0,1-1.8.51,3.45,3.45,0,0,1-2.75-1.25,4.91,4.91,0,0,1-1-2.66,43.07,43.07,0,0,1-.2-4.64,43.86,43.86,0,0,1,.2-4.64,5,5,0,0,1,1-2.68A3.41,3.41,0,0,1,452,6.54a3.81,3.81,0,0,1,1.58-.3,3.57,3.57,0,0,1,1.8.48,2.67,2.67,0,0,1,.49.42,4.85,4.85,0,0,1,.43.51V.29h2.6V23.07ZM456.32,11a3.28,3.28,0,0,0-.16-1.12,1.86,1.86,0,0,0-.48-.77,1.82,1.82,0,0,0-1.34-.51,1.66,1.66,0,0,0-1.41.67,1.84,1.84,0,0,0-.35.67,7.78,7.78,0,0,0-.21,1.07q-.08.66-.09,1.59c0,.62,0,1.35,0,2.2,0,1.71,0,3,.11,3.8a3.11,3.11,0,0,0,.56,1.74,1.66,1.66,0,0,0,1.41.67,1.82,1.82,0,0,0,1.34-.51,2.6,2.6,0,0,0,.64-1.92Z" style="fill:#fff"/><path d="M464.64,15.39c0,1.32,0,2.38.12,3.17a3.15,3.15,0,0,0,.56,1.73,1.55,1.55,0,0,0,.59.51,1.84,1.84,0,0,0,.88.19,2.24,2.24,0,0,0,.8-.14,1.89,1.89,0,0,0,.67-.5,1.79,1.79,0,0,0,.43-.83,4.52,4.52,0,0,0,.11-1.09h2.6a7,7,0,0,1-.34,2.05,4.2,4.2,0,0,1-4.27,2.85,5.5,5.5,0,0,1-1.86-.29,3.59,3.59,0,0,1-1.44-1,5.13,5.13,0,0,1-1.2-2.83,31.23,31.23,0,0,1-.27-4.44,32.64,32.64,0,0,1,.26-4.44,5,5,0,0,1,1.18-2.82,3.59,3.59,0,0,1,1.44-1,5.39,5.39,0,0,1,1.82-.29,5.45,5.45,0,0,1,1.83.29,3.59,3.59,0,0,1,1.44,1,5.21,5.21,0,0,1,1.2,2.9,36.73,36.73,0,0,1,.27,5Zm4.2-2a23.57,23.57,0,0,0-.13-2.78,2.82,2.82,0,0,0-.51-1.41,1.91,1.91,0,0,0-.6-.5,1.84,1.84,0,0,0-.88-.17,1.75,1.75,0,0,0-.86.17,2.24,2.24,0,0,0-.58.5,2.82,2.82,0,0,0-.51,1.41,23.57,23.57,0,0,0-.13,2.78Z" style="fill:#fff"/><path d="M483,24.54a5.58,5.58,0,0,1-.4,2.28,3.83,3.83,0,0,1-1.07,1.44,3.69,3.69,0,0,1-1.65.83,9.31,9.31,0,0,1-2,.19V26.94a2.8,2.8,0,0,0,1.85-.54,2.44,2.44,0,0,0,.64-1.95V6.5H483Zm-2.81-21v-3h3v3Z" style="fill:#fff"/><path d="M493.19,23.07V21.79a2.4,2.4,0,0,1-.47.58,3.93,3.93,0,0,1-.56.45,3.35,3.35,0,0,1-1.79.51,3.74,3.74,0,0,1-1.6-.31,3.48,3.48,0,0,1-1.21-.91,3.23,3.23,0,0,1-.76-1.31,7.36,7.36,0,0,1-.24-2.11V6.5h2.6V18.69a2.37,2.37,0,0,0,.57,1.73,1.93,1.93,0,0,0,1.41.57,1.87,1.87,0,0,0,1.39-.57,2.37,2.37,0,0,0,.56-1.73V6.5h2.59V23.07Z" style="fill:#fff"/><path d="M504.26,23.07a9.22,9.22,0,0,1-1.95-.19,3.67,3.67,0,0,1-1.63-.83,3.8,3.8,0,0,1-1.08-1.44,5.73,5.73,0,0,1-.4-2.27V.29h2.6v18a2.19,2.19,0,0,0,2.46,2.5Z" style="fill:#fff"/><path d="M506.4,3.55v-3h3v3Zm.23,19.52V6.5h2.59V23.07Z" style="fill:#fff"/><path d="M521.76,14.78a39.41,39.41,0,0,1-.2,4.28,5.48,5.48,0,0,1-1,2.73A3.61,3.61,0,0,1,519.06,23a5.44,5.44,0,0,1-2,.35,5.26,5.26,0,0,1-2-.35,3.64,3.64,0,0,1-1.51-1.19,5.58,5.58,0,0,1-1-2.73,34.44,34.44,0,0,1-.22-4.28,34.27,34.27,0,0,1,.22-4.27,5.58,5.58,0,0,1,1-2.73,3.64,3.64,0,0,1,1.51-1.19,5.26,5.26,0,0,1,2-.35,5.44,5.44,0,0,1,2,.35,3.61,3.61,0,0,1,1.52,1.19,5.48,5.48,0,0,1,1,2.73A39.21,39.21,0,0,1,521.76,14.78Zm-2.59,0c0-1.49,0-2.67-.09-3.55a4,4,0,0,0-.55-2,1.7,1.7,0,0,0-1.47-.7,1.67,1.67,0,0,0-1.44.7,4,4,0,0,0-.56,2c-.07.88-.11,2.06-.11,3.55s0,2.68.11,3.56a4,4,0,0,0,.56,1.95,1.67,1.67,0,0,0,1.44.7,1.7,1.7,0,0,0,1.47-.7,4,4,0,0,0,.55-1.95C519.14,17.46,519.17,16.28,519.17,14.78Z" style="fill:#fff"/><path d="M536.9,23.07V21.6a3.67,3.67,0,0,1-.45.64,3.74,3.74,0,0,1-.51.48,3.34,3.34,0,0,1-.83.45,3.54,3.54,0,0,1-1.12.16,3.74,3.74,0,0,1-1.6-.31,3.65,3.65,0,0,1-1.25-.94,3.91,3.91,0,0,1-.77-1.47,7.71,7.71,0,0,1-.29-2.24,6.11,6.11,0,0,1,.37-2.13,4,4,0,0,1,1.11-1.62,4.61,4.61,0,0,1,1.42-.83,6.27,6.27,0,0,1,2.1-.29h1.69V10.88q0-2.37-1.95-2.37a1.62,1.62,0,0,0-.74.15,2,2,0,0,0-.54.4,1.71,1.71,0,0,0-.48.8,4,4,0,0,0-.13,1.12h-2.59a6.63,6.63,0,0,1,.27-1.88A4,4,0,0,1,533,6.58a4.78,4.78,0,0,1,1.81-.34,4.35,4.35,0,0,1,3.23,1.15,4.64,4.64,0,0,1,1,1.51,5.57,5.57,0,0,1,.35,2.14v12Zm-.13-7.68H535.3a3.51,3.51,0,0,0-1,.13,2.24,2.24,0,0,0-.82.48,2.55,2.55,0,0,0-.56,1,4,4,0,0,0-.2,1.29,3.63,3.63,0,0,0,.49,2.05,1.71,1.71,0,0,0,1.52.74,1.85,1.85,0,0,0,1.51-.72,3,3,0,0,0,.57-1.88Z" style="fill:#fff"/><path d="M547.81,23.07a9.22,9.22,0,0,1-1.95-.19,4,4,0,0,1-2.7-2.27,5.56,5.56,0,0,1-.4-2.27V.29h2.59v18a2.19,2.19,0,0,0,2.46,2.5Z" style="fill:#fff"/><path d="M565,16.67c0,.75,0,1.4,0,1.95a7.63,7.63,0,0,1-.21,1.48,4.75,4.75,0,0,1-.43,1.12,4.1,4.1,0,0,1-.69.89,4.28,4.28,0,0,1-1.47.9,5.39,5.39,0,0,1-3.63,0,3.46,3.46,0,0,1-1.46-.91,3.68,3.68,0,0,1-1-1.39,5.52,5.52,0,0,1-.34-2.13V17.15h2.59v1.54a2.33,2.33,0,0,0,.58,1.73,1.91,1.91,0,0,0,1.4.57,1.64,1.64,0,0,0,1.38-.61,2.7,2.7,0,0,0,.53-1.18,12.55,12.55,0,0,0,.17-2.53q0-1.05,0-1.71a8.83,8.83,0,0,0-.11-1.09,2.54,2.54,0,0,0-.21-.7,2,2,0,0,0-.32-.5,1.76,1.76,0,0,0-1.41-.61h-1.21V9.82h1.21a1.5,1.5,0,0,0,1.25-.48,2.32,2.32,0,0,0,.52-1.13,13.64,13.64,0,0,0,.12-2.13A13.26,13.26,0,0,0,562.12,4a2.41,2.41,0,0,0-.45-1.06,1.85,1.85,0,0,0-2.63,0,2.41,2.41,0,0,0-.51,1.68v1.6h-2.59V4.74a5.65,5.65,0,0,1,.32-2.08,3.89,3.89,0,0,1,.93-1.44A4.41,4.41,0,0,1,560.35,0a4.31,4.31,0,0,1,3.17,1.15,4,4,0,0,1,1,1.8,11.43,11.43,0,0,1,.3,2.94,16.67,16.67,0,0,1-.11,2.24,4.46,4.46,0,0,1-.46,1.5A3.35,3.35,0,0,1,563,10.94a4.76,4.76,0,0,1,1.31,1.25,5.4,5.4,0,0,1,.37.77,4.74,4.74,0,0,1,.22.9A11.4,11.4,0,0,1,565,15C565,15.49,565,16,565,16.67Z" style="fill:#fff"/><path d="M572,23.07V3.33l-3.33,2.72V3L572,.29h2.59V23.07Z" style="fill:#fff"/><path d="M592.74,23.07V21.79a2.54,2.54,0,0,1-.45.58,3,3,0,0,1-.54.45,3.51,3.51,0,0,1-1.8.51,3.45,3.45,0,0,1-2.75-1.25,4.91,4.91,0,0,1-1-2.66,40.6,40.6,0,0,1-.2-4.64,41.31,41.31,0,0,1,.2-4.64,5,5,0,0,1,1-2.68,3.41,3.41,0,0,1,1.17-.92,3.77,3.77,0,0,1,1.58-.3,3.57,3.57,0,0,1,1.8.48,2.67,2.67,0,0,1,.49.42,4.85,4.85,0,0,1,.43.51V.29h2.6V23.07ZM592.67,11a3.28,3.28,0,0,0-.16-1.12,1.86,1.86,0,0,0-.48-.77,1.82,1.82,0,0,0-1.34-.51,1.66,1.66,0,0,0-1.41.67,1.7,1.7,0,0,0-.35.67,6.52,6.52,0,0,0-.21,1.07q-.08.66-.09,1.59c0,.62,0,1.35,0,2.2,0,1.71,0,3,.11,3.8a3.11,3.11,0,0,0,.56,1.74,1.66,1.66,0,0,0,1.41.67,1.82,1.82,0,0,0,1.34-.51,2.6,2.6,0,0,0,.64-1.92Z" style="fill:#fff"/><path d="M601,15.39c0,1.32,0,2.38.12,3.17a3.15,3.15,0,0,0,.56,1.73,1.55,1.55,0,0,0,.59.51,1.84,1.84,0,0,0,.88.19,2.24,2.24,0,0,0,.8-.14,1.89,1.89,0,0,0,.67-.5,1.79,1.79,0,0,0,.43-.83,4.52,4.52,0,0,0,.11-1.09h2.6a7.38,7.38,0,0,1-.34,2.05,4.2,4.2,0,0,1-4.27,2.85,5.5,5.5,0,0,1-1.86-.29,3.59,3.59,0,0,1-1.44-1,5.13,5.13,0,0,1-1.2-2.83,31.23,31.23,0,0,1-.27-4.44,32.64,32.64,0,0,1,.26-4.44,5,5,0,0,1,1.18-2.82,3.59,3.59,0,0,1,1.44-1,5.39,5.39,0,0,1,1.82-.29,5.45,5.45,0,0,1,1.83.29,3.59,3.59,0,0,1,1.44,1,5.21,5.21,0,0,1,1.2,2.9,36.73,36.73,0,0,1,.27,5Zm4.2-2a23.57,23.57,0,0,0-.13-2.78,2.82,2.82,0,0,0-.51-1.41,1.91,1.91,0,0,0-.6-.5,1.84,1.84,0,0,0-.88-.17,1.75,1.75,0,0,0-.86.17,2.09,2.09,0,0,0-.58.5,2.82,2.82,0,0,0-.51,1.41,23.57,23.57,0,0,0-.13,2.78Z" style="fill:#fff"/><path d="M622.82,23.07V21.6a3.67,3.67,0,0,1-.45.64,3.74,3.74,0,0,1-.51.48,3.53,3.53,0,0,1-.83.45,3.59,3.59,0,0,1-1.12.16,3.71,3.71,0,0,1-1.6-.31,3.65,3.65,0,0,1-1.25-.94,3.91,3.91,0,0,1-.77-1.47,7.71,7.71,0,0,1-.29-2.24,5.88,5.88,0,0,1,.37-2.13,3.93,3.93,0,0,1,1.1-1.62,4.78,4.78,0,0,1,1.43-.83A6.24,6.24,0,0,1,621,13.5h1.7V10.88q0-2.37-2-2.37a1.6,1.6,0,0,0-.74.15,2,2,0,0,0-.54.4,1.71,1.71,0,0,0-.48.8,4,4,0,0,0-.13,1.12h-2.59a6.63,6.63,0,0,1,.27-1.88,3.9,3.9,0,0,1,1-1.64,3.81,3.81,0,0,1,1.39-.88,4.74,4.74,0,0,1,1.81-.34A4.37,4.37,0,0,1,624,7.39a4.81,4.81,0,0,1,1,1.51,5.77,5.77,0,0,1,.35,2.14v12Zm-.13-7.68h-1.47a3.51,3.51,0,0,0-1,.13,2.24,2.24,0,0,0-.82.48,2.55,2.55,0,0,0-.56,1,4,4,0,0,0-.21,1.29,3.63,3.63,0,0,0,.5,2.05,1.71,1.71,0,0,0,1.52.74,1.82,1.82,0,0,0,1.5-.72,2.89,2.89,0,0,0,.58-1.88Z" style="fill:#fff"/><path d="M637.54,23.46a10.3,10.3,0,0,1-.32,2.88,4.5,4.5,0,0,1-1,1.76,3.84,3.84,0,0,1-1.44.94,5,5,0,0,1-1.82.34,5.74,5.74,0,0,1-1.82-.29,3.93,3.93,0,0,1-1.51-.9,3.76,3.76,0,0,1-1-1.6,6.54,6.54,0,0,1-.28-2H631a6.2,6.2,0,0,0,.09,1.1,1.77,1.77,0,0,0,.45.88,1.91,1.91,0,0,0,1.41.55,1.74,1.74,0,0,0,.8-.18,2.68,2.68,0,0,0,.61-.43,2.26,2.26,0,0,0,.49-1.07,9.05,9.05,0,0,0,.15-1.84V21.09a6.66,6.66,0,0,1-.44.51A2.67,2.67,0,0,1,634,22a2.88,2.88,0,0,1-1.73.51,3.38,3.38,0,0,1-2.72-1.22,3.87,3.87,0,0,1-.64-1,6.44,6.44,0,0,1-.4-1.41,15.21,15.21,0,0,1-.21-1.92c0-.73-.06-1.59-.06-2.57s0-1.84.06-2.56a15.64,15.64,0,0,1,.21-1.92,6.64,6.64,0,0,1,.4-1.43,4,4,0,0,1,.64-1,3.47,3.47,0,0,1,2.72-1.18,3.07,3.07,0,0,1,1.79.51,3.61,3.61,0,0,1,.93.9V6.5h2.53ZM635,11a3.54,3.54,0,0,0-.16-1.12,2.1,2.1,0,0,0-.48-.77A1.84,1.84,0,0,0,633,8.58a1.66,1.66,0,0,0-1.41.67,1.92,1.92,0,0,0-.35.65,7.47,7.47,0,0,0-.21,1,13.67,13.67,0,0,0-.09,1.45c0,.58,0,1.26,0,2.05,0,1.58,0,2.75.11,3.5a3.13,3.13,0,0,0,.56,1.68,2,2,0,0,0,.61.48,1.64,1.64,0,0,0,.8.2,1.83,1.83,0,0,0,1.35-.55,2.1,2.1,0,0,0,.48-.77,3.5,3.5,0,0,0,.16-1.12Z" style="fill:#fff"/><path d="M649.92,14.78a36.76,36.76,0,0,1-.21,4.28,5.48,5.48,0,0,1-1,2.73A3.67,3.67,0,0,1,647.22,23a5.48,5.48,0,0,1-2,.35,5.35,5.35,0,0,1-2-.35,3.68,3.68,0,0,1-1.5-1.19,5.58,5.58,0,0,1-1-2.73,34.22,34.22,0,0,1-.23-4.28,34,34,0,0,1,.23-4.27,5.58,5.58,0,0,1,1-2.73,3.68,3.68,0,0,1,1.5-1.19,5.35,5.35,0,0,1,2-.35,5.48,5.48,0,0,1,2,.35,3.67,3.67,0,0,1,1.52,1.19,5.48,5.48,0,0,1,1,2.73A36.57,36.57,0,0,1,649.92,14.78Zm-2.59,0c0-1.49,0-2.67-.1-3.55a3.91,3.91,0,0,0-.54-2,1.7,1.7,0,0,0-1.47-.7,1.67,1.67,0,0,0-1.44.7,4,4,0,0,0-.56,2c-.08.88-.11,2.06-.11,3.55s0,2.68.11,3.56a4,4,0,0,0,.56,1.95,1.67,1.67,0,0,0,1.44.7,1.7,1.7,0,0,0,1.47-.7,3.91,3.91,0,0,0,.54-1.95C647.3,17.46,647.33,16.28,647.33,14.78Z" style="fill:#fff"/><path d="M661.73,18.56a4.84,4.84,0,0,1-.38,2,5.16,5.16,0,0,1-1,1.49,3.84,3.84,0,0,1-1.52,1,5.71,5.71,0,0,1-3.74,0,4,4,0,0,1-1.46-1,5,5,0,0,1-1.41-3.65h2.56a2.81,2.81,0,0,0,.71,2,1.88,1.88,0,0,0,.69.43,2.38,2.38,0,0,0,.78.14,2.12,2.12,0,0,0,1.57-.61,2.26,2.26,0,0,0,.64-1.66,2.64,2.64,0,0,0-.42-1.5,3.08,3.08,0,0,0-.61-.64,4.11,4.11,0,0,0-.86-.55l-2.14-1.09A5.29,5.29,0,0,1,652.83,13a4.3,4.3,0,0,1-.51-2.17,4.71,4.71,0,0,1,.37-1.91,5,5,0,0,1,1-1.45,4,4,0,0,1,1.47-1,5.21,5.21,0,0,1,1.79-.3,4.34,4.34,0,0,1,3.23,1.18,4.8,4.8,0,0,1,1.35,3.65H659a3.81,3.81,0,0,0-.15-1.18,2.07,2.07,0,0,0-.46-.8,1.62,1.62,0,0,0-.66-.45,2.11,2.11,0,0,0-.75-.13,1.93,1.93,0,0,0-1.44.55,2.18,2.18,0,0,0-.61,1.6,2.43,2.43,0,0,0,.29,1.21A3,3,0,0,0,656.58,13L658.69,14A5.4,5.4,0,0,1,661,15.9,4.7,4.7,0,0,1,661.73,18.56Z" style="fill:#fff"/><path d="M670.4,23.07a12,12,0,0,1-2.06-.17,3.81,3.81,0,0,1-1.75-.85,4.53,4.53,0,0,1-1.44-3.71V8.51h-1.88v-2h1.88V2h2.6V6.5h2.56v2h-2.56v9.73a2.39,2.39,0,0,0,.67,1.92,3,3,0,0,0,2,.58Z" style="fill:#fff"/><path d="M681.76,14.78a36.76,36.76,0,0,1-.21,4.28,5.38,5.38,0,0,1-1,2.73A3.61,3.61,0,0,1,679.06,23a5.44,5.44,0,0,1-2,.35,5.26,5.26,0,0,1-2-.35,3.64,3.64,0,0,1-1.51-1.19,5.58,5.58,0,0,1-1-2.73,34.22,34.22,0,0,1-.23-4.28,34,34,0,0,1,.23-4.27,5.58,5.58,0,0,1,1-2.73,3.64,3.64,0,0,1,1.51-1.19,5.26,5.26,0,0,1,2-.35,5.44,5.44,0,0,1,2,.35,3.61,3.61,0,0,1,1.52,1.19,5.38,5.38,0,0,1,1,2.73A36.57,36.57,0,0,1,681.76,14.78Zm-2.59,0c0-1.49,0-2.67-.09-3.55a4,4,0,0,0-.55-2,1.7,1.7,0,0,0-1.47-.7,1.67,1.67,0,0,0-1.44.7,4,4,0,0,0-.56,2c-.08.88-.11,2.06-.11,3.55s0,2.68.11,3.56a4,4,0,0,0,.56,1.95,1.67,1.67,0,0,0,1.44.7,1.7,1.7,0,0,0,1.47-.7,4,4,0,0,0,.55-1.95C679.14,17.46,679.17,16.28,679.17,14.78Z" style="fill:#fff"/><path d="M685,23.07V19.9h3.17v3.17Z" style="fill:#fff"/><path d="M6.59,41.15V61.47H3.84V41.15H0V38.69H10.4v2.46Z" style="fill:#fff"/><path d="M13.38,53.79c0,1.33,0,2.38.11,3.17a3.15,3.15,0,0,0,.56,1.73,1.72,1.72,0,0,0,.59.51,1.87,1.87,0,0,0,.88.19,2.2,2.2,0,0,0,.8-.14,1.89,1.89,0,0,0,.67-.5,1.7,1.7,0,0,0,.43-.83,4.49,4.49,0,0,0,.12-1.09h2.59a6.71,6.71,0,0,1-.34,2.05,4.2,4.2,0,0,1-4.27,2.85,5.48,5.48,0,0,1-1.85-.29,3.56,3.56,0,0,1-1.45-1A5.28,5.28,0,0,1,11,57.62a31.23,31.23,0,0,1-.27-4.44A32.54,32.54,0,0,1,11,48.74a5,5,0,0,1,1.18-2.82,3.59,3.59,0,0,1,1.44-1,5.45,5.45,0,0,1,1.83-.29,5.39,5.39,0,0,1,1.82.29,3.59,3.59,0,0,1,1.44,1,5.21,5.21,0,0,1,1.2,2.9,36.63,36.63,0,0,1,.27,5Zm4.19-1.95a21.56,21.56,0,0,0-.13-2.78,2.73,2.73,0,0,0-.51-1.41,1.85,1.85,0,0,0-.59-.5,2,2,0,0,0-.88-.17,1.58,1.58,0,0,0-1.44.67,2.72,2.72,0,0,0-.52,1.41,24,24,0,0,0-.12,2.78Zm-1.28-9.12H14.34l2.17-4.32h2.37Z" style="fill:#fff"/><path d="M28.8,47.14a3,3,0,0,0-2.18.8,3,3,0,0,0-.83,2.24V61.47H23.2V44.9h2.5v1.76a2.66,2.66,0,0,1,.51-.66,6,6,0,0,1,.64-.53,4.63,4.63,0,0,1,2.72-.83v2.5Z" style="fill:#fff"/><path d="M44.93,61.47V49.28a2.37,2.37,0,0,0-.56-1.7,2,2,0,0,0-2.79,0,2.37,2.37,0,0,0-.56,1.7V61.47H38.43V49.28a2.33,2.33,0,0,0-.57-1.7A2,2,0,0,0,36.45,47a1.85,1.85,0,0,0-1.39.57,2.33,2.33,0,0,0-.56,1.7V61.47H31.9V44.9h2.5v1.28a2.39,2.39,0,0,1,.46-.58,4.59,4.59,0,0,1,.56-.45,3.41,3.41,0,0,1,1.8-.51,3.57,3.57,0,0,1,1.8.48,3.9,3.9,0,0,1,1.36,1.25A4.25,4.25,0,0,1,41,45.7a4.86,4.86,0,0,1,.71-.55,2.68,2.68,0,0,1,.91-.38,3.93,3.93,0,0,1,1-.13,4.32,4.32,0,0,1,1.76.3,3.68,3.68,0,0,1,1.22.92,3.2,3.2,0,0,1,.74,1.31,7.81,7.81,0,0,1,.22,2.11V61.47Z" style="fill:#fff"/><path d="M50.85,42v-3h3v3Zm.22,19.52V44.9h2.59V61.47Z" style="fill:#fff"/><path d="M63.84,61.47V49.28a2.29,2.29,0,0,0-.58-1.7,2,2,0,0,0-2.8,0,2.37,2.37,0,0,0-.56,1.7V61.47H57.31V44.9h2.5v1.28a2.39,2.39,0,0,1,.46-.58,3.93,3.93,0,0,1,.56-.45,3.37,3.37,0,0,1,1.79-.51,3.87,3.87,0,0,1,1.6.3,3.68,3.68,0,0,1,1.22.92,3.33,3.33,0,0,1,.75,1.31,7.32,7.32,0,0,1,.24,2.11V61.47Z" style="fill:#fff"/><path d="M78.85,53.18a36.76,36.76,0,0,1-.21,4.28,5.38,5.38,0,0,1-1,2.73,3.55,3.55,0,0,1-1.52,1.19,5.41,5.41,0,0,1-2,.35,5.34,5.34,0,0,1-2-.35,3.55,3.55,0,0,1-1.5-1.19,5.48,5.48,0,0,1-1-2.73,34.44,34.44,0,0,1-.22-4.28,34.38,34.38,0,0,1,.22-4.27,5.48,5.48,0,0,1,1-2.73A3.55,3.55,0,0,1,72.16,45a5.34,5.34,0,0,1,2-.35,5.41,5.41,0,0,1,2,.35,3.55,3.55,0,0,1,1.52,1.19,5.38,5.38,0,0,1,1,2.73A36.69,36.69,0,0,1,78.85,53.18Zm-2.59,0c0-1.49,0-2.67-.1-3.55a4,4,0,0,0-.54-2,1.73,1.73,0,0,0-1.48-.7,1.68,1.68,0,0,0-1.44.7,4.23,4.23,0,0,0-.56,2c-.07.88-.11,2.06-.11,3.55s0,2.68.11,3.56a4.23,4.23,0,0,0,.56,1.95,1.68,1.68,0,0,0,1.44.7,1.73,1.73,0,0,0,1.48-.7,4,4,0,0,0,.54-1.95C76.22,55.86,76.26,54.68,76.26,53.18Z" style="fill:#fff"/><path d="M90.66,57a4.68,4.68,0,0,1-.39,2,5.13,5.13,0,0,1-1,1.49,3.91,3.91,0,0,1-1.52,1,5.74,5.74,0,0,1-3.75,0,3.76,3.76,0,0,1-1.45-1,5,5,0,0,1-1.41-3.65h2.56a2.85,2.85,0,0,0,.7,2,2,2,0,0,0,.69.43,2.48,2.48,0,0,0,.79.14,2.08,2.08,0,0,0,1.56-.61,2.22,2.22,0,0,0,.64-1.66,2.72,2.72,0,0,0-.41-1.5A3.36,3.36,0,0,0,87,55a4.39,4.39,0,0,0-.86-.55L84,53.34a5.26,5.26,0,0,1-2.27-1.92,4.3,4.3,0,0,1-.51-2.17,4.55,4.55,0,0,1,.37-1.91,4.82,4.82,0,0,1,1-1.45,4.09,4.09,0,0,1,1.48-1,5.21,5.21,0,0,1,1.79-.3,4.41,4.41,0,0,1,3.23,1.18,4.79,4.79,0,0,1,1.34,3.65H87.9a3.84,3.84,0,0,0-.14-1.18,2.2,2.2,0,0,0-.46-.8,1.66,1.66,0,0,0-.66-.45,2.46,2.46,0,0,0-.75-.13,1.91,1.91,0,0,0-1.44.55,2.13,2.13,0,0,0-.61,1.6,2.43,2.43,0,0,0,.29,1.21,2.94,2.94,0,0,0,1.37,1.09l2.12,1.06A5.37,5.37,0,0,1,90,54.3,4.71,4.71,0,0,1,90.66,57Z" style="fill:#fff"/><path d="M103.81,64.13a4.87,4.87,0,0,1-.77,1.81A4,4,0,0,1,101.83,67a5.26,5.26,0,0,1-1.61.53,12.73,12.73,0,0,1-1.92.14v-2.3a4.18,4.18,0,0,0,2-.4,2.26,2.26,0,0,0,1-1.52l.51-2-4-16.54h2.85l2.53,12.44,2.49-12.44h2.85Z" style="fill:#fff"/><path d="M125.22,56.83a8.91,8.91,0,0,1-.37,2.13,4.11,4.11,0,0,1-.95,1.62,3.62,3.62,0,0,1-1.42.88,5.84,5.84,0,0,1-1.84.27,5.4,5.4,0,0,1-2-.35,3.6,3.6,0,0,1-1.54-1.19,5.62,5.62,0,0,1-1-2.75,34.32,34.32,0,0,1-.22-4.26,34.38,34.38,0,0,1,.22-4.27,5.58,5.58,0,0,1,1-2.73A3.6,3.6,0,0,1,118.69,45a5.4,5.4,0,0,1,2-.35,6.25,6.25,0,0,1,1.81.24,3.35,3.35,0,0,1,1.42.88,3.62,3.62,0,0,1,1,1.71,11.17,11.17,0,0,1,.32,2h-2.6a5.55,5.55,0,0,0-.08-1,1.81,1.81,0,0,0-.43-.92,1.79,1.79,0,0,0-1.44-.6,1.7,1.7,0,0,0-1.47.7,3.69,3.69,0,0,0-.54,1.92c-.07.87-.1,2.07-.1,3.58s0,2.68.1,3.56a3.91,3.91,0,0,0,.54,1.95,1.7,1.7,0,0,0,1.47.7,1.73,1.73,0,0,0,1.41-.61,1.81,1.81,0,0,0,.45-.88,5.93,5.93,0,0,0,.09-1.07Z" style="fill:#fff"/><path d="M137,53.18a36.76,36.76,0,0,1-.21,4.28,5.48,5.48,0,0,1-1,2.73,3.67,3.67,0,0,1-1.52,1.19,5.48,5.48,0,0,1-2,.35,5.35,5.35,0,0,1-2-.35,3.61,3.61,0,0,1-1.5-1.19,5.48,5.48,0,0,1-1-2.73,34.22,34.22,0,0,1-.23-4.28,34.16,34.16,0,0,1,.23-4.27,5.48,5.48,0,0,1,1-2.73,3.61,3.61,0,0,1,1.5-1.19,5.35,5.35,0,0,1,2-.35,5.48,5.48,0,0,1,2,.35,3.67,3.67,0,0,1,1.52,1.19,5.48,5.48,0,0,1,1,2.73A36.69,36.69,0,0,1,137,53.18Zm-2.59,0c0-1.49,0-2.67-.1-3.55a3.91,3.91,0,0,0-.54-2,1.7,1.7,0,0,0-1.47-.7,1.67,1.67,0,0,0-1.44.7,4,4,0,0,0-.56,2c-.08.88-.12,2.06-.12,3.55s0,2.68.12,3.56a4,4,0,0,0,.56,1.95,1.67,1.67,0,0,0,1.44.7,1.7,1.7,0,0,0,1.47-.7,3.91,3.91,0,0,0,.54-1.95C134.34,55.86,134.37,54.68,134.37,53.18Z" style="fill:#fff"/><path d="M146.62,61.47V49.28a2.33,2.33,0,0,0-.57-1.7,2,2,0,0,0-1.41-.57,1.85,1.85,0,0,0-1.39.57,2.33,2.33,0,0,0-.56,1.7V61.47H140.1V44.9h2.49v1.28a2.22,2.22,0,0,1,.47-.58,3.45,3.45,0,0,1,.56-.45,3.35,3.35,0,0,1,1.79-.51,3.9,3.9,0,0,1,1.6.3,3.64,3.64,0,0,1,1.21.92,3.35,3.35,0,0,1,.76,1.31,7.32,7.32,0,0,1,.24,2.11V61.47Z" style="fill:#fff"/><path d="M158.94,61.47V60.19a2.39,2.39,0,0,1-.44.58,3.41,3.41,0,0,1-.55.45,3.55,3.55,0,0,1-4.54-.74,4.84,4.84,0,0,1-1-2.66,40.34,40.34,0,0,1-.21-4.64,40.94,40.94,0,0,1,.21-4.64,4.84,4.84,0,0,1,1-2.68,3.41,3.41,0,0,1,1.17-.92,3.74,3.74,0,0,1,1.58-.3,3.51,3.51,0,0,1,1.79.48,2.72,2.72,0,0,1,.5.42,6.47,6.47,0,0,1,.43.51V38.69h2.59V61.47Zm-.06-12.09a3.24,3.24,0,0,0-.16-1.12,2.1,2.1,0,0,0-.48-.77A1.82,1.82,0,0,0,156.9,47a1.66,1.66,0,0,0-1.41.67,1.85,1.85,0,0,0-.36.67,6.87,6.87,0,0,0-.2,1.07,13.74,13.74,0,0,0-.1,1.59c0,.61,0,1.35,0,2.2,0,1.71,0,3,.11,3.8a3,3,0,0,0,.56,1.74,1.66,1.66,0,0,0,1.41.67,1.82,1.82,0,0,0,1.34-.51,2.6,2.6,0,0,0,.64-1.92Z" style="fill:#fff"/><path d="M164.89,42v-3h3v3Zm.23,19.52V44.9h2.59V61.47Z" style="fill:#fff"/><path d="M180.09,56.83a8.45,8.45,0,0,1-.36,2.13,4.24,4.24,0,0,1-.95,1.62,3.62,3.62,0,0,1-1.42.88,5.84,5.84,0,0,1-1.84.27,5.37,5.37,0,0,1-2-.35A3.6,3.6,0,0,1,172,60.19a5.62,5.62,0,0,1-1-2.75,34.32,34.32,0,0,1-.22-4.26,34.38,34.38,0,0,1,.22-4.27,5.58,5.58,0,0,1,1-2.73A3.6,3.6,0,0,1,173.57,45a5.37,5.37,0,0,1,2-.35,6.25,6.25,0,0,1,1.81.24,3.41,3.41,0,0,1,1.42.88,3.7,3.7,0,0,1,1,1.71,10.36,10.36,0,0,1,.31,2H177.5a5.55,5.55,0,0,0-.08-1,1.81,1.81,0,0,0-.43-.92,1.79,1.79,0,0,0-1.44-.6,1.7,1.7,0,0,0-1.47.7,3.69,3.69,0,0,0-.54,1.92c-.07.87-.1,2.07-.1,3.58s0,2.68.1,3.56a3.91,3.91,0,0,0,.54,1.95,1.7,1.7,0,0,0,1.47.7,1.73,1.73,0,0,0,1.41-.61,1.81,1.81,0,0,0,.45-.88,5.93,5.93,0,0,0,.09-1.07Z" style="fill:#fff"/><path d="M182.72,42v-3h3v3Zm.22,19.52V44.9h2.6V61.47Z" style="fill:#fff"/><path d="M198.08,53.18a36.76,36.76,0,0,1-.21,4.28,5.48,5.48,0,0,1-1,2.73,3.67,3.67,0,0,1-1.52,1.19,5.48,5.48,0,0,1-2,.35,5.35,5.35,0,0,1-2-.35,3.61,3.61,0,0,1-1.5-1.19,5.48,5.48,0,0,1-1-2.73,34.22,34.22,0,0,1-.23-4.28,34.16,34.16,0,0,1,.23-4.27,5.48,5.48,0,0,1,1-2.73,3.61,3.61,0,0,1,1.5-1.19,5.35,5.35,0,0,1,2-.35,5.48,5.48,0,0,1,2,.35,3.67,3.67,0,0,1,1.52,1.19,5.48,5.48,0,0,1,1,2.73A36.69,36.69,0,0,1,198.08,53.18Zm-2.59,0c0-1.49,0-2.67-.1-3.55a3.91,3.91,0,0,0-.54-2,1.7,1.7,0,0,0-1.47-.7,1.67,1.67,0,0,0-1.44.7,4,4,0,0,0-.56,2c-.08.88-.12,2.06-.12,3.55s0,2.68.12,3.56a4,4,0,0,0,.56,1.95,1.67,1.67,0,0,0,1.44.7,1.7,1.7,0,0,0,1.47-.7,3.91,3.91,0,0,0,.54-1.95C195.46,55.86,195.49,54.68,195.49,53.18Z" style="fill:#fff"/><path d="M207.74,61.47V49.28a2.33,2.33,0,0,0-.57-1.7,2,2,0,0,0-1.41-.57,1.85,1.85,0,0,0-1.39.57,2.33,2.33,0,0,0-.56,1.7V61.47h-2.6V44.9h2.5v1.28a2.39,2.39,0,0,1,.46-.58,4.59,4.59,0,0,1,.56-.45,3.41,3.41,0,0,1,1.8-.51,3.9,3.9,0,0,1,1.6.3,3.75,3.75,0,0,1,1.21.92,3.33,3.33,0,0,1,.75,1.31,7.32,7.32,0,0,1,.24,2.11V61.47Z" style="fill:#fff"/><path d="M215.93,53.79c0,1.33,0,2.38.12,3.17a3.15,3.15,0,0,0,.56,1.73,1.55,1.55,0,0,0,.59.51,1.84,1.84,0,0,0,.88.19,2.24,2.24,0,0,0,.8-.14,1.89,1.89,0,0,0,.67-.5,1.79,1.79,0,0,0,.43-.83,4.52,4.52,0,0,0,.11-1.09h2.6a7,7,0,0,1-.34,2.05,4.2,4.2,0,0,1-4.27,2.85,5.5,5.5,0,0,1-1.86-.29,3.59,3.59,0,0,1-1.44-1,5.13,5.13,0,0,1-1.2-2.83,31.23,31.23,0,0,1-.27-4.44,32.54,32.54,0,0,1,.26-4.44,5,5,0,0,1,1.18-2.82,3.59,3.59,0,0,1,1.44-1,5.39,5.39,0,0,1,1.82-.29,5.45,5.45,0,0,1,1.83.29,3.59,3.59,0,0,1,1.44,1,5.21,5.21,0,0,1,1.2,2.9,36.63,36.63,0,0,1,.27,5Zm4.2-1.95a23.57,23.57,0,0,0-.13-2.78,2.82,2.82,0,0,0-.51-1.41,1.79,1.79,0,0,0-.6-.5A2,2,0,0,0,218,47a1.87,1.87,0,0,0-.86.17,2.06,2.06,0,0,0-.58.5,2.82,2.82,0,0,0-.51,1.41,23.57,23.57,0,0,0-.13,2.78Z" style="fill:#fff"/><path d="M234.43,57a4.84,4.84,0,0,1-.38,2,5.16,5.16,0,0,1-1,1.49,3.84,3.84,0,0,1-1.52,1,5.71,5.71,0,0,1-3.74,0,3.8,3.8,0,0,1-1.46-1,5,5,0,0,1-1.41-3.65h2.56a2.81,2.81,0,0,0,.71,2,1.88,1.88,0,0,0,.69.43,2.38,2.38,0,0,0,.78.14,2.12,2.12,0,0,0,1.57-.61,2.26,2.26,0,0,0,.64-1.66,2.64,2.64,0,0,0-.42-1.5,3.08,3.08,0,0,0-.61-.64,4.11,4.11,0,0,0-.86-.55l-2.14-1.09a5.29,5.29,0,0,1-2.28-1.92,4.3,4.3,0,0,1-.51-2.17,4.55,4.55,0,0,1,.37-1.91,4.68,4.68,0,0,1,1-1.45,4,4,0,0,1,1.47-1,5.21,5.21,0,0,1,1.79-.3,4.39,4.39,0,0,1,3.23,1.18,4.8,4.8,0,0,1,1.35,3.65h-2.56a3.81,3.81,0,0,0-.15-1.18,2.07,2.07,0,0,0-.46-.8,1.53,1.53,0,0,0-.66-.45,2.36,2.36,0,0,0-.75-.13,1.91,1.91,0,0,0-1.44.55,2.16,2.16,0,0,0-.61,1.6,2.43,2.43,0,0,0,.29,1.21,3,3,0,0,0,1.38,1.09l2.11,1.06a5.4,5.4,0,0,1,2.34,1.88A4.78,4.78,0,0,1,234.43,57Z" style="fill:#fff"/><path d="M249.44,61.47V60.19a2.77,2.77,0,0,1-.45.58,3,3,0,0,1-.54.45,3.51,3.51,0,0,1-1.8.51,3.45,3.45,0,0,1-2.75-1.25,4.91,4.91,0,0,1-1-2.66,40.72,40.72,0,0,1-.2-4.64,41.31,41.31,0,0,1,.2-4.64,4.92,4.92,0,0,1,1-2.68,3.41,3.41,0,0,1,1.17-.92,3.81,3.81,0,0,1,1.58-.3,3.57,3.57,0,0,1,1.8.48,2.67,2.67,0,0,1,.49.42,4.85,4.85,0,0,1,.43.51V38.69H252V61.47Zm-.07-12.09a3.24,3.24,0,0,0-.16-1.12,1.86,1.86,0,0,0-.48-.77,1.82,1.82,0,0,0-1.34-.51,1.66,1.66,0,0,0-1.41.67,1.7,1.7,0,0,0-.35.67,6.74,6.74,0,0,0-.21,1.07q-.07.66-.09,1.59c0,.61,0,1.35,0,2.2,0,1.71,0,3,.11,3.8a3.11,3.11,0,0,0,.56,1.74,1.66,1.66,0,0,0,1.41.67,1.82,1.82,0,0,0,1.34-.51,2.6,2.6,0,0,0,.64-1.92Z" style="fill:#fff"/><path d="M255.39,42v-3h3v3Zm.22,19.52V44.9h2.6V61.47Z" style="fill:#fff"/><path d="M270.53,57a4.68,4.68,0,0,1-.39,2,5.13,5.13,0,0,1-1,1.49,3.91,3.91,0,0,1-1.52,1,5.74,5.74,0,0,1-3.75,0,3.76,3.76,0,0,1-1.45-1A5,5,0,0,1,261,56.8h2.56a2.81,2.81,0,0,0,.7,2,2,2,0,0,0,.69.43,2.48,2.48,0,0,0,.79.14,2.08,2.08,0,0,0,1.56-.61,2.22,2.22,0,0,0,.64-1.66,2.72,2.72,0,0,0-.41-1.5,3.36,3.36,0,0,0-.61-.64,4.2,4.2,0,0,0-.87-.55l-2.14-1.09a5.26,5.26,0,0,1-2.27-1.92,4.3,4.3,0,0,1-.51-2.17,4.55,4.55,0,0,1,.37-1.91,4.82,4.82,0,0,1,1-1.45,4.13,4.13,0,0,1,1.47-1,5.31,5.31,0,0,1,1.8-.3A4.41,4.41,0,0,1,269,45.82a4.79,4.79,0,0,1,1.34,3.65h-2.56a3.84,3.84,0,0,0-.14-1.18,2.2,2.2,0,0,0-.46-.8,1.66,1.66,0,0,0-.66-.45,2.46,2.46,0,0,0-.75-.13,1.91,1.91,0,0,0-1.44.55,2.13,2.13,0,0,0-.61,1.6,2.43,2.43,0,0,0,.29,1.21,2.94,2.94,0,0,0,1.37,1.09l2.12,1.06a5.43,5.43,0,0,1,2.33,1.88A4.71,4.71,0,0,1,270.53,57Z" style="fill:#fff"/><path d="M282.62,53.18a40.51,40.51,0,0,1-.21,4.63,5,5,0,0,1-1,2.67,3.32,3.32,0,0,1-2.76,1.25,3.4,3.4,0,0,1-1.79-.48,4.1,4.1,0,0,1-.93-.93v7.36h-2.59V44.9h2.53v1.28a1.9,1.9,0,0,1,.45-.56,4.68,4.68,0,0,1,.54-.47,3.25,3.25,0,0,1,1.79-.51,3.92,3.92,0,0,1,1.54.29,3.32,3.32,0,0,1,1.22.93,4.92,4.92,0,0,1,1,2.68A40.94,40.94,0,0,1,282.62,53.18Zm-2.62,0c0-.85,0-1.59,0-2.2s-.06-1.15-.1-1.59a6,6,0,0,0-.19-1.07,2,2,0,0,0-.35-.67,1.69,1.69,0,0,0-1.41-.67,1.84,1.84,0,0,0-1.35.51,2.1,2.1,0,0,0-.48.77,3.5,3.5,0,0,0-.16,1.12V57a2.65,2.65,0,0,0,.64,1.92,1.84,1.84,0,0,0,1.35.51,1.69,1.69,0,0,0,1.41-.67,3.49,3.49,0,0,0,.54-1.74C280,56.16,280,54.89,280,53.18Z" style="fill:#fff"/><path d="M294.62,53.18a36.76,36.76,0,0,1-.21,4.28,5.48,5.48,0,0,1-1,2.73,3.67,3.67,0,0,1-1.52,1.19,5.48,5.48,0,0,1-2,.35,5.35,5.35,0,0,1-2-.35,3.68,3.68,0,0,1-1.5-1.19,5.58,5.58,0,0,1-1-2.73,34.22,34.22,0,0,1-.23-4.28,34.16,34.16,0,0,1,.23-4.27,5.58,5.58,0,0,1,1-2.73,3.68,3.68,0,0,1,1.5-1.19,5.35,5.35,0,0,1,2-.35,5.48,5.48,0,0,1,2,.35,3.67,3.67,0,0,1,1.52,1.19,5.48,5.48,0,0,1,1,2.73A36.69,36.69,0,0,1,294.62,53.18Zm-2.59,0c0-1.49,0-2.67-.1-3.55a3.91,3.91,0,0,0-.54-2,1.7,1.7,0,0,0-1.47-.7,1.67,1.67,0,0,0-1.44.7,4,4,0,0,0-.56,2c-.08.88-.11,2.06-.11,3.55s0,2.68.11,3.56a4,4,0,0,0,.56,1.95,1.67,1.67,0,0,0,1.44.7,1.7,1.7,0,0,0,1.47-.7,3.91,3.91,0,0,0,.54-1.95C292,55.86,292,54.68,292,53.18Z" style="fill:#fff"/><path d="M304.29,61.47V49.28a2.33,2.33,0,0,0-.58-1.7A1.92,1.92,0,0,0,302.3,47a1.87,1.87,0,0,0-1.39.57,2.37,2.37,0,0,0-.56,1.7V61.47h-2.59V44.9h2.49v1.28a2.22,2.22,0,0,1,.47-.58,3.93,3.93,0,0,1,.56-.45,3.35,3.35,0,0,1,1.79-.51,3.9,3.9,0,0,1,1.6.3,3.78,3.78,0,0,1,1.22.92,3.33,3.33,0,0,1,.75,1.31,7.32,7.32,0,0,1,.24,2.11V61.47Z" style="fill:#fff"/><path d="M310.17,42v-3h3v3Zm.23,19.52V44.9H313V61.47Z" style="fill:#fff"/><path d="M325.92,53.18c0,1,0,1.86,0,2.61a16.58,16.58,0,0,1-.16,2,7.14,7.14,0,0,1-.36,1.54,3.57,3.57,0,0,1-.66,1.12A3.43,3.43,0,0,1,322,61.73a3.69,3.69,0,0,1-1-.13,3,3,0,0,1-.81-.38,2.76,2.76,0,0,1-.55-.47,3.93,3.93,0,0,1-.45-.56v1.28h-2.52V38.69h2.59v7.36a5,5,0,0,1,.43-.5,3.19,3.19,0,0,1,2.29-.91,3.87,3.87,0,0,1,1.53.29,3.24,3.24,0,0,1,1.22.93,4.59,4.59,0,0,1,1,2.65A43.56,43.56,0,0,1,325.92,53.18Zm-2.63,0c0-.85,0-1.59,0-2.2s-.05-1.15-.1-1.59a5.18,5.18,0,0,0-.19-1.07,1.7,1.7,0,0,0-.35-.67,1.66,1.66,0,0,0-1.41-.67,1.82,1.82,0,0,0-1.34.51,2.1,2.1,0,0,0-.48.77,3.24,3.24,0,0,0-.16,1.12V57a2.6,2.6,0,0,0,.64,1.92,1.82,1.82,0,0,0,1.34.51,1.66,1.66,0,0,0,1.41-.67,3.3,3.3,0,0,0,.54-1.74C323.25,56.16,323.29,54.89,323.29,53.18Z" style="fill:#fff"/><path d="M334,61.47a9.08,9.08,0,0,1-1.95-.19,3.61,3.61,0,0,1-1.64-.83A4,4,0,0,1,329.29,59a5.73,5.73,0,0,1-.4-2.27V38.69h2.59v18a2.2,2.2,0,0,0,2.47,2.5Z" style="fill:#fff"/><path d="M338.4,53.79c0,1.33,0,2.38.11,3.17a3.15,3.15,0,0,0,.56,1.73,1.72,1.72,0,0,0,.59.51,1.87,1.87,0,0,0,.88.19,2.2,2.2,0,0,0,.8-.14,1.89,1.89,0,0,0,.67-.5,1.7,1.7,0,0,0,.43-.83,4.49,4.49,0,0,0,.12-1.09h2.59a7,7,0,0,1-.34,2.05,4.2,4.2,0,0,1-4.27,2.85,5.59,5.59,0,0,1-1.86-.29,3.59,3.59,0,0,1-1.44-1,5.21,5.21,0,0,1-1.2-2.83,31.23,31.23,0,0,1-.27-4.44,32.54,32.54,0,0,1,.26-4.44,5,5,0,0,1,1.18-2.82,3.59,3.59,0,0,1,1.44-1,5.45,5.45,0,0,1,1.83-.29,5.39,5.39,0,0,1,1.82.29,3.59,3.59,0,0,1,1.44,1,5.21,5.21,0,0,1,1.2,2.9,36.63,36.63,0,0,1,.27,5Zm4.19-1.95a23.57,23.57,0,0,0-.13-2.78,2.73,2.73,0,0,0-.51-1.41,1.85,1.85,0,0,0-.59-.5,2,2,0,0,0-.88-.17,1.58,1.58,0,0,0-1.44.67,2.72,2.72,0,0,0-.52,1.41,24,24,0,0,0-.12,2.78Z" style="fill:#fff"/><path d="M356.89,57a4.84,4.84,0,0,1-.38,2,5.16,5.16,0,0,1-1,1.49,3.77,3.77,0,0,1-1.52,1,5.28,5.28,0,0,1-1.87.31,5.36,5.36,0,0,1-1.87-.32,3.87,3.87,0,0,1-1.46-1,5,5,0,0,1-1.4-3.65h2.56a2.81,2.81,0,0,0,.7,2,1.88,1.88,0,0,0,.69.43,2.47,2.47,0,0,0,.78.14,2.12,2.12,0,0,0,1.57-.61,2.22,2.22,0,0,0,.64-1.66,2.64,2.64,0,0,0-.42-1.5,3.3,3.3,0,0,0-.6-.64,4.49,4.49,0,0,0-.87-.55l-2.14-1.09A5.2,5.2,0,0,1,348,51.42a4.3,4.3,0,0,1-.52-2.17,4.71,4.71,0,0,1,.37-1.91,4.85,4.85,0,0,1,1-1.45,4.13,4.13,0,0,1,1.47-1,5.25,5.25,0,0,1,1.79-.3,4.42,4.42,0,0,1,3.24,1.18,4.83,4.83,0,0,1,1.34,3.65h-2.56a4.18,4.18,0,0,0-.14-1.18,2.09,2.09,0,0,0-.47-.8,1.56,1.56,0,0,0-.65-.45,2.48,2.48,0,0,0-.76-.13,1.94,1.94,0,0,0-1.44.55,2.16,2.16,0,0,0-.6,1.6,2.43,2.43,0,0,0,.28,1.21,3,3,0,0,0,1.38,1.09l2.11,1.06a5.4,5.4,0,0,1,2.34,1.88A4.7,4.7,0,0,1,356.89,57Z" style="fill:#fff"/><path d="M367.77,53.79c0,1.33,0,2.38.11,3.17a3.22,3.22,0,0,0,.57,1.73,1.55,1.55,0,0,0,.59.51,1.84,1.84,0,0,0,.88.19,2.24,2.24,0,0,0,.8-.14,1.89,1.89,0,0,0,.67-.5,1.79,1.79,0,0,0,.43-.83,4.52,4.52,0,0,0,.11-1.09h2.6a7.38,7.38,0,0,1-.34,2.05,4.2,4.2,0,0,1-4.27,2.85,5.5,5.5,0,0,1-1.86-.29,3.59,3.59,0,0,1-1.44-1,5.13,5.13,0,0,1-1.2-2.83,31.23,31.23,0,0,1-.27-4.44,31,31,0,0,1,.26-4.44,5,5,0,0,1,1.18-2.82,3.59,3.59,0,0,1,1.44-1,5.39,5.39,0,0,1,1.82-.29,5.45,5.45,0,0,1,1.83.29,3.59,3.59,0,0,1,1.44,1,5.21,5.21,0,0,1,1.2,2.9,36.63,36.63,0,0,1,.27,5ZM372,51.84a24,24,0,0,0-.12-2.78,2.82,2.82,0,0,0-.51-1.41,1.89,1.89,0,0,0-.6-.5,2,2,0,0,0-.88-.17,1.87,1.87,0,0,0-.86.17,1.94,1.94,0,0,0-.58.5,2.82,2.82,0,0,0-.51,1.41,23.57,23.57,0,0,0-.13,2.78Z" style="fill:#fff"/><path d="M384.12,61.47V49.28a2.33,2.33,0,0,0-.57-1.7,1.92,1.92,0,0,0-1.41-.57,1.87,1.87,0,0,0-1.39.57,2.37,2.37,0,0,0-.56,1.7V61.47H377.6V44.9h2.49v1.28a2.22,2.22,0,0,1,.47-.58,3.93,3.93,0,0,1,.56-.45,3.35,3.35,0,0,1,1.79-.51,3.9,3.9,0,0,1,1.6.3,3.78,3.78,0,0,1,1.22.92,3.33,3.33,0,0,1,.75,1.31,7.32,7.32,0,0,1,.24,2.11V61.47Z" style="fill:#fff"/><path d="M391.1,51V47.87h3.17V51Zm0,10.43V58.3h3.17v3.17Z" style="fill:#fff"/><path d="M415.36,61.47h-2.63l-2.24-12.13-2.17,12.13h-2.63L402.27,44.9h2.94l1.89,12.48,2.21-12.48h2.33L414,57.38,415.9,44.9h2.94Z" style="fill:#fff"/><path d="M432.19,61.47h-2.63l-2.24-12.13-2.17,12.13h-2.63L419.1,44.9H422l1.89,12.48,2.21-12.48h2.34l2.33,12.48,1.92-12.48h2.95Z" style="fill:#fff"/><path d="M449,61.47H446.4l-2.24-12.13L442,61.47h-2.62L435.93,44.9h2.95l1.88,12.48L443,44.9h2.34l2.33,12.48,1.92-12.48h2.95Z" style="fill:#fff"/><path d="M453.72,61.47V58.3h3.17v3.17Z" style="fill:#fff"/><path d="M466.59,61.47V60a3.33,3.33,0,0,1-.45.64,3.74,3.74,0,0,1-.51.48,3.34,3.34,0,0,1-.83.45,3.59,3.59,0,0,1-1.12.16,3.74,3.74,0,0,1-1.6-.31,3.65,3.65,0,0,1-1.25-.94,3.91,3.91,0,0,1-.77-1.47,7.71,7.71,0,0,1-.29-2.24,6.11,6.11,0,0,1,.37-2.13A4,4,0,0,1,461.25,53a4.61,4.61,0,0,1,1.42-.83,6.24,6.24,0,0,1,2.09-.29h1.7V49.28q0-2.37-1.95-2.37a1.6,1.6,0,0,0-.74.15,2,2,0,0,0-.54.4,1.71,1.71,0,0,0-.48.8,3.91,3.91,0,0,0-.13,1.12H460a6.63,6.63,0,0,1,.27-1.88A4,4,0,0,1,462.7,45a4.78,4.78,0,0,1,1.81-.34,4.35,4.35,0,0,1,3.23,1.15,4.64,4.64,0,0,1,1,1.51,5.57,5.57,0,0,1,.35,2.14v12Zm-.13-7.68H465a3.51,3.51,0,0,0-1,.13,2.24,2.24,0,0,0-.82.48,2.48,2.48,0,0,0-.56,1,4,4,0,0,0-.2,1.29,3.63,3.63,0,0,0,.49,2,1.71,1.71,0,0,0,1.52.74,1.82,1.82,0,0,0,1.5-.72,2.89,2.89,0,0,0,.58-1.88Z" style="fill:#fff"/><path d="M478.78,61.47V60.19a2.23,2.23,0,0,1-.45.58,3,3,0,0,1-.54.45,3.48,3.48,0,0,1-1.79.51,3.43,3.43,0,0,1-2.75-1.25,4.84,4.84,0,0,1-1-2.66,40.34,40.34,0,0,1-.21-4.64,40.94,40.94,0,0,1,.21-4.64,4.84,4.84,0,0,1,1-2.68,3.47,3.47,0,0,1,1.16-.92,3.82,3.82,0,0,1,1.59-.3,3.53,3.53,0,0,1,1.79.48,3.1,3.1,0,0,1,.5.42,6.47,6.47,0,0,1,.43.51V38.69h2.59V61.47Zm-.06-12.09a3.5,3.5,0,0,0-.16-1.12,2.1,2.1,0,0,0-.48-.77,1.82,1.82,0,0,0-1.35-.51,1.66,1.66,0,0,0-1.4.67,1.85,1.85,0,0,0-.36.67,8.1,8.1,0,0,0-.21,1.07q-.08.66-.09,1.59c0,.61,0,1.35,0,2.2,0,1.71,0,3,.11,3.8a3.11,3.11,0,0,0,.57,1.74,1.66,1.66,0,0,0,1.4.67,1.82,1.82,0,0,0,1.35-.51,2.65,2.65,0,0,0,.64-1.92Z" style="fill:#fff"/><path d="M484.73,42v-3h3v3ZM485,61.47V44.9h2.59V61.47Z" style="fill:#fff"/><path d="M497.4,61.47V60.19a2.39,2.39,0,0,1-.44.58,3.41,3.41,0,0,1-.55.45,3.55,3.55,0,0,1-4.54-.74,4.84,4.84,0,0,1-1-2.66,40.34,40.34,0,0,1-.21-4.64,40.94,40.94,0,0,1,.21-4.64,4.84,4.84,0,0,1,1-2.68,3.41,3.41,0,0,1,1.17-.92,3.74,3.74,0,0,1,1.58-.3,3.51,3.51,0,0,1,1.79.48,2.72,2.72,0,0,1,.5.42,6.47,6.47,0,0,1,.43.51V38.69h2.59V61.47Zm-.06-12.09a3.24,3.24,0,0,0-.16-1.12,2.1,2.1,0,0,0-.48-.77,1.82,1.82,0,0,0-1.34-.51,1.66,1.66,0,0,0-1.41.67,1.7,1.7,0,0,0-.35.67,5.78,5.78,0,0,0-.21,1.07,13.74,13.74,0,0,0-.1,1.59c0,.61,0,1.35,0,2.2,0,1.71,0,3,.11,3.8a3,3,0,0,0,.56,1.74,1.66,1.66,0,0,0,1.41.67,1.82,1.82,0,0,0,1.34-.51,2.6,2.6,0,0,0,.64-1.92Z" style="fill:#fff"/><path d="M509.6,61.47V60a3.33,3.33,0,0,1-.45.64,3.74,3.74,0,0,1-.51.48,3.4,3.4,0,0,1-.84.45,3.54,3.54,0,0,1-1.12.16,3.51,3.51,0,0,1-2.84-1.25,3.91,3.91,0,0,1-.77-1.47,7.71,7.71,0,0,1-.29-2.24,5.88,5.88,0,0,1,.37-2.13,3.93,3.93,0,0,1,1.1-1.62,4.66,4.66,0,0,1,1.43-.83,6.24,6.24,0,0,1,2.09-.29h1.7V49.28q0-2.37-2-2.37a1.6,1.6,0,0,0-.74.15,2,2,0,0,0-.54.4,1.71,1.71,0,0,0-.48.8,3.91,3.91,0,0,0-.13,1.12H503a6.63,6.63,0,0,1,.27-1.88,3.9,3.9,0,0,1,1-1.64,3.81,3.81,0,0,1,1.39-.88,4.74,4.74,0,0,1,1.81-.34,4.37,4.37,0,0,1,3.23,1.15,5,5,0,0,1,1,1.51,5.77,5.77,0,0,1,.35,2.14v12Zm-.13-7.68H508a3.47,3.47,0,0,0-1,.13,2.24,2.24,0,0,0-.82.48,2.48,2.48,0,0,0-.56,1,4,4,0,0,0-.21,1.29,3.63,3.63,0,0,0,.5,2,1.71,1.71,0,0,0,1.52.74,1.82,1.82,0,0,0,1.5-.72,2.89,2.89,0,0,0,.58-1.88Z" style="fill:#fff"/><path d="M524.25,57a4.84,4.84,0,0,1-.38,2,5.16,5.16,0,0,1-1,1.49,3.77,3.77,0,0,1-1.52,1,5.71,5.71,0,0,1-3.74,0,3.8,3.8,0,0,1-1.46-1,5,5,0,0,1-1.4-3.65h2.56a2.81,2.81,0,0,0,.7,2,1.88,1.88,0,0,0,.69.43,2.43,2.43,0,0,0,.78.14,2.12,2.12,0,0,0,1.57-.61,2.22,2.22,0,0,0,.64-1.66,2.64,2.64,0,0,0-.42-1.5,3.3,3.3,0,0,0-.6-.64,4.49,4.49,0,0,0-.87-.55l-2.14-1.09a5.2,5.2,0,0,1-2.27-1.92,4.2,4.2,0,0,1-.52-2.17,4.71,4.71,0,0,1,.37-1.91,4.85,4.85,0,0,1,1-1.45,4.13,4.13,0,0,1,1.47-1,5.25,5.25,0,0,1,1.79-.3,4.42,4.42,0,0,1,3.24,1.18,4.83,4.83,0,0,1,1.34,3.65H521.5a4.18,4.18,0,0,0-.14-1.18,2.23,2.23,0,0,0-.47-.8,1.56,1.56,0,0,0-.65-.45,2.48,2.48,0,0,0-.76-.13,1.94,1.94,0,0,0-1.44.55,2.16,2.16,0,0,0-.6,1.6,2.43,2.43,0,0,0,.28,1.21,3,3,0,0,0,1.38,1.09l2.11,1.06a5.4,5.4,0,0,1,2.34,1.88A4.7,4.7,0,0,1,524.25,57Z" style="fill:#fff"/><path d="M527.13,61.47V58.3h3.17v3.17Z" style="fill:#fff"/><path d="M542.71,56.83a8.45,8.45,0,0,1-.36,2.13,4.24,4.24,0,0,1-1,1.62,3.62,3.62,0,0,1-1.42.88,5.84,5.84,0,0,1-1.84.27,5.37,5.37,0,0,1-1.95-.35,3.6,3.6,0,0,1-1.54-1.19,5.62,5.62,0,0,1-1-2.75,34.32,34.32,0,0,1-.22-4.26,34.38,34.38,0,0,1,.22-4.27,5.58,5.58,0,0,1,1-2.73A3.6,3.6,0,0,1,536.19,45a5.37,5.37,0,0,1,1.95-.35,6.25,6.25,0,0,1,1.81.24,3.41,3.41,0,0,1,1.42.88,3.7,3.7,0,0,1,1,1.71,10.36,10.36,0,0,1,.31,2h-2.59a5.55,5.55,0,0,0-.08-1,1.81,1.81,0,0,0-.43-.92,1.79,1.79,0,0,0-1.44-.6,1.7,1.7,0,0,0-1.47.7,3.69,3.69,0,0,0-.54,1.92c-.07.87-.1,2.07-.1,3.58s0,2.68.1,3.56a3.91,3.91,0,0,0,.54,1.95,1.7,1.7,0,0,0,1.47.7,1.73,1.73,0,0,0,1.41-.61,1.81,1.81,0,0,0,.45-.88,5.93,5.93,0,0,0,.09-1.07Z" style="fill:#fff"/><path d="M550.49,61.47a9.22,9.22,0,0,1-2-.19,3.57,3.57,0,0,1-1.63-.83A3.88,3.88,0,0,1,545.83,59a5.74,5.74,0,0,1-.39-2.27V38.69H548v18a2.19,2.19,0,0,0,2.46,2.5Z" style="fill:#fff"/><path d="M553.69,63.84h-2.53l5.92-27.52h2.53Z" style="fill:#fff"/><path d="M567.42,61.47a11.84,11.84,0,0,1-2.06-.17,3.77,3.77,0,0,1-1.75-.85,4.53,4.53,0,0,1-1.44-3.71V46.91h-1.89v-2h1.89V40.35h2.59V44.9h2.56v2h-2.56v9.73a2.39,2.39,0,0,0,.68,1.92,3,3,0,0,0,2,.58Z" style="fill:#fff"/><path d="M572,53.79c0,1.33,0,2.38.12,3.17a3.15,3.15,0,0,0,.56,1.73,1.55,1.55,0,0,0,.59.51,1.84,1.84,0,0,0,.88.19,2.24,2.24,0,0,0,.8-.14,1.89,1.89,0,0,0,.67-.5,1.79,1.79,0,0,0,.43-.83,4.52,4.52,0,0,0,.11-1.09h2.6a7.38,7.38,0,0,1-.34,2.05,4.2,4.2,0,0,1-4.27,2.85,5.5,5.5,0,0,1-1.86-.29,3.59,3.59,0,0,1-1.44-1,5.13,5.13,0,0,1-1.2-2.83,31.23,31.23,0,0,1-.27-4.44,31,31,0,0,1,.26-4.44,5,5,0,0,1,1.18-2.82,3.59,3.59,0,0,1,1.44-1,5.39,5.39,0,0,1,1.82-.29,5.45,5.45,0,0,1,1.83.29,3.59,3.59,0,0,1,1.44,1,5.21,5.21,0,0,1,1.2,2.9,36.63,36.63,0,0,1,.27,5Zm4.2-1.95a23.57,23.57,0,0,0-.13-2.78,2.82,2.82,0,0,0-.51-1.41,1.89,1.89,0,0,0-.6-.5A2,2,0,0,0,574,47a1.87,1.87,0,0,0-.86.17,1.94,1.94,0,0,0-.58.5,2.82,2.82,0,0,0-.51,1.41,23.57,23.57,0,0,0-.13,2.78Z" style="fill:#fff"/><path d="M587.39,47.14a2.81,2.81,0,0,0-3,3V61.47h-2.59V44.9h2.49v1.76a2.48,2.48,0,0,1,.52-.66,5.13,5.13,0,0,1,.64-.53,4.61,4.61,0,0,1,2.72-.83v2.5Z" style="fill:#fff"/><path d="M603.51,61.47V49.28a2.37,2.37,0,0,0-.55-1.7,1.89,1.89,0,0,0-1.4-.57,1.87,1.87,0,0,0-1.39.57,2.37,2.37,0,0,0-.56,1.7V61.47H597V49.28a2.29,2.29,0,0,0-.58-1.7,2,2,0,0,0-2.8,0,2.37,2.37,0,0,0-.56,1.7V61.47h-2.59V44.9H593v1.28a2.17,2.17,0,0,1,.46-.58,3.93,3.93,0,0,1,.56-.45,3.37,3.37,0,0,1,1.79-.51,3.61,3.61,0,0,1,1.81.48A3.9,3.9,0,0,1,599,46.37a3.82,3.82,0,0,1,.61-.67,4.8,4.8,0,0,1,.7-.55,2.74,2.74,0,0,1,.92-.38,3.87,3.87,0,0,1,1-.13,4.35,4.35,0,0,1,1.76.3,3.78,3.78,0,0,1,1.22.92,3.18,3.18,0,0,1,.73,1.31,7.75,7.75,0,0,1,.23,2.11V61.47Z" style="fill:#fff"/><path d="M609.43,42v-3h3v3Zm.23,19.52V44.9h2.59V61.47Z" style="fill:#fff"/><path d="M622.43,61.47V49.28a2.29,2.29,0,0,0-.58-1.7,1.92,1.92,0,0,0-1.41-.57,1.87,1.87,0,0,0-1.39.57,2.37,2.37,0,0,0-.56,1.7V61.47H615.9V44.9h2.5v1.28a2.17,2.17,0,0,1,.46-.58,3.93,3.93,0,0,1,.56-.45,3.35,3.35,0,0,1,1.79-.51,3.9,3.9,0,0,1,1.6.3,3.78,3.78,0,0,1,1.22.92,3.33,3.33,0,0,1,.75,1.31,7.32,7.32,0,0,1,.24,2.11V61.47Z" style="fill:#fff"/><path d="M637.43,53.18a37,37,0,0,1-.2,4.28,5.48,5.48,0,0,1-1,2.73,3.61,3.61,0,0,1-1.52,1.19,5.44,5.44,0,0,1-2,.35,5.26,5.26,0,0,1-2-.35,3.64,3.64,0,0,1-1.51-1.19,5.58,5.58,0,0,1-1-2.73,34.44,34.44,0,0,1-.22-4.28,34.38,34.38,0,0,1,.22-4.27,5.58,5.58,0,0,1,1-2.73A3.64,3.64,0,0,1,630.75,45a5.26,5.26,0,0,1,2-.35,5.44,5.44,0,0,1,2,.35,3.61,3.61,0,0,1,1.52,1.19,5.48,5.48,0,0,1,1,2.73A37,37,0,0,1,637.43,53.18Zm-2.59,0c0-1.49,0-2.67-.09-3.55a4,4,0,0,0-.55-2,1.7,1.7,0,0,0-1.47-.7,1.67,1.67,0,0,0-1.44.7,4.11,4.11,0,0,0-.56,2c-.07.88-.11,2.06-.11,3.55s0,2.68.11,3.56a4.11,4.11,0,0,0,.56,1.95,1.67,1.67,0,0,0,1.44.7,1.7,1.7,0,0,0,1.47-.7,4,4,0,0,0,.55-1.95C634.81,55.86,634.84,54.68,634.84,53.18Z" style="fill:#fff"/><path d="M649.24,57a4.68,4.68,0,0,1-.38,2,5.16,5.16,0,0,1-1,1.49,3.81,3.81,0,0,1-1.51,1,5.74,5.74,0,0,1-3.75,0,3.76,3.76,0,0,1-1.45-1,5,5,0,0,1-1.41-3.65h2.56a2.81,2.81,0,0,0,.7,2,1.88,1.88,0,0,0,.69.43,2.47,2.47,0,0,0,.78.14,2.1,2.1,0,0,0,1.57-.61,2.22,2.22,0,0,0,.64-1.66,2.72,2.72,0,0,0-.41-1.5,3.7,3.7,0,0,0-.61-.64,4.49,4.49,0,0,0-.87-.55l-2.14-1.09a5.2,5.2,0,0,1-2.27-1.92,4.3,4.3,0,0,1-.52-2.17,4.71,4.71,0,0,1,.37-1.91,4.85,4.85,0,0,1,1-1.45,4.13,4.13,0,0,1,1.47-1,5.25,5.25,0,0,1,1.79-.3,4.42,4.42,0,0,1,3.24,1.18,4.83,4.83,0,0,1,1.34,3.65h-2.56a4.18,4.18,0,0,0-.14-1.18,2.09,2.09,0,0,0-.47-.8,1.56,1.56,0,0,0-.65-.45,2.48,2.48,0,0,0-.76-.13,1.91,1.91,0,0,0-1.43.55,2.13,2.13,0,0,0-.61,1.6,2.43,2.43,0,0,0,.28,1.21,3,3,0,0,0,1.38,1.09l2.11,1.06a5.4,5.4,0,0,1,2.34,1.88A4.7,4.7,0,0,1,649.24,57Z" style="fill:#fff"/><path d="M656.57,64.13a4.87,4.87,0,0,1-.77,1.81A3.85,3.85,0,0,1,654.59,67a5.29,5.29,0,0,1-1.6.53,12.93,12.93,0,0,1-1.92.14v-2.3A4.16,4.16,0,0,0,653,65a2.26,2.26,0,0,0,1-1.52l.51-2-4-16.54h2.85l2.53,12.44,2.49-12.44h2.85Z" style="fill:#fff"/><path d="M672.15,56.83a8.45,8.45,0,0,1-.36,2.13,4.24,4.24,0,0,1-.95,1.62,3.62,3.62,0,0,1-1.42.88,5.88,5.88,0,0,1-1.84.27,5.33,5.33,0,0,1-2-.35,3.6,3.6,0,0,1-1.54-1.19,5.62,5.62,0,0,1-1-2.75,34.1,34.1,0,0,1-.23-4.26,34.16,34.16,0,0,1,.23-4.27,5.58,5.58,0,0,1,1-2.73A3.6,3.6,0,0,1,665.63,45a5.33,5.33,0,0,1,2-.35,6.25,6.25,0,0,1,1.81.24,3.41,3.41,0,0,1,1.42.88,3.6,3.6,0,0,1,1,1.71,10.36,10.36,0,0,1,.32,2h-2.59a5.55,5.55,0,0,0-.08-1,1.9,1.9,0,0,0-.43-.92,1.79,1.79,0,0,0-1.44-.6,1.7,1.7,0,0,0-1.47.7,3.78,3.78,0,0,0-.55,1.92c-.06.87-.09,2.07-.09,3.58s0,2.68.09,3.56a4,4,0,0,0,.55,1.95,1.7,1.7,0,0,0,1.47.7,1.73,1.73,0,0,0,1.41-.61,1.81,1.81,0,0,0,.45-.88,5.93,5.93,0,0,0,.09-1.07Z" style="fill:#fff"/><path d="M683.9,53.18a36.76,36.76,0,0,1-.21,4.28,5.38,5.38,0,0,1-1,2.73,3.55,3.55,0,0,1-1.52,1.19,5.41,5.41,0,0,1-2,.35,5.34,5.34,0,0,1-2-.35,3.55,3.55,0,0,1-1.5-1.19,5.48,5.48,0,0,1-1-2.73,34.44,34.44,0,0,1-.22-4.28,34.38,34.38,0,0,1,.22-4.27,5.48,5.48,0,0,1,1-2.73,3.55,3.55,0,0,1,1.5-1.19,5.34,5.34,0,0,1,2-.35,5.41,5.41,0,0,1,2,.35,3.55,3.55,0,0,1,1.52,1.19,5.38,5.38,0,0,1,1,2.73A36.69,36.69,0,0,1,683.9,53.18Zm-2.59,0c0-1.49,0-2.67-.1-3.55a4,4,0,0,0-.54-2,1.73,1.73,0,0,0-1.48-.7,1.68,1.68,0,0,0-1.44.7,4.23,4.23,0,0,0-.56,2c-.07.88-.11,2.06-.11,3.55s0,2.68.11,3.56a4.23,4.23,0,0,0,.56,1.95,1.68,1.68,0,0,0,1.44.7,1.73,1.73,0,0,0,1.48-.7,4,4,0,0,0,.54-1.95C681.27,55.86,681.31,54.68,681.31,53.18Z" style="fill:#fff"/><path d="M693.56,61.47V49.28a2.33,2.33,0,0,0-.57-1.7,2,2,0,0,0-1.41-.57,1.89,1.89,0,0,0-1.4.57,2.37,2.37,0,0,0-.56,1.7V61.47H687V44.9h2.5v1.28a2.39,2.39,0,0,1,.46-.58,4.59,4.59,0,0,1,.56-.45,3.4,3.4,0,0,1,1.79-.51,4,4,0,0,1,1.61.3,3.75,3.75,0,0,1,1.21.92,3.33,3.33,0,0,1,.75,1.31,7.32,7.32,0,0,1,.24,2.11V61.47Z" style="fill:#fff"/><path d="M705.88,61.47V60.19a2.47,2.47,0,0,1-.45.58,3,3,0,0,1-.54.45,3.51,3.51,0,0,1-1.79.51,3.47,3.47,0,0,1-2.76-1.25,4.91,4.91,0,0,1-1-2.66,40.34,40.34,0,0,1-.21-4.64,40.94,40.94,0,0,1,.21-4.64,4.92,4.92,0,0,1,1-2.68,3.61,3.61,0,0,1,1.17-.92,3.82,3.82,0,0,1,1.59-.3,3.53,3.53,0,0,1,1.79.48,2.67,2.67,0,0,1,.49.42,6.66,6.66,0,0,1,.44.51V38.69h2.59V61.47Zm-.06-12.09a3.5,3.5,0,0,0-.16-1.12,2.1,2.1,0,0,0-.48-.77,1.84,1.84,0,0,0-1.35-.51,1.69,1.69,0,0,0-1.41.67,2,2,0,0,0-.35.67,8.1,8.1,0,0,0-.21,1.07q-.08.66-.09,1.59c0,.61,0,1.35,0,2.2,0,1.71,0,3,.11,3.8a3.2,3.2,0,0,0,.56,1.74,1.69,1.69,0,0,0,1.41.67,1.84,1.84,0,0,0,1.35-.51,2.65,2.65,0,0,0,.64-1.92Z" style="fill:#fff"/><path d="M711.83,42v-3h3v3Zm.23,19.52V44.9h2.59V61.47Z" style="fill:#fff"/><path d="M727,56.83a8.45,8.45,0,0,1-.36,2.13,4.24,4.24,0,0,1-.95,1.62,3.62,3.62,0,0,1-1.42.88,5.88,5.88,0,0,1-1.84.27,5.42,5.42,0,0,1-2-.35A3.63,3.63,0,0,1,719,60.19a5.62,5.62,0,0,1-1-2.75,34.1,34.1,0,0,1-.23-4.26,34.16,34.16,0,0,1,.23-4.27,5.58,5.58,0,0,1,1-2.73A3.63,3.63,0,0,1,720.5,45a5.42,5.42,0,0,1,2-.35,6.13,6.13,0,0,1,1.8.24,3.38,3.38,0,0,1,1.43.88,3.6,3.6,0,0,1,1,1.71,10.36,10.36,0,0,1,.32,2h-2.59a6.63,6.63,0,0,0-.08-1,1.9,1.9,0,0,0-.43-.92,1.79,1.79,0,0,0-1.44-.6,1.7,1.7,0,0,0-1.47.7,3.78,3.78,0,0,0-.55,1.92c-.06.87-.09,2.07-.09,3.58s0,2.68.09,3.56a4,4,0,0,0,.55,1.95,1.7,1.7,0,0,0,1.47.7,1.74,1.74,0,0,0,1.41-.61,1.71,1.71,0,0,0,.44-.88,5.12,5.12,0,0,0,.1-1.07Z" style="fill:#fff"/><path d="M729.66,42v-3h3v3Zm.22,19.52V44.9h2.59V61.47Z" style="fill:#fff"/><path d="M745,53.18a36.76,36.76,0,0,1-.21,4.28,5.48,5.48,0,0,1-1,2.73,3.55,3.55,0,0,1-1.52,1.19,5.41,5.41,0,0,1-2,.35,5.34,5.34,0,0,1-2-.35,3.55,3.55,0,0,1-1.5-1.19,5.48,5.48,0,0,1-1-2.73,34.44,34.44,0,0,1-.22-4.28,34.38,34.38,0,0,1,.22-4.27,5.48,5.48,0,0,1,1-2.73,3.55,3.55,0,0,1,1.5-1.19,5.34,5.34,0,0,1,2-.35,5.41,5.41,0,0,1,2,.35,3.55,3.55,0,0,1,1.52,1.19,5.48,5.48,0,0,1,1,2.73A36.69,36.69,0,0,1,745,53.18Zm-2.6,0c0-1.49,0-2.67-.09-3.55a4.13,4.13,0,0,0-.54-2,1.73,1.73,0,0,0-1.48-.7,1.67,1.67,0,0,0-1.44.7,4.11,4.11,0,0,0-.56,2c-.07.88-.11,2.06-.11,3.55s0,2.68.11,3.56a4.11,4.11,0,0,0,.56,1.95,1.67,1.67,0,0,0,1.44.7,1.73,1.73,0,0,0,1.48-.7,4.13,4.13,0,0,0,.54-1.95C742.39,55.86,742.42,54.68,742.42,53.18Z" style="fill:#fff"/><path d="M754.68,61.47V49.28a2.29,2.29,0,0,0-.58-1.7,2,2,0,0,0-2.8,0,2.37,2.37,0,0,0-.56,1.7V61.47h-2.59V44.9h2.5v1.28a2.17,2.17,0,0,1,.46-.58,3.93,3.93,0,0,1,.56-.45,3.37,3.37,0,0,1,1.79-.51,3.87,3.87,0,0,1,1.6.3,3.68,3.68,0,0,1,1.22.92,3.33,3.33,0,0,1,.75,1.31,7.32,7.32,0,0,1,.24,2.11V61.47Z" style="fill:#fff"/><path d="M762.87,53.79c0,1.33,0,2.38.11,3.17a3.32,3.32,0,0,0,.56,1.73,1.67,1.67,0,0,0,.6.51,1.82,1.82,0,0,0,.88.19,2.28,2.28,0,0,0,.8-.14,2,2,0,0,0,.67-.5,1.89,1.89,0,0,0,.43-.83,5.08,5.08,0,0,0,.11-1.09h2.59a7,7,0,0,1-.33,2.05,4.44,4.44,0,0,1-1,1.63A4.35,4.35,0,0,1,765,61.73a5.5,5.5,0,0,1-1.86-.29,3.59,3.59,0,0,1-1.44-1,5.13,5.13,0,0,1-1.2-2.83,31.23,31.23,0,0,1-.27-4.44,32.72,32.72,0,0,1,.25-4.44,5,5,0,0,1,1.19-2.82,3.46,3.46,0,0,1,1.44-1,5.39,5.39,0,0,1,1.82-.29,5.49,5.49,0,0,1,1.83.29,3.59,3.59,0,0,1,1.44,1,5.35,5.35,0,0,1,1.2,2.9,36.63,36.63,0,0,1,.27,5Zm4.19-1.95a24,24,0,0,0-.12-2.78,2.72,2.72,0,0,0-.52-1.41,1.75,1.75,0,0,0-.59-.5A2,2,0,0,0,765,47a1.87,1.87,0,0,0-.86.17,1.82,1.82,0,0,0-.58.5,2.73,2.73,0,0,0-.51,1.41,21.56,21.56,0,0,0-.13,2.78Z" style="fill:#fff"/><path d="M781.37,57a4.68,4.68,0,0,1-.39,2,4.94,4.94,0,0,1-1,1.49,3.91,3.91,0,0,1-1.52,1,5.36,5.36,0,0,1-1.87.31,5.28,5.28,0,0,1-1.87-.32,3.72,3.72,0,0,1-1.46-1,5,5,0,0,1-1.41-3.65h2.56a2.85,2.85,0,0,0,.7,2,2.06,2.06,0,0,0,.69.43,2.48,2.48,0,0,0,.79.14,2.08,2.08,0,0,0,1.56-.61,2.23,2.23,0,0,0,.65-1.66,2.64,2.64,0,0,0-.42-1.5,3.08,3.08,0,0,0-.61-.64,4.11,4.11,0,0,0-.86-.55l-2.15-1.09a5.32,5.32,0,0,1-2.27-1.92,4.3,4.3,0,0,1-.51-2.17,4.55,4.55,0,0,1,.37-1.91,4.82,4.82,0,0,1,1-1.45,4.09,4.09,0,0,1,1.48-1,5.21,5.21,0,0,1,1.79-.3,4.41,4.41,0,0,1,3.23,1.18,4.79,4.79,0,0,1,1.34,3.65h-2.55a3.81,3.81,0,0,0-.15-1.18,2.07,2.07,0,0,0-.46-.8,1.53,1.53,0,0,0-.66-.45,2.36,2.36,0,0,0-.75-.13,1.91,1.91,0,0,0-1.44.55,2.13,2.13,0,0,0-.61,1.6,2.43,2.43,0,0,0,.29,1.21,2.94,2.94,0,0,0,1.37,1.09l2.12,1.06a5.37,5.37,0,0,1,2.33,1.88A4.71,4.71,0,0,1,781.37,57Z" style="fill:#fff"/><path d="M784.25,61.47V58.3h3.17v3.17Z" style="fill:#fff"/><path d="M797.62,61.47V49.28a2.37,2.37,0,0,0-.57-1.73,2,2,0,0,0-1.41-.57,1.85,1.85,0,0,0-1.39.57,2.37,2.37,0,0,0-.56,1.73V61.47H791.1V38.69h2.59v7.39a2.62,2.62,0,0,1,.41-.51,2.82,2.82,0,0,1,.52-.42,3.35,3.35,0,0,1,1.79-.51,3.9,3.9,0,0,1,1.6.3,3.64,3.64,0,0,1,1.21.92,3.35,3.35,0,0,1,.76,1.31,7.32,7.32,0,0,1,.24,2.11V61.47Z" style="fill:#fff"/><path d="M809.59,61.47a11.92,11.92,0,0,1-2.06-.17,3.81,3.81,0,0,1-1.75-.85,4.53,4.53,0,0,1-1.44-3.71V46.91h-1.88v-2h1.88V40.35h2.6V44.9h2.56v2h-2.56v9.73a2.39,2.39,0,0,0,.67,1.92,3,3,0,0,0,2,.58Z" style="fill:#fff"/><path d="M825.08,61.47V49.28a2.37,2.37,0,0,0-.56-1.7,2,2,0,0,0-2.79,0,2.37,2.37,0,0,0-.56,1.7V61.47h-2.59V49.28a2.33,2.33,0,0,0-.57-1.7A2,2,0,0,0,816.6,47a1.85,1.85,0,0,0-1.39.57,2.33,2.33,0,0,0-.56,1.7V61.47h-2.6V44.9h2.5v1.28a2.39,2.39,0,0,1,.46-.58,4.59,4.59,0,0,1,.56-.45,3.41,3.41,0,0,1,1.8-.51,3.57,3.57,0,0,1,1.8.48,3.9,3.9,0,0,1,1.36,1.25,4.8,4.8,0,0,1,.61-.67,4.86,4.86,0,0,1,.71-.55,2.68,2.68,0,0,1,.91-.38,3.93,3.93,0,0,1,1-.13,4.32,4.32,0,0,1,1.76.3,3.68,3.68,0,0,1,1.22.92,3.2,3.2,0,0,1,.74,1.31,7.81,7.81,0,0,1,.22,2.11V61.47Z" style="fill:#fff"/><path d="M836.15,61.47a9.22,9.22,0,0,1-1.95-.19,3.57,3.57,0,0,1-1.63-.83A3.88,3.88,0,0,1,831.49,59a5.73,5.73,0,0,1-.4-2.27V38.69h2.6v18a2.19,2.19,0,0,0,2.46,2.5Z" style="fill:#fff"/></g></g></svg>