<svg xmlns="http://www.w3.org/2000/svg" viewBox="0 0 543.98 118.24"><title>logos-adidas</title><g id="Capa_2" data-name="Capa 2"><g id="Capa_1-2" data-name="Capa 1"><path d="M288.84,55.09a20.43,20.43,0,0,1-3.24,4.68H189.22a31.09,31.09,0,0,1-3.12-4.68Zm-7.2,9.61H193.18A25.37,25.37,0,0,0,197.74,69h79a15.68,15.68,0,0,0,4.92-4.31m-10.92,8.88H246.47a53.46,53.46,0,0,0-.72,10.08c7.08-.49,16.45-3.72,25-10.08m27.12-49.93c-11,.72-26.88,8.17-37.2,20.28a42.08,42.08,0,0,0-4.93,6.6h35.54c4.79-9.6,7.31-19.08,6.59-26.88M229,83.66a61.75,61.75,0,0,0-.37-10.08H204.11c8.64,6.36,18,9.59,24.84,10.08m8.51.72A47.86,47.86,0,0,0,245,73.58H229.79a45.25,45.25,0,0,0,7.67,10.8M219.34,50.53a50.11,50.11,0,0,0-4.91-6.6c-10.32-12.11-26.29-19.56-37.21-20.28-.72,7.8,1.68,17.28,6.47,26.88Zm33.49,0c.25-2.76.49-5.4.49-8.52,0-16.8-7.57-34.21-15.86-42-8.4,7.8-15.83,25.21-15.83,42a49.67,49.67,0,0,0,.47,8.52Zm35.79,67.71c5,0,9.25-2,9.25-7.1,0-2.87-2-4.79-5.28-5.63s-7.69-.72-7.69-2.88c.24-1.44,1.56-1.82,3.6-1.82,3.13,0,3.25,1.7,3.37,2.76H297c-.35-3.94-3.59-6.71-8.76-6.71-5.4,0-8.52,2.89-8.52,6.61a5.62,5.62,0,0,0,2.88,5A22.39,22.39,0,0,0,287.9,110c2.28.24,4.33.47,4.45,2,0,1.08-1.09,2.4-3.5,2.4-3.46,0-4.19-1.92-4.19-3.25h-5.4c.13,4.21,3.6,7.1,9.36,7.1m-28.23-10.7a6.09,6.09,0,0,0,6,5.89,5.95,5.95,0,0,0,0-11.89,6.11,6.11,0,0,0-6,6m5.76,10.7a10.69,10.69,0,1,1,0-21.38,10.07,10.07,0,0,1,6,1.82V97.11h5.15v20.63h-5.15v-1.31a11.13,11.13,0,0,1-6,1.81m-29.4-10.7a5.95,5.95,0,1,0,5.88-6,6.05,6.05,0,0,0-5.88,6M248.64,90h5v27.72h-5v-1.31a11.51,11.51,0,0,1-6.13,1.81,10.69,10.69,0,1,1,6.13-19.56Zm-24,0h5v5.17h-5Zm5,27.72h-5V97.11h5Zm-24.73-10.2a6,6,0,1,0,6.13-6,6.11,6.11,0,0,0-6.13,6m5.88,10.7a10.69,10.69,0,1,1,0-21.38A10.66,10.66,0,0,1,217,98.68V90h5.15v27.72H217v-1.31a11.81,11.81,0,0,1-6.13,1.81m-29.52-10.7a6.05,6.05,0,0,0,5.88,5.89,5.95,5.95,0,1,0-5.88-5.89m5.76,10.7a10.69,10.69,0,0,1,0-21.38,11.06,11.06,0,0,1,6.25,1.82V97.11h5v20.63h-5v-1.31a11.93,11.93,0,0,1-6.25,1.81"/><path d="M36.5,113.12a6.23,6.23,0,1,1,6.26-6.19,6.32,6.32,0,0,1-6.26,6.19m6.26-15.48a11,11,0,0,0-6.4-1.94,11.27,11.27,0,1,0,0,22.53,11.5,11.5,0,0,0,6.4-1.94v1.44h5.4V88.5h-5.4ZM54.94,51.78l-19,10.87L50.83,88.5v5.4h5.4V88.5H76.17Zm39.88,61.34a6.23,6.23,0,1,1,6.19-6.19,6.23,6.23,0,0,1-6.19,6.19M101,97.64a10.91,10.91,0,0,0-6.4-1.94,11.27,11.27,0,1,0,6.4,20.59v1.44h5.4V95.91H101ZM50.83,117.73h5.4V95.91h-5.4Zm19-4.61a6.28,6.28,0,0,1-6.19-6.19,6.26,6.26,0,1,1,6.19,6.19m6.33-15.48a11.14,11.14,0,0,0-6.48-1.94,11.27,11.27,0,1,0,0,22.53,11.42,11.42,0,0,0,6.48-1.94v1.44H81.5V88.5H76.17ZM11.45,113.12a6.23,6.23,0,1,1,0-12.46,6.23,6.23,0,1,1,0,12.46m6.33-15.48A11.29,11.29,0,0,0,11.3,95.7a11.27,11.27,0,1,0,0,22.53,11.42,11.42,0,0,0,6.48-1.94v1.44h5.33V95.91H17.78Zm91.59-9.14L76.61,31.84,57.67,42.78,84,88.5Zm13.24,16.34c-3.53-.93-8.06-.78-8.06-3,.15-1.51,1.58-1.95,3.74-1.95,3.24,0,3.46,1.81,3.53,3h5.47c-.36-4.25-3.82-7.13-9.28-7.13-5.62,0-9,3.09-9,7a5.9,5.9,0,0,0,3,5.26,20.17,20.17,0,0,0,5.68,1.51c2.31.36,4.47.51,4.61,2.23,0,1.08-1.15,2.52-3.6,2.52-3.67-.07-4.53-2.09-4.53-3.45H108.5c.22,4.39,3.81,7.49,9.86,7.49,5.4,0,9.79-2.09,9.79-7.49,0-3-2.16-5-5.54-5.91M42.76,88.5l-10-17.28L13.82,82.09,17.5,88.5Z"/><path d="M339.66,106.65a7.88,7.88,0,1,0,15.75,0,7.85,7.85,0,0,0-7.94-7.94,7.77,7.77,0,0,0-7.81,7.94m15.66,8.12s-2.48,3.42-8.07,3.42a11.56,11.56,0,0,1,0-23.12,10.59,10.59,0,0,1,8.07,3.33v-3h3.86v22.46h-3.86Z"/><path d="M365.57,106.65a7.88,7.88,0,1,0,7.81-7.94,7.78,7.78,0,0,0-7.81,7.94m-3.81,0a11.47,11.47,0,0,1,11.4-11.58,10.46,10.46,0,0,1,8.08,3.37v-11h3.86v30.4h-3.86v-3.07a10.28,10.28,0,0,1-8.08,3.42,11.43,11.43,0,0,1-11.4-11.54"/><path d="M388.21,95.38h3.9v22.46h-3.9Zm0-7.94h3.9v3.9h-3.9Z"/><path d="M398.5,106.65a7.88,7.88,0,1,0,15.76,0,7.85,7.85,0,0,0-7.95-7.94,7.77,7.77,0,0,0-7.81,7.94m-3.81,0a11.46,11.46,0,0,1,11.4-11.58,10.46,10.46,0,0,1,8.08,3.37v-11H418v30.4h-3.86v-3.07a10.28,10.28,0,0,1-8.08,3.42,11.43,11.43,0,0,1-11.4-11.54"/><path d="M424.42,106.65a7.88,7.88,0,1,0,15.76,0,7.86,7.86,0,0,0-7.95-7.94,7.77,7.77,0,0,0-7.81,7.94m15.67,8.12s-2.49,3.42-8.08,3.42a11.56,11.56,0,0,1,0-23.12,10.63,10.63,0,0,1,8.08,3.33v-3H444v22.46h-3.86Z"/><path d="M450.65,110.87c.22,2.26,1.91,4.17,5.81,4.22,3.33,0,5-1.47,5-3.38,0-5.55-14.15-.8-14.15-9.89,0-3.87,3.32-6.71,8.52-6.71s8.69,2.8,9,7h-3.95c-.14-1.78-1.2-3.82-4.93-3.82-2.8,0-4.66,1.07-4.66,3.06,0,5.46,14.33,1,14.33,9.77,0,4.61-3.86,7.1-9.32,7.1-5.72,0-9.32-2.84-9.67-7.37Z"/><polygon points="477.85 87.48 479.98 87.48 479.98 106.34 489.57 96.4 492.41 96.4 484.95 104.08 494.1 117.83 491.65 117.83 483.49 105.59 479.98 109.23 479.98 117.83 477.85 117.83 477.85 87.48"/><path d="M496.36,96.18h2.13v21.66h-2.13Zm0-6.7h2.13v2.31h-2.13Z"/><path d="M521.65,107a9.1,9.1,0,1,0-9.09,9.19,9.12,9.12,0,0,0,9.09-9.19m-20.32,0a11.24,11.24,0,0,1,20.32-6.61V87.48h2.13v30.35h-2.13v-4.25A11.24,11.24,0,0,1,501.33,107"/><path d="M526.71,111.14h2.13c.18,3.32,3,5,6.88,5s6.12-2,6.12-4.13-1.41-3.64-6.83-4.39c-3.42-.49-7.54-1.51-7.54-5.9,0-3.55,3-6,7.67-6,4.84,0,8.08,2.57,8.08,6.43h-2.13c0-2.17-1.77-4.39-5.81-4.39-3.46,0-5.68,1.6-5.68,3.77,0,2.57,2.75,3.64,6.25,4,5.2.66,8.13,2.26,8.13,6.21,0,5.24-5,6.39-8.62,6.39-5,0-8.25-2.26-8.65-7"/></g></g></svg>