<svg xmlns="http://www.w3.org/2000/svg" viewBox="0 0 728.08 105.15"><title>por-compras</title><g id="Capa_2" data-name="Capa 2"><g id="Capa_1-2" data-name="Capa 1"><path d="M16.12,14.8a17.72,17.72,0,0,1-.56,4.82,7.89,7.89,0,0,1-1.64,3.12,6.28,6.28,0,0,1-2.6,1.69,10.9,10.9,0,0,1-3.48.51H4.21V39.49H0V4.61H7.84a11.11,11.11,0,0,1,3.5.51A6.07,6.07,0,0,1,14,6.81,7.47,7.47,0,0,1,15.58,10,18.5,18.5,0,0,1,16.12,14.8Zm-4.21,0c0-2.35-.35-4-1-5A3.66,3.66,0,0,0,7.69,8.38H4.21V21.17H7.69a3.67,3.67,0,0,0,3.19-1.42C11.56,18.8,11.91,17.15,11.91,14.8Z" style="fill:#fff"/><path d="M34.4,26.8a57,57,0,0,1-.32,6.54,8.28,8.28,0,0,1-1.5,4.19,5.47,5.47,0,0,1-2.32,1.82,8.18,8.18,0,0,1-3.06.54,8,8,0,0,1-3-.54,5.62,5.62,0,0,1-2.31-1.82,8.57,8.57,0,0,1-1.52-4.19A54.33,54.33,0,0,1,20,26.8a54.33,54.33,0,0,1,.34-6.54,8.57,8.57,0,0,1,1.52-4.19,5.6,5.6,0,0,1,2.31-1.81,8,8,0,0,1,3-.54,8.18,8.18,0,0,1,3.06.54,5.44,5.44,0,0,1,2.32,1.81,8.28,8.28,0,0,1,1.5,4.19A57,57,0,0,1,34.4,26.8Zm-4,0c0-2.28-.05-4.1-.15-5.44a6,6,0,0,0-.83-3A2.6,2.6,0,0,0,27.2,17.3,2.57,2.57,0,0,0,25,18.38a6.21,6.21,0,0,0-.86,3C24,22.7,24,24.52,24,26.8s.06,4.1.17,5.44a6.22,6.22,0,0,0,.86,3,2.57,2.57,0,0,0,2.21,1.08,2.6,2.6,0,0,0,2.25-1.08,6,6,0,0,0,.83-3C30.38,30.9,30.43,29.09,30.43,26.8Z" style="fill:#fff"/><path d="M48.31,17.54A4.6,4.6,0,0,0,45,18.77a4.52,4.52,0,0,0-1.27,3.43V39.49h-4V14.11h3.82v2.7a4.35,4.35,0,0,1,.78-1,9.74,9.74,0,0,1,1-.81,7.14,7.14,0,0,1,4.17-1.27v3.82Z" style="fill:#fff"/><path d="M76.68,32.39a12.74,12.74,0,0,1-.56,3.26,6.25,6.25,0,0,1-1.45,2.47,5.49,5.49,0,0,1-2.18,1.35,8.78,8.78,0,0,1-2.81.42,8.07,8.07,0,0,1-3-.54,5.43,5.43,0,0,1-2.35-1.82,8.38,8.38,0,0,1-1.52-4.21,52.33,52.33,0,0,1-.35-6.52,52.11,52.11,0,0,1,.35-6.54,8.38,8.38,0,0,1,1.52-4.19,5.41,5.41,0,0,1,2.35-1.81,8.07,8.07,0,0,1,3-.54,9.38,9.38,0,0,1,2.77.37,5.16,5.16,0,0,1,2.18,1.35,5.5,5.5,0,0,1,1.56,2.62,15,15,0,0,1,.49,3.11h-4a10,10,0,0,0-.12-1.55,2.8,2.8,0,0,0-.66-1.39,2.72,2.72,0,0,0-2.2-.93,2.62,2.62,0,0,0-2.26,1.08,5.72,5.72,0,0,0-.83,2.94c-.1,1.34-.15,3.16-.15,5.48s.05,4.1.15,5.44a6,6,0,0,0,.83,3,2.62,2.62,0,0,0,2.26,1.08,2.66,2.66,0,0,0,2.15-.93A2.73,2.73,0,0,0,72.57,34a8.5,8.5,0,0,0,.14-1.64Z" style="fill:#fff"/><path d="M95.21,26.8a57,57,0,0,1-.32,6.54,8.38,8.38,0,0,1-1.5,4.19,5.53,5.53,0,0,1-2.32,1.82,8.2,8.2,0,0,1-3.07.54,8,8,0,0,1-3-.54,5.6,5.6,0,0,1-2.3-1.82,8.57,8.57,0,0,1-1.52-4.19,52.33,52.33,0,0,1-.34-6.54,52.33,52.33,0,0,1,.34-6.54,8.57,8.57,0,0,1,1.52-4.19A5.57,5.57,0,0,1,85,14.26a8,8,0,0,1,3-.54,8.2,8.2,0,0,1,3.07.54,5.5,5.5,0,0,1,2.32,1.81,8.38,8.38,0,0,1,1.5,4.19A57,57,0,0,1,95.21,26.8Zm-4,0c0-2.28,0-4.1-.15-5.44a6.13,6.13,0,0,0-.83-3A2.64,2.64,0,0,0,88,17.3a2.55,2.55,0,0,0-2.2,1.08,6.1,6.1,0,0,0-.86,3c-.11,1.34-.17,3.16-.17,5.44s.06,4.1.17,5.44a6.11,6.11,0,0,0,.86,3A2.55,2.55,0,0,0,88,36.31a2.64,2.64,0,0,0,2.26-1.08,6.14,6.14,0,0,0,.83-3C91.19,30.9,91.24,29.09,91.24,26.8Z" style="fill:#fff"/><path d="M120.49,39.49V20.83a3.59,3.59,0,0,0-.86-2.6,3,3,0,0,0-4.26,0,3.59,3.59,0,0,0-.86,2.6V39.49h-4V20.83a3.51,3.51,0,0,0-.88-2.6,2.93,2.93,0,0,0-2.16-.88,2.85,2.85,0,0,0-2.13.88,3.59,3.59,0,0,0-.85,2.6V39.49h-4V14.11h3.82v2a3.66,3.66,0,0,1,.71-.88,5.89,5.89,0,0,1,.86-.69,5.15,5.15,0,0,1,2.74-.78,5.45,5.45,0,0,1,2.77.74,6,6,0,0,1,2.08,1.91,6.37,6.37,0,0,1,.93-1,7.91,7.91,0,0,1,1.08-.84,4.34,4.34,0,0,1,1.4-.58,6.38,6.38,0,0,1,1.49-.2,6.64,6.64,0,0,1,2.7.47A5.67,5.67,0,0,1,123,15.58a5,5,0,0,1,1.13,2,12.46,12.46,0,0,1,.34,3.24V39.49Z" style="fill:#fff"/><path d="M144.65,26.8a63,63,0,0,1-.32,7.08,7.51,7.51,0,0,1-1.55,4.1A5.48,5.48,0,0,1,141,39.42a5.55,5.55,0,0,1-2.4.47,5.21,5.21,0,0,1-2.74-.74,5.63,5.63,0,0,1-1.42-1.42V49h-4V14.11h3.87v2a3.56,3.56,0,0,1,.68-.86,9.4,9.4,0,0,1,.84-.71,5,5,0,0,1,2.74-.78,6,6,0,0,1,2.35.44,5.09,5.09,0,0,1,1.86,1.42,7.52,7.52,0,0,1,1.55,4.12A63.62,63.62,0,0,1,144.65,26.8Zm-4,0c0-1.3,0-2.43,0-3.38s-.08-1.75-.15-2.42a8.15,8.15,0,0,0-.29-1.64,2.71,2.71,0,0,0-.54-1,2.55,2.55,0,0,0-2.16-1,2.77,2.77,0,0,0-2.05.78,3.07,3.07,0,0,0-.74,1.18,5.21,5.21,0,0,0-.24,1.71V32.58a4,4,0,0,0,1,3,2.77,2.77,0,0,0,2.05.78,2.55,2.55,0,0,0,2.16-1,5.2,5.2,0,0,0,.83-2.67C140.56,31.35,140.63,29.42,140.63,26.8Z" style="fill:#fff"/><path d="M158.51,17.54a4.6,4.6,0,0,0-3.33,1.23,4.52,4.52,0,0,0-1.27,3.43V39.49h-4V14.11h3.82v2.7a4.35,4.35,0,0,1,.78-1,9.74,9.74,0,0,1,1-.81,7.14,7.14,0,0,1,4.17-1.27v3.82Z" style="fill:#fff"/><path d="M172.53,39.49V37.24a5.37,5.37,0,0,1-.69,1,5.9,5.9,0,0,1-.78.74,4.93,4.93,0,0,1-1.28.68,5.23,5.23,0,0,1-1.71.25,5.88,5.88,0,0,1-2.45-.47A5.7,5.7,0,0,1,163.71,38a6.09,6.09,0,0,1-1.18-2.26,11.81,11.81,0,0,1-.44-3.43,9.34,9.34,0,0,1,.56-3.26,6.09,6.09,0,0,1,1.69-2.47,7.27,7.27,0,0,1,2.18-1.28,9.64,9.64,0,0,1,3.21-.44h2.6v-4q0-3.63-3-3.63a2.5,2.5,0,0,0-1.13.22,3.34,3.34,0,0,0-.83.61,2.79,2.79,0,0,0-.73,1.23,6.32,6.32,0,0,0-.2,1.71h-4a9.85,9.85,0,0,1,.42-2.86,5.84,5.84,0,0,1,1.54-2.53,6.48,6.48,0,0,1,2.13-1.35,7.53,7.53,0,0,1,2.77-.51,6.73,6.73,0,0,1,4.95,1.76,7.47,7.47,0,0,1,1.47,2.31,8.69,8.69,0,0,1,.54,3.28V39.49Zm-.2-11.76h-2.25a5.72,5.72,0,0,0-1.6.2,3.26,3.26,0,0,0-1.25.74,3.8,3.8,0,0,0-.85,1.49,6,6,0,0,0-.32,2,5.54,5.54,0,0,0,.76,3.14,2.61,2.61,0,0,0,2.33,1.13,2.81,2.81,0,0,0,2.3-1.11,4.42,4.42,0,0,0,.88-2.86Z" style="fill:#fff"/><path d="M195.51,32.58a7.3,7.3,0,0,1-.59,3,7.86,7.86,0,0,1-1.57,2.28A5.9,5.9,0,0,1,191,39.42a8.41,8.41,0,0,1-2.86.47,8.23,8.23,0,0,1-2.87-.49,6,6,0,0,1-2.23-1.47,7.66,7.66,0,0,1-2.15-5.59h3.92a4.27,4.27,0,0,0,1.07,3.09,3,3,0,0,0,1.06.66,3.47,3.47,0,0,0,1.2.22,3.25,3.25,0,0,0,2.4-.93,3.47,3.47,0,0,0,1-2.55,4.08,4.08,0,0,0-.64-2.3,5.06,5.06,0,0,0-.93-1,7.33,7.33,0,0,0-1.32-.84l-3.29-1.66a8.14,8.14,0,0,1-3.47-2.94,6.57,6.57,0,0,1-.79-3.33,7,7,0,0,1,.57-2.92,7.37,7.37,0,0,1,1.54-2.23,6.11,6.11,0,0,1,2.25-1.44,8,8,0,0,1,2.75-.47,6.73,6.73,0,0,1,4.95,1.81,7.36,7.36,0,0,1,2.05,5.59h-3.92a5.94,5.94,0,0,0-.22-1.81,3.17,3.17,0,0,0-.71-1.23,2.35,2.35,0,0,0-1-.68,3.28,3.28,0,0,0-1.15-.2A3,3,0,0,0,186,18a3.32,3.32,0,0,0-.93,2.45,3.76,3.76,0,0,0,.44,1.86A4.58,4.58,0,0,0,187.62,24l3.23,1.62a8.22,8.22,0,0,1,3.58,2.89A7.16,7.16,0,0,1,195.51,32.58Z" style="fill:#fff"/><path d="M223.34,32.58a7.3,7.3,0,0,1-.59,3,7.67,7.67,0,0,1-1.57,2.28,5.94,5.94,0,0,1-2.32,1.54,8.51,8.51,0,0,1-2.87.47,8.23,8.23,0,0,1-2.87-.49,6,6,0,0,1-2.23-1.47,7.7,7.7,0,0,1-2.15-5.59h3.92a4.28,4.28,0,0,0,1.08,3.09,2.84,2.84,0,0,0,1,.66,3.47,3.47,0,0,0,1.2.22,3.25,3.25,0,0,0,2.4-.93,3.47,3.47,0,0,0,1-2.55,4.08,4.08,0,0,0-.64-2.3,5.06,5.06,0,0,0-.93-1,7.33,7.33,0,0,0-1.32-.84l-3.28-1.66a8.11,8.11,0,0,1-3.48-2.94,6.57,6.57,0,0,1-.79-3.33,7,7,0,0,1,.57-2.92A7.55,7.55,0,0,1,211,15.63a6.11,6.11,0,0,1,2.25-1.44,8,8,0,0,1,2.75-.47,6.73,6.73,0,0,1,5,1.81,7.37,7.37,0,0,1,2.06,5.59h-3.92a6.28,6.28,0,0,0-.22-1.81,3.33,3.33,0,0,0-.72-1.23,2.3,2.3,0,0,0-1-.68,3.28,3.28,0,0,0-1.15-.2,3,3,0,0,0-2.21.83,3.32,3.32,0,0,0-.93,2.45,3.76,3.76,0,0,0,.44,1.86A4.58,4.58,0,0,0,215.45,24l3.23,1.62a8.16,8.16,0,0,1,3.58,2.89A7.16,7.16,0,0,1,223.34,32.58Z" style="fill:#fff"/><path d="M238.14,39.49v-2a4,4,0,0,1-.71.89,5.62,5.62,0,0,1-.86.68,5.16,5.16,0,0,1-2.74.79,5.88,5.88,0,0,1-2.45-.47,5.5,5.5,0,0,1-1.87-1.4,5.15,5.15,0,0,1-1.15-2,11.52,11.52,0,0,1-.37-3.24V14.11h4V32.78a3.59,3.59,0,0,0,.89,2.65,2.9,2.9,0,0,0,2.15.88,2.84,2.84,0,0,0,2.13-.88,3.67,3.67,0,0,0,.86-2.65V14.11h4V39.49Z" style="fill:#fff"/><path d="M262.29,26.8a63.35,63.35,0,0,1-.31,7.08,7.59,7.59,0,0,1-1.55,4.1,5.48,5.48,0,0,1-1.81,1.44,5.58,5.58,0,0,1-2.4.47,5.27,5.27,0,0,1-2.75-.74,6,6,0,0,1-1.42-1.42V49h-4V14.11H252v2a3.12,3.12,0,0,1,.68-.86c.33-.31.61-.54.83-.71a5,5,0,0,1,2.75-.78,6,6,0,0,1,2.35.44,5.09,5.09,0,0,1,1.86,1.42A7.59,7.59,0,0,1,262,19.7,64,64,0,0,1,262.29,26.8Zm-4,0c0-1.3,0-2.43,0-3.38s-.08-1.75-.15-2.42a8.93,8.93,0,0,0-.29-1.64,2.71,2.71,0,0,0-.54-1,2.57,2.57,0,0,0-2.16-1,2.79,2.79,0,0,0-2.06.78,3.18,3.18,0,0,0-.73,1.18,4.94,4.94,0,0,0-.25,1.71V32.58a4,4,0,0,0,1,3,2.79,2.79,0,0,0,2.06.78,2.57,2.57,0,0,0,2.16-1,5.2,5.2,0,0,0,.83-2.67C258.21,31.35,258.28,29.42,258.28,26.8Z" style="fill:#fff"/><path d="M270.77,27.73c0,2,.06,3.65.17,4.85a4.91,4.91,0,0,0,.86,2.65,2.5,2.5,0,0,0,.91.79,2.91,2.91,0,0,0,1.34.29,3.17,3.17,0,0,0,1.23-.22,3,3,0,0,0,1.69-2,7.5,7.5,0,0,0,.17-1.66h4a10.63,10.63,0,0,1-.52,3.14,6.42,6.42,0,0,1-6.54,4.36,8.47,8.47,0,0,1-2.84-.44,5.47,5.47,0,0,1-2.2-1.52,7.9,7.9,0,0,1-1.84-4.34,46.91,46.91,0,0,1-.42-6.79,50.27,50.27,0,0,1,.39-6.81A7.75,7.75,0,0,1,269,15.68a5.47,5.47,0,0,1,2.2-1.52,9.1,9.1,0,0,1,5.59,0,5.54,5.54,0,0,1,2.2,1.52,8,8,0,0,1,1.84,4.43,55.68,55.68,0,0,1,.42,7.62Zm6.42-3a34.7,34.7,0,0,0-.2-4.27,4.11,4.11,0,0,0-.78-2.15,2.74,2.74,0,0,0-.91-.76A2.87,2.87,0,0,0,274,17.3a2.78,2.78,0,0,0-1.33.27,2.86,2.86,0,0,0-.88.76,4.11,4.11,0,0,0-.78,2.15,32.79,32.79,0,0,0-.2,4.27Z" style="fill:#fff"/><path d="M294.93,17.54a4.31,4.31,0,0,0-4.61,4.66V39.49h-4V14.11h3.82v2.7a4.14,4.14,0,0,1,.79-1,7.93,7.93,0,0,1,1-.81,7.11,7.11,0,0,1,4.16-1.27v3.82Z" style="fill:#fff"/><path d="M299.88,9.6V5h4.65V9.6Zm.34,29.89V14.11h4V39.49Z" style="fill:#fff"/><path d="M323.93,26.8a57.28,57.28,0,0,1-.31,6.54,8.47,8.47,0,0,1-1.5,4.19,5.49,5.49,0,0,1-2.33,1.82,8.18,8.18,0,0,1-3.06.54,8,8,0,0,1-3-.54,5.53,5.53,0,0,1-2.3-1.82,8.57,8.57,0,0,1-1.52-4.19,52.33,52.33,0,0,1-.34-6.54,52.33,52.33,0,0,1,.34-6.54,8.57,8.57,0,0,1,1.52-4.19,5.51,5.51,0,0,1,2.3-1.81,8,8,0,0,1,3-.54,8.18,8.18,0,0,1,3.06.54,5.47,5.47,0,0,1,2.33,1.81,8.47,8.47,0,0,1,1.5,4.19A57.28,57.28,0,0,1,323.93,26.8Zm-4,0c0-2.28,0-4.1-.14-5.44a6,6,0,0,0-.84-3,2.6,2.6,0,0,0-2.25-1.08,2.55,2.55,0,0,0-2.2,1.08,6.1,6.1,0,0,0-.86,3c-.12,1.34-.17,3.16-.17,5.44s.05,4.1.17,5.44a6.11,6.11,0,0,0,.86,3,2.55,2.55,0,0,0,2.2,1.08A2.6,2.6,0,0,0,319,35.23a6,6,0,0,0,.84-3C319.92,30.9,320,29.09,320,26.8Z" style="fill:#fff"/><path d="M337.85,17.54a4.6,4.6,0,0,0-3.33,1.23,4.53,4.53,0,0,0-1.28,3.43V39.49h-4V14.11h3.83v2.7a3.86,3.86,0,0,1,.78-1,8.74,8.74,0,0,1,1-.81A7.14,7.14,0,0,1,339,13.72v3.82Z" style="fill:#fff"/><path d="M345.84,27.73c0,2,.05,3.65.17,4.85a4.83,4.83,0,0,0,.86,2.65,2.47,2.47,0,0,0,.9.79,3,3,0,0,0,1.35.29,3.12,3.12,0,0,0,1.22-.22,3,3,0,0,0,1.7-2,7.5,7.5,0,0,0,.17-1.66h4a11,11,0,0,1-.52,3.14,6.42,6.42,0,0,1-6.54,4.36,8.43,8.43,0,0,1-2.84-.44,5.57,5.57,0,0,1-2.21-1.52,7.83,7.83,0,0,1-1.83-4.34,46.91,46.91,0,0,1-.42-6.79,50.27,50.27,0,0,1,.39-6.81A7.75,7.75,0,0,1,344,15.68a5.57,5.57,0,0,1,2.21-1.52,9.07,9.07,0,0,1,5.58,0A5.5,5.5,0,0,1,354,15.68a8,8,0,0,1,1.84,4.43,57.59,57.59,0,0,1,.41,7.62Zm6.42-3a34.7,34.7,0,0,0-.2-4.27,4.11,4.11,0,0,0-.78-2.15,3,3,0,0,0-.91-.76A2.89,2.89,0,0,0,349,17.3a2.73,2.73,0,0,0-1.32.27,2.86,2.86,0,0,0-.88.76,4,4,0,0,0-.79,2.15,35.11,35.11,0,0,0-.19,4.27Z" style="fill:#fff"/><path d="M374.7,32.58a7.3,7.3,0,0,1-.59,3,7.86,7.86,0,0,1-1.57,2.28,5.9,5.9,0,0,1-2.33,1.54,8.41,8.41,0,0,1-2.86.47,8.23,8.23,0,0,1-2.87-.49,6,6,0,0,1-2.23-1.47,7.67,7.67,0,0,1-2.16-5.59H364a4.28,4.28,0,0,0,1.08,3.09,3,3,0,0,0,1.06.66,3.43,3.43,0,0,0,1.2.22,3.25,3.25,0,0,0,2.4-.93,3.47,3.47,0,0,0,1-2.55,4.08,4.08,0,0,0-.64-2.3,5.06,5.06,0,0,0-.93-1,7.33,7.33,0,0,0-1.32-.84l-3.29-1.66a8.14,8.14,0,0,1-3.47-2.94,6.57,6.57,0,0,1-.79-3.33,7.14,7.14,0,0,1,.56-2.92,7.58,7.58,0,0,1,1.55-2.23,6.11,6.11,0,0,1,2.25-1.44,8,8,0,0,1,2.75-.47,6.69,6.69,0,0,1,4.94,1.81,7.33,7.33,0,0,1,2.06,5.59h-3.92a5.94,5.94,0,0,0-.22-1.81,3.17,3.17,0,0,0-.71-1.23,2.35,2.35,0,0,0-1-.68,3.28,3.28,0,0,0-1.15-.2,3,3,0,0,0-2.21.83,3.32,3.32,0,0,0-.93,2.45,3.76,3.76,0,0,0,.44,1.86A4.58,4.58,0,0,0,366.81,24L370,25.63a8.22,8.22,0,0,1,3.58,2.89A7.16,7.16,0,0,1,374.7,32.58Z" style="fill:#fff"/><path d="M398.46,39.49V37.24a5.33,5.33,0,0,1-.68,1A6.63,6.63,0,0,1,397,39a4.87,4.87,0,0,1-1.27.68,5.26,5.26,0,0,1-1.72.25A5.4,5.4,0,0,1,389.64,38a6.24,6.24,0,0,1-1.18-2.26,11.81,11.81,0,0,1-.44-3.43,9.12,9.12,0,0,1,.57-3.26,6,6,0,0,1,1.69-2.47,7.15,7.15,0,0,1,2.18-1.28,9.64,9.64,0,0,1,3.21-.44h2.59v-4q0-3.63-3-3.63a2.47,2.47,0,0,0-1.13.22,3.34,3.34,0,0,0-.83.61,2.81,2.81,0,0,0-.74,1.23,6.32,6.32,0,0,0-.2,1.71h-4a9.84,9.84,0,0,1,.41-2.86,5.86,5.86,0,0,1,1.55-2.53,6.28,6.28,0,0,1,2.13-1.35,7.49,7.49,0,0,1,2.77-.51,6.69,6.69,0,0,1,4.94,1.76,7.68,7.68,0,0,1,1.48,2.31,8.9,8.9,0,0,1,.53,3.28V39.49Zm-.2-11.76H396a5.65,5.65,0,0,0-1.59.2,3.19,3.19,0,0,0-1.25.74,3.69,3.69,0,0,0-.86,1.49,6.32,6.32,0,0,0-.32,2,5.63,5.63,0,0,0,.76,3.14,2.62,2.62,0,0,0,2.33,1.13,2.8,2.8,0,0,0,2.3-1.11,4.42,4.42,0,0,0,.88-2.86Z" style="fill:#fff"/><path d="M434.23,30.13a18.5,18.5,0,0,1-.46,4.54A6.5,6.5,0,0,1,430.14,39a8.93,8.93,0,0,1-2.57.71v5.34h-3.78V39.79a7.51,7.51,0,0,1-4.7-2.06,6.48,6.48,0,0,1-1.69-2.89,17.16,17.16,0,0,1-.47-4.46h4.22a12.92,12.92,0,0,0,.24,2.77,4,4,0,0,0,.93,1.79,3,3,0,0,0,1.47.88V23l-1.86-.78A10.33,10.33,0,0,1,419.68,21a5.07,5.07,0,0,1-1.47-1.69,8.15,8.15,0,0,1-.79-2.4,20.43,20.43,0,0,1-.24-3.4,12,12,0,0,1,.66-4.12,7.57,7.57,0,0,1,2-3,7.87,7.87,0,0,1,4-1.91V0h3.78V4.41a7.52,7.52,0,0,1,4.26,1.91,6.6,6.6,0,0,1,1.81,3,15.34,15.34,0,0,1,.49,4.15h-4.21a12.63,12.63,0,0,0-.2-2.41,4.08,4.08,0,0,0-.88-1.81,3.46,3.46,0,0,0-1.27-.93V19.84l1.76.74a8.77,8.77,0,0,1,2.43,1.4,6.23,6.23,0,0,1,1.52,1.93,8.69,8.69,0,0,1,.76,2.65A28.47,28.47,0,0,1,434.23,30.13ZM423.79,8.33a3.37,3.37,0,0,0-1.17.83,6.11,6.11,0,0,0-1.23,4.17,17.49,17.49,0,0,0,.1,1.93,5.63,5.63,0,0,0,.34,1.4,2.88,2.88,0,0,0,.74,1,6.32,6.32,0,0,0,1.22.83ZM430,30.23c0-.88,0-1.63-.1-2.25a6,6,0,0,0-.39-1.62,4,4,0,0,0-.76-1.17,4.8,4.8,0,0,0-1.2-.89V35.77a3.44,3.44,0,0,0,1.32-.88A4,4,0,0,0,429.8,33,15,15,0,0,0,430,30.23Z" style="fill:#fff"/><path d="M451.72,33.76v5.73h-4V33.76H438.3V30.18l8.92-25.57H451l-8.67,25.57h5.38v-8h4v8h2.45v3.58Z" style="fill:#fff"/><path d="M472.55,15a27.71,27.71,0,0,1-.37,4.78,22.83,22.83,0,0,1-1.05,4l-5.88,15.68h-4.07l5.69-14.55a4.1,4.1,0,0,1-2.5.83,5.26,5.26,0,0,1-4.32-2,7,7,0,0,1-.8-1.23,6.38,6.38,0,0,1-.54-1.62,15,15,0,0,1-.32-2.37c-.07-.93-.1-2.1-.1-3.51,0-1.24,0-2.3.1-3.18a18.59,18.59,0,0,1,.29-2.31,7.14,7.14,0,0,1,.54-1.69,6.61,6.61,0,0,1,.83-1.29,5.05,5.05,0,0,1,2.33-1.79,8.28,8.28,0,0,1,3.06-.57,7.58,7.58,0,0,1,3.14.62,5.54,5.54,0,0,1,2.21,1.74A7.41,7.41,0,0,1,471.67,8a8.09,8.09,0,0,1,.54,1.74,16.94,16.94,0,0,1,.27,2.25C472.52,12.86,472.55,13.87,472.55,15Zm-4,.05c0-1.73-.05-3.09-.15-4.09a4,4,0,0,0-.83-2.28,2.76,2.76,0,0,0-2.16-.93,2.58,2.58,0,0,0-2.15.93,4.07,4.07,0,0,0-.86,2.28,39.16,39.16,0,0,0-.17,4.09,39.94,39.94,0,0,0,.17,4.12,4.08,4.08,0,0,0,.86,2.3,2.58,2.58,0,0,0,2.15.93,2.76,2.76,0,0,0,2.16-.93,4,4,0,0,0,.83-2.28Q468.58,17.74,468.58,15.09Z" style="fill:#fff"/><path d="M478.18,39.49V34.64H483v4.85Z" style="fill:#fff"/><path d="M502.88,15a27.71,27.71,0,0,1-.37,4.78,22,22,0,0,1-1.05,4l-5.88,15.68h-4.07l5.69-14.55a4.1,4.1,0,0,1-2.5.83,5.26,5.26,0,0,1-4.32-2,7,7,0,0,1-.8-1.23,6.38,6.38,0,0,1-.54-1.62,15,15,0,0,1-.32-2.37c-.07-.93-.1-2.1-.1-3.51,0-1.24,0-2.3.1-3.18A18.59,18.59,0,0,1,489,9.55a7.14,7.14,0,0,1,.54-1.69,6.61,6.61,0,0,1,.83-1.29,5.05,5.05,0,0,1,2.33-1.79,8.28,8.28,0,0,1,3.06-.57,7.58,7.58,0,0,1,3.14.62,5.54,5.54,0,0,1,2.21,1.74A7.41,7.41,0,0,1,502,8a8.09,8.09,0,0,1,.54,1.74,16.94,16.94,0,0,1,.27,2.25C502.85,12.86,502.88,13.87,502.88,15Zm-4,.05c0-1.73-.05-3.09-.15-4.09a3.92,3.92,0,0,0-.83-2.28,2.76,2.76,0,0,0-2.16-.93,2.58,2.58,0,0,0-2.15.93,4.14,4.14,0,0,0-.86,2.28,39.16,39.16,0,0,0-.17,4.09,39.94,39.94,0,0,0,.17,4.12,4.15,4.15,0,0,0,.86,2.3,2.58,2.58,0,0,0,2.15.93,2.76,2.76,0,0,0,2.16-.93,3.89,3.89,0,0,0,.83-2.28Q498.91,17.74,498.91,15.09Z" style="fill:#fff"/><path d="M522.09,15a28.74,28.74,0,0,1-.37,4.78,23.75,23.75,0,0,1-1.05,4l-5.88,15.68h-4.07l5.68-14.55a4.06,4.06,0,0,1-2.5.83,5.25,5.25,0,0,1-4.31-2,7,7,0,0,1-.81-1.23,7.28,7.28,0,0,1-.54-1.62,16.37,16.37,0,0,1-.31-2.37c-.07-.93-.1-2.1-.1-3.51,0-1.24,0-2.3.1-3.18a18.59,18.59,0,0,1,.29-2.31,7.14,7.14,0,0,1,.54-1.69,6.18,6.18,0,0,1,.83-1.29,5.05,5.05,0,0,1,2.33-1.79A8.24,8.24,0,0,1,515,4.21a7.62,7.62,0,0,1,3.14.62,5.44,5.44,0,0,1,2.2,1.74A7,7,0,0,1,521.21,8a8.7,8.7,0,0,1,.53,1.74A16.94,16.94,0,0,1,522,12C522.06,12.86,522.09,13.87,522.09,15Zm-4,.05c0-1.73,0-3.09-.15-4.09a4.06,4.06,0,0,0-.83-2.28A2.78,2.78,0,0,0,515,7.79a2.57,2.57,0,0,0-2.15.93A4.07,4.07,0,0,0,512,11a36.56,36.56,0,0,0-.17,4.09,37.28,37.28,0,0,0,.17,4.12,4.08,4.08,0,0,0,.86,2.3,2.57,2.57,0,0,0,2.15.93,2.78,2.78,0,0,0,2.16-.93,4,4,0,0,0,.83-2.28Q518.12,17.74,518.12,15.09Z" style="fill:#fff"/><path d="M541.15,32.63a8.35,8.35,0,0,1-.52,3.21,6,6,0,0,1-3.72,3.56,8.21,8.21,0,0,1-2.77.49,8,8,0,0,1-2.74-.49,6,6,0,0,1-3.7-3.56,8.35,8.35,0,0,1-.52-3.21V11.47a8.35,8.35,0,0,1,.52-3.21,6.48,6.48,0,0,1,1.44-2.18A6.51,6.51,0,0,1,531.4,4.7a8,8,0,0,1,2.74-.49,8.21,8.21,0,0,1,2.77.49,6.51,6.51,0,0,1,2.28,1.38,6.48,6.48,0,0,1,1.44,2.18,8.35,8.35,0,0,1,.52,3.21Zm-4-21.31a3.63,3.63,0,0,0-.88-2.65,2.93,2.93,0,0,0-2.16-.88,2.84,2.84,0,0,0-2.13.88,3.67,3.67,0,0,0-.86,2.65V32.78a3.67,3.67,0,0,0,.86,2.65,2.84,2.84,0,0,0,2.13.88,2.93,2.93,0,0,0,2.16-.88,3.63,3.63,0,0,0,.88-2.65Z" style="fill:#fff"/><path d="M560.5,41.75a8.58,8.58,0,0,1-.61,3.48,5.89,5.89,0,0,1-1.64,2.2,5.59,5.59,0,0,1-2.53,1.28,15,15,0,0,1-3,.29V45.42a4.24,4.24,0,0,0,2.84-.83,3.76,3.76,0,0,0,1-3V14.11h4ZM556.19,9.6V5h4.66V9.6Z" style="fill:#fff"/><path d="M576.57,39.49v-2a3.69,3.69,0,0,1-.71.89,5.59,5.59,0,0,1-.85.68,5.19,5.19,0,0,1-2.75.79,5.92,5.92,0,0,1-2.45-.47A5.47,5.47,0,0,1,568,38a5,5,0,0,1-1.15-2,11.16,11.16,0,0,1-.37-3.24V14.11h4V32.78a3.59,3.59,0,0,0,.88,2.65,2.93,2.93,0,0,0,2.16.88,2.84,2.84,0,0,0,2.13-.88,3.67,3.67,0,0,0,.86-2.65V14.11h4V39.49Z" style="fill:#fff"/><path d="M589.71,27.73c0,2,0,3.65.17,4.85a4.92,4.92,0,0,0,.85,2.65,2.5,2.5,0,0,0,.91.79,3,3,0,0,0,1.35.29,3.12,3.12,0,0,0,1.22-.22,2.86,2.86,0,0,0,1-.76,2.76,2.76,0,0,0,.66-1.28,6.92,6.92,0,0,0,.18-1.66h4a10.64,10.64,0,0,1-.51,3.14A6.42,6.42,0,0,1,593,39.89a8.43,8.43,0,0,1-2.84-.44,5.5,5.5,0,0,1-2.21-1.52,7.9,7.9,0,0,1-1.84-4.34,48.55,48.55,0,0,1-.41-6.79,50.27,50.27,0,0,1,.39-6.81,7.68,7.68,0,0,1,1.81-4.31,5.57,5.57,0,0,1,2.21-1.52,9.07,9.07,0,0,1,5.58,0,5.57,5.57,0,0,1,2.21,1.52,8,8,0,0,1,1.84,4.43,57.59,57.59,0,0,1,.41,7.62Zm6.41-3a35.11,35.11,0,0,0-.19-4.27,4,4,0,0,0-.79-2.15,2.81,2.81,0,0,0-.9-.76,2.89,2.89,0,0,0-1.35-.27,2.71,2.71,0,0,0-1.32.27,2.86,2.86,0,0,0-.88.76,4,4,0,0,0-.79,2.15,35.11,35.11,0,0,0-.19,4.27Z" style="fill:#fff"/><path d="M618.66,40.08a15.3,15.3,0,0,1-.49,4.41,6.73,6.73,0,0,1-1.56,2.7,6,6,0,0,1-2.21,1.44,7.48,7.48,0,0,1-2.79.52,8.86,8.86,0,0,1-2.79-.44,6.22,6.22,0,0,1-2.31-1.38A5.64,5.64,0,0,1,605,44.88a10.27,10.27,0,0,1-.42-3h4a8.78,8.78,0,0,0,.15,1.69,2.73,2.73,0,0,0,.68,1.34,2.92,2.92,0,0,0,2.16.84,2.67,2.67,0,0,0,1.22-.27,3.54,3.54,0,0,0,.93-.66,3.38,3.38,0,0,0,.76-1.65,13.93,13.93,0,0,0,.23-2.81V36.46a9.29,9.29,0,0,1-.67.78,3.75,3.75,0,0,1-.76.64,4.37,4.37,0,0,1-2.64.78,5.19,5.19,0,0,1-4.17-1.86,6.35,6.35,0,0,1-1-1.59,10.13,10.13,0,0,1-.61-2.16,25.91,25.91,0,0,1-.32-2.94c-.06-1.13-.1-2.44-.1-3.94s0-2.81.1-3.92a27,27,0,0,1,.32-2.94,9.84,9.84,0,0,1,.61-2.18,6.23,6.23,0,0,1,1-1.6,5.36,5.36,0,0,1,4.17-1.81,4.68,4.68,0,0,1,2.74.78,5,5,0,0,1,1.42,1.38V14.11h3.87ZM614.7,21a5.19,5.19,0,0,0-.25-1.71,3.07,3.07,0,0,0-.74-1.18,2.77,2.77,0,0,0-2.05-.78,2.55,2.55,0,0,0-2.16,1,2.72,2.72,0,0,0-.54,1,9.08,9.08,0,0,0-.32,1.52,18.89,18.89,0,0,0-.14,2.23c0,.88,0,1.93,0,3.13,0,2.42.06,4.21.17,5.37a4.76,4.76,0,0,0,.86,2.57,3.38,3.38,0,0,0,.93.74,2.6,2.6,0,0,0,1.23.29,2.76,2.76,0,0,0,2.05-.83,3.07,3.07,0,0,0,.74-1.18,5.19,5.19,0,0,0,.25-1.71Z" style="fill:#fff"/><path d="M634,39.49V37.24a5.33,5.33,0,0,1-.68,1,6.63,6.63,0,0,1-.79.74,4.87,4.87,0,0,1-1.27.68,5.26,5.26,0,0,1-1.72.25A5.4,5.4,0,0,1,625.18,38,6.24,6.24,0,0,1,624,35.72a11.81,11.81,0,0,1-.44-3.43,9.12,9.12,0,0,1,.57-3.26,6,6,0,0,1,1.69-2.47A7.15,7.15,0,0,1,628,25.28a9.64,9.64,0,0,1,3.21-.44h2.59v-4q0-3.63-3-3.63a2.47,2.47,0,0,0-1.13.22,3.34,3.34,0,0,0-.83.61,2.81,2.81,0,0,0-.74,1.23,6.32,6.32,0,0,0-.2,1.71h-4a9.84,9.84,0,0,1,.41-2.86,5.86,5.86,0,0,1,1.55-2.53,6.28,6.28,0,0,1,2.13-1.35,7.49,7.49,0,0,1,2.77-.51,6.69,6.69,0,0,1,4.94,1.76,7.49,7.49,0,0,1,1.48,2.31,8.9,8.9,0,0,1,.53,3.28V39.49Zm-.2-11.76h-2.25a5.65,5.65,0,0,0-1.59.2,3.19,3.19,0,0,0-1.25.74,3.69,3.69,0,0,0-.86,1.49,6.32,6.32,0,0,0-.32,2,5.63,5.63,0,0,0,.76,3.14,2.62,2.62,0,0,0,2.33,1.13,2.8,2.8,0,0,0,2.3-1.11,4.42,4.42,0,0,0,.88-2.86Z" style="fill:#fff"/><path d="M656.59,27.73c0,2,.06,3.65.17,4.85a4.91,4.91,0,0,0,.86,2.65,2.55,2.55,0,0,0,.9.79,3,3,0,0,0,1.35.29,3.17,3.17,0,0,0,1.23-.22,3,3,0,0,0,1.69-2,7.5,7.5,0,0,0,.17-1.66h4a10.63,10.63,0,0,1-.52,3.14,6.42,6.42,0,0,1-6.54,4.36,8.47,8.47,0,0,1-2.84-.44,5.47,5.47,0,0,1-2.2-1.52A7.83,7.83,0,0,1,653,33.59a46.91,46.91,0,0,1-.42-6.79A50.27,50.27,0,0,1,653,20a7.68,7.68,0,0,1,1.82-4.31,5.47,5.47,0,0,1,2.2-1.52,9.1,9.1,0,0,1,5.59,0,5.54,5.54,0,0,1,2.2,1.52,8,8,0,0,1,1.84,4.43,55.68,55.68,0,0,1,.42,7.62Zm6.42-3a34.7,34.7,0,0,0-.2-4.27,4.11,4.11,0,0,0-.78-2.15,2.85,2.85,0,0,0-.91-.76,2.89,2.89,0,0,0-1.35-.27,2.76,2.76,0,0,0-1.32.27,2.86,2.86,0,0,0-.88.76,4.11,4.11,0,0,0-.78,2.15,32.79,32.79,0,0,0-.2,4.27Z" style="fill:#fff"/><path d="M682.17,39.49V20.83a3.55,3.55,0,0,0-.88-2.6,2.93,2.93,0,0,0-2.16-.88,2.84,2.84,0,0,0-2.13.88,3.59,3.59,0,0,0-.86,2.6V39.49h-4V14.11H676v2a3.92,3.92,0,0,1,.71-.88,6.48,6.48,0,0,1,.86-.69,5.18,5.18,0,0,1,2.74-.78,5.88,5.88,0,0,1,2.45.47,5.6,5.6,0,0,1,1.87,1.39,5.26,5.26,0,0,1,1.15,2,11.47,11.47,0,0,1,.37,3.24V39.49Z" style="fill:#fff"/><path d="M705,27.73c0,2,.06,3.65.17,4.85a4.91,4.91,0,0,0,.86,2.65,2.5,2.5,0,0,0,.91.79,2.91,2.91,0,0,0,1.34.29,3.17,3.17,0,0,0,1.23-.22,3,3,0,0,0,1-.76,2.85,2.85,0,0,0,.66-1.28,7.5,7.5,0,0,0,.17-1.66h4a10.64,10.64,0,0,1-.51,3.14A6.84,6.84,0,0,1,713.23,38a6.62,6.62,0,0,1-5,1.87,8.51,8.51,0,0,1-2.84-.44,5.54,5.54,0,0,1-2.2-1.52,7.9,7.9,0,0,1-1.84-4.34,46.91,46.91,0,0,1-.42-6.79,48.52,48.52,0,0,1,.4-6.81,7.68,7.68,0,0,1,1.81-4.31,5.54,5.54,0,0,1,2.2-1.52,9.1,9.1,0,0,1,5.59,0,5.47,5.47,0,0,1,2.2,1.52A8,8,0,0,1,715,20.11a55.68,55.68,0,0,1,.42,7.62Zm6.42-3a34.7,34.7,0,0,0-.2-4.27,4.11,4.11,0,0,0-.78-2.15,2.74,2.74,0,0,0-.91-.76,2.87,2.87,0,0,0-1.34-.27,2.78,2.78,0,0,0-1.33.27,3,3,0,0,0-.88.76,4.11,4.11,0,0,0-.78,2.15,34.7,34.7,0,0,0-.2,4.27Z" style="fill:#fff"/><path d="M728.08,39.49a14,14,0,0,1-3-.29,5.62,5.62,0,0,1-2.5-1.27A5.93,5.93,0,0,1,721,35.72a8.51,8.51,0,0,1-.61-3.48V4.61h4V32.09c0,2.55,1.25,3.83,3.77,3.83Z" style="fill:#fff"/><path d="M41.58,88.39A13.17,13.17,0,0,1,41,91.65a6.35,6.35,0,0,1-1.44,2.47,5.56,5.56,0,0,1-2.18,1.35,8.89,8.89,0,0,1-2.82.42,8.07,8.07,0,0,1-3-.54,5.49,5.49,0,0,1-2.35-1.82,8.48,8.48,0,0,1-1.52-4.21,52.54,52.54,0,0,1-.34-6.52,52.33,52.33,0,0,1,.34-6.54,8.48,8.48,0,0,1,1.52-4.19,5.46,5.46,0,0,1,2.35-1.81,8.07,8.07,0,0,1,3-.54,9.34,9.34,0,0,1,2.77.37,5.16,5.16,0,0,1,2.18,1.35,5.6,5.6,0,0,1,1.57,2.62,16.42,16.42,0,0,1,.49,3.11h-4a8.93,8.93,0,0,0-.13-1.55,2.8,2.8,0,0,0-.66-1.39,2.71,2.71,0,0,0-2.2-.93,2.64,2.64,0,0,0-2.26,1.08,5.82,5.82,0,0,0-.83,2.94c-.1,1.34-.15,3.16-.15,5.48s.05,4.1.15,5.44a6.14,6.14,0,0,0,.83,3,2.93,2.93,0,0,0,4.41.15A2.73,2.73,0,0,0,37.46,90a8.47,8.47,0,0,0,.15-1.64Z" style="fill:#fff"/><path d="M55.69,95.49V93.24a5.37,5.37,0,0,1-.69,1,5.9,5.9,0,0,1-.78.74,4.77,4.77,0,0,1-1.28.68,5.15,5.15,0,0,1-1.71.25,5.92,5.92,0,0,1-2.45-.47A5.8,5.8,0,0,1,46.87,94a6.24,6.24,0,0,1-1.18-2.26,11.81,11.81,0,0,1-.44-3.43A9.12,9.12,0,0,1,45.82,85a5.91,5.91,0,0,1,1.69-2.47,7,7,0,0,1,2.18-1.28,9.64,9.64,0,0,1,3.21-.44h2.59v-4c0-2.42-1-3.63-3-3.63a2.46,2.46,0,0,0-1.12.22,3.21,3.21,0,0,0-.84.61,2.79,2.79,0,0,0-.73,1.23,6.32,6.32,0,0,0-.2,1.71h-4a9.85,9.85,0,0,1,.42-2.86,5.94,5.94,0,0,1,1.54-2.53,6.43,6.43,0,0,1,2.14-1.35,7.44,7.44,0,0,1,2.76-.51,6.7,6.7,0,0,1,5,1.76,7.47,7.47,0,0,1,1.47,2.31,8.69,8.69,0,0,1,.54,3.28V95.49Zm-.2-11.76H53.24a5.65,5.65,0,0,0-1.59.2,3.19,3.19,0,0,0-1.25.74,3.69,3.69,0,0,0-.86,1.49,6.32,6.32,0,0,0-.32,2A5.54,5.54,0,0,0,50,91.28a2.62,2.62,0,0,0,2.33,1.13,2.81,2.81,0,0,0,2.3-1.11,4.42,4.42,0,0,0,.88-2.86Z" style="fill:#fff"/><path d="M78.67,88.58a7.3,7.3,0,0,1-.59,3,7.67,7.67,0,0,1-1.57,2.28,5.94,5.94,0,0,1-2.32,1.54,8.51,8.51,0,0,1-2.87.47,8.23,8.23,0,0,1-2.87-.49,6,6,0,0,1-2.23-1.47,7.7,7.7,0,0,1-2.15-5.59H68a4.28,4.28,0,0,0,1.08,3.09,2.84,2.84,0,0,0,1.05.66,3.47,3.47,0,0,0,1.2.22,3.25,3.25,0,0,0,2.4-.93,3.47,3.47,0,0,0,1-2.55,4.08,4.08,0,0,0-.64-2.3,5.06,5.06,0,0,0-.93-1,7.33,7.33,0,0,0-1.32-.84l-3.28-1.66a8.11,8.11,0,0,1-3.48-2.94,6.57,6.57,0,0,1-.79-3.33,7,7,0,0,1,.57-2.92,7.55,7.55,0,0,1,1.54-2.23,6.11,6.11,0,0,1,2.25-1.44,8,8,0,0,1,2.75-.47,6.73,6.73,0,0,1,4.95,1.81,7.37,7.37,0,0,1,2.06,5.59H74.46a6.28,6.28,0,0,0-.22-1.81,3.33,3.33,0,0,0-.72-1.23,2.3,2.3,0,0,0-1-.68,3.28,3.28,0,0,0-1.15-.2,3,3,0,0,0-2.21.83,3.32,3.32,0,0,0-.93,2.45,3.76,3.76,0,0,0,.44,1.86A4.58,4.58,0,0,0,70.78,80L74,81.63a8.16,8.16,0,0,1,3.58,2.89A7.16,7.16,0,0,1,78.67,88.58Z" style="fill:#fff"/><path d="M83.18,65.6V61h4.65v4.6Zm.34,29.89V70.11h4V95.49Z" style="fill:#fff"/><path d="M101.16,95.49a14,14,0,0,1-3-.29,5.62,5.62,0,0,1-2.5-1.27A5.93,5.93,0,0,1,94,91.72a8.51,8.51,0,0,1-.61-3.48V60.61h4V88.09c0,2.55,1.25,3.83,3.77,3.83Z" style="fill:#fff"/><path d="M112.87,95.49a14,14,0,0,1-3-.29,5.62,5.62,0,0,1-2.5-1.27,5.93,5.93,0,0,1-1.64-2.21,8.51,8.51,0,0,1-.61-3.48V60.61h4V88.09c0,2.55,1.25,3.83,3.77,3.83Z" style="fill:#fff"/><path d="M120.22,83.73c0,2,.06,3.65.17,4.85a4.91,4.91,0,0,0,.86,2.65,2.5,2.5,0,0,0,.91.79,2.91,2.91,0,0,0,1.34.29,3.17,3.17,0,0,0,1.23-.22,3,3,0,0,0,1.69-2,7.5,7.5,0,0,0,.17-1.66h4a10.63,10.63,0,0,1-.52,3.14,6.42,6.42,0,0,1-6.54,4.36,8.47,8.47,0,0,1-2.84-.44,5.47,5.47,0,0,1-2.2-1.52,7.9,7.9,0,0,1-1.84-4.34,46.91,46.91,0,0,1-.42-6.79,50.27,50.27,0,0,1,.39-6.81,7.75,7.75,0,0,1,1.82-4.31,5.47,5.47,0,0,1,2.2-1.52,9.1,9.1,0,0,1,5.59,0,5.54,5.54,0,0,1,2.2,1.52,8,8,0,0,1,1.84,4.43,55.68,55.68,0,0,1,.42,7.62Zm6.42-3a34.7,34.7,0,0,0-.2-4.27,4.11,4.11,0,0,0-.78-2.15,2.74,2.74,0,0,0-.91-.76,2.87,2.87,0,0,0-1.34-.27,2.78,2.78,0,0,0-1.33.27,2.86,2.86,0,0,0-.88.76,4.11,4.11,0,0,0-.78,2.15,34.7,34.7,0,0,0-.2,4.27Z" style="fill:#fff"/><path d="M144.38,73.54a4.31,4.31,0,0,0-4.61,4.66V95.49h-4V70.11h3.82v2.7a4.14,4.14,0,0,1,.79-1,7.93,7.93,0,0,1,1-.81,7.11,7.11,0,0,1,4.16-1.27v3.82Z" style="fill:#fff"/><path d="M162.8,82.8a57,57,0,0,1-.32,6.54A8.38,8.38,0,0,1,161,93.53a5.55,5.55,0,0,1-2.33,1.82,8.18,8.18,0,0,1-3.06.54,8,8,0,0,1-3-.54,5.53,5.53,0,0,1-2.3-1.82,8.48,8.48,0,0,1-1.52-4.19,52.11,52.11,0,0,1-.35-6.54,52.11,52.11,0,0,1,.35-6.54,8.48,8.48,0,0,1,1.52-4.19,5.51,5.51,0,0,1,2.3-1.81,8,8,0,0,1,3-.54,8.18,8.18,0,0,1,3.06.54A5.53,5.53,0,0,1,161,72.07a8.38,8.38,0,0,1,1.49,4.19A57,57,0,0,1,162.8,82.8Zm-4,0c0-2.28-.05-4.1-.15-5.44a5.92,5.92,0,0,0-.83-3,2.84,2.84,0,0,0-4.46,0,6.11,6.11,0,0,0-.85,3c-.12,1.34-.18,3.16-.18,5.44s.06,4.1.18,5.44a6.12,6.12,0,0,0,.85,3,2.84,2.84,0,0,0,4.46,0,5.93,5.93,0,0,0,.83-3C158.78,86.9,158.83,85.09,158.83,82.8Z" style="fill:#fff"/><path d="M187.05,95.49V93.24a4.89,4.89,0,0,1-.68,1,5.39,5.39,0,0,1-.79.74,4.71,4.71,0,0,1-1.27.68,5.23,5.23,0,0,1-1.71.25A5.44,5.44,0,0,1,178.23,94a6.23,6.23,0,0,1-1.17-2.26,11.48,11.48,0,0,1-.44-3.43,9.34,9.34,0,0,1,.56-3.26,6.09,6.09,0,0,1,1.69-2.47,7.15,7.15,0,0,1,2.18-1.28,9.64,9.64,0,0,1,3.21-.44h2.6v-4q0-3.63-3-3.63a2.5,2.5,0,0,0-1.13.22,3.34,3.34,0,0,0-.83.61,2.81,2.81,0,0,0-.74,1.23A6.36,6.36,0,0,0,181,77h-4a9.85,9.85,0,0,1,.42-2.86A5.84,5.84,0,0,1,179,71.58a6.38,6.38,0,0,1,2.13-1.35,7.53,7.53,0,0,1,2.77-.51,6.73,6.73,0,0,1,4.95,1.76,7.47,7.47,0,0,1,1.47,2.31,8.69,8.69,0,0,1,.54,3.28V95.49Zm-.19-11.76H184.6a5.65,5.65,0,0,0-1.59.2,3.26,3.26,0,0,0-1.25.74,3.68,3.68,0,0,0-.85,1.49,6,6,0,0,0-.32,2,5.54,5.54,0,0,0,.76,3.14,2.6,2.6,0,0,0,2.32,1.13A2.81,2.81,0,0,0,186,91.3a4.48,4.48,0,0,0,.88-2.86Z" style="fill:#fff"/><path d="M206.26,95.49v-2a3.63,3.63,0,0,1-.68.89,4.52,4.52,0,0,1-.84.68,5.32,5.32,0,0,1-2.74.79A5.25,5.25,0,0,1,197.79,94a7.47,7.47,0,0,1-1.55-4.07,62.94,62.94,0,0,1-.32-7.11,63.62,63.62,0,0,1,.32-7.1,7.52,7.52,0,0,1,1.55-4.12,5.11,5.11,0,0,1,1.78-1.39,5.75,5.75,0,0,1,2.43-.47,5.29,5.29,0,0,1,2.74.74,3.63,3.63,0,0,1,.76.63,9.38,9.38,0,0,1,.67.79V60.61h4V95.49ZM206.17,77a5.19,5.19,0,0,0-.25-1.71,3.07,3.07,0,0,0-.74-1.18,2.77,2.77,0,0,0-2.05-.78,2.55,2.55,0,0,0-2.16,1,2.71,2.71,0,0,0-.54,1,9.51,9.51,0,0,0-.32,1.64,22.61,22.61,0,0,0-.14,2.42c0,1,0,2.08,0,3.38,0,2.62.06,4.55.17,5.81a4.75,4.75,0,0,0,.86,2.67,2.55,2.55,0,0,0,2.16,1,2.77,2.77,0,0,0,2.05-.78,4,4,0,0,0,1-3Z" style="fill:#fff"/><path d="M215.92,65.6V61h4.65v4.6Zm.34,29.89V70.11h4V95.49Z" style="fill:#fff"/><path d="M235.86,95.49v-2a3.46,3.46,0,0,1-.69.89,4.21,4.21,0,0,1-.83.68,5.34,5.34,0,0,1-2.74.79A5.27,5.27,0,0,1,227.38,94a7.46,7.46,0,0,1-1.54-4.07,60.65,60.65,0,0,1-.32-7.11,61.28,61.28,0,0,1,.32-7.1,7.51,7.51,0,0,1,1.54-4.12,5.14,5.14,0,0,1,1.79-1.39,5.75,5.75,0,0,1,2.43-.47,5.29,5.29,0,0,1,2.74.74,3.9,3.9,0,0,1,.76.63c.24.26.46.53.66.79V60.61h4V95.49ZM235.76,77a5.21,5.21,0,0,0-.24-1.71,3.2,3.2,0,0,0-.74-1.18,2.79,2.79,0,0,0-2.06-.78,2.54,2.54,0,0,0-2.15,1,2.71,2.71,0,0,0-.54,1,9.51,9.51,0,0,0-.32,1.64c-.08.67-.13,1.47-.15,2.42s0,2.08,0,3.38c0,2.62.05,4.55.17,5.81a4.67,4.67,0,0,0,.86,2.67,2.54,2.54,0,0,0,2.15,1,2.79,2.79,0,0,0,2.06-.78,4,4,0,0,0,1-3Z" style="fill:#fff"/><path d="M255.07,95.49V93.24a5.37,5.37,0,0,1-.69,1,5.9,5.9,0,0,1-.78.74,4.93,4.93,0,0,1-1.28.68,5.23,5.23,0,0,1-1.71.25,5.88,5.88,0,0,1-2.45-.47A5.7,5.7,0,0,1,246.25,94a6.09,6.09,0,0,1-1.18-2.26,11.81,11.81,0,0,1-.44-3.43,9.34,9.34,0,0,1,.56-3.26,6.09,6.09,0,0,1,1.69-2.47,7.27,7.27,0,0,1,2.18-1.28,9.64,9.64,0,0,1,3.21-.44h2.6v-4q0-3.63-3-3.63a2.5,2.5,0,0,0-1.13.22,3.34,3.34,0,0,0-.83.61,2.79,2.79,0,0,0-.73,1.23A5.94,5.94,0,0,0,249,77h-4a9.85,9.85,0,0,1,.42-2.86A5.84,5.84,0,0,1,247,71.58a6.48,6.48,0,0,1,2.13-1.35,7.53,7.53,0,0,1,2.77-.51,6.73,6.73,0,0,1,4.95,1.76,7.47,7.47,0,0,1,1.47,2.31,8.69,8.69,0,0,1,.54,3.28V95.49Zm-.2-11.76h-2.25a5.67,5.67,0,0,0-1.6.2,3.26,3.26,0,0,0-1.25.74,3.68,3.68,0,0,0-.85,1.49,6,6,0,0,0-.32,2,5.54,5.54,0,0,0,.76,3.14,2.6,2.6,0,0,0,2.32,1.13A2.81,2.81,0,0,0,254,91.3a4.42,4.42,0,0,0,.88-2.86Z" style="fill:#fff"/><path d="M278.05,88.58a7.3,7.3,0,0,1-.59,3,7.86,7.86,0,0,1-1.57,2.28,5.9,5.9,0,0,1-2.33,1.54,8.41,8.41,0,0,1-2.86.47,8.23,8.23,0,0,1-2.87-.49,6,6,0,0,1-2.23-1.47,7.67,7.67,0,0,1-2.16-5.59h3.92a4.28,4.28,0,0,0,1.08,3.09,3,3,0,0,0,1.06.66,3.39,3.39,0,0,0,1.2.22,3.25,3.25,0,0,0,2.4-.93,3.47,3.47,0,0,0,1-2.55,4.08,4.08,0,0,0-.64-2.3,5.06,5.06,0,0,0-.93-1,7.33,7.33,0,0,0-1.32-.84l-3.29-1.66a8.23,8.23,0,0,1-3.48-2.94,6.67,6.67,0,0,1-.78-3.33,7.14,7.14,0,0,1,.56-2.92,7.58,7.58,0,0,1,1.55-2.23A6.11,6.11,0,0,1,268,70.19a8,8,0,0,1,2.75-.47,6.69,6.69,0,0,1,4.94,1.81,7.33,7.33,0,0,1,2.06,5.59h-3.92a5.94,5.94,0,0,0-.22-1.81,3.3,3.3,0,0,0-.71-1.23,2.35,2.35,0,0,0-1-.68,3.28,3.28,0,0,0-1.15-.2,3,3,0,0,0-2.21.83,3.32,3.32,0,0,0-.93,2.45,3.76,3.76,0,0,0,.44,1.86A4.58,4.58,0,0,0,270.16,80l3.23,1.62A8.22,8.22,0,0,1,277,84.52,7.16,7.16,0,0,1,278.05,88.58Z" style="fill:#fff"/><path d="M299.26,99.56a7.37,7.37,0,0,1-1.17,2.77,5.89,5.89,0,0,1-1.86,1.64,7.77,7.77,0,0,1-2.45.81,18.29,18.29,0,0,1-2.94.22v-3.53a6.21,6.21,0,0,0,3-.61,3.42,3.42,0,0,0,1.57-2.33l.79-3.08L290,70.11h4.36l3.87,19.06,3.83-19.06h4.36Z" style="fill:#fff"/><path d="M333.12,96.08a15.3,15.3,0,0,1-.49,4.41,6.75,6.75,0,0,1-1.57,2.7,5.85,5.85,0,0,1-2.2,1.44,7.51,7.51,0,0,1-2.79.52,8.88,8.88,0,0,1-2.8-.44,6.18,6.18,0,0,1-2.3-1.38,5.76,5.76,0,0,1-1.5-2.45,10.62,10.62,0,0,1-.41-3h4a9.7,9.7,0,0,0,.14,1.69,2.74,2.74,0,0,0,.69,1.34,2.91,2.91,0,0,0,2.16.84,2.7,2.7,0,0,0,1.22-.27,3.54,3.54,0,0,0,.93-.66,3.38,3.38,0,0,0,.76-1.65,14,14,0,0,0,.22-2.81V92.46a7.6,7.6,0,0,1-.66.78,4,4,0,0,1-.76.64,4.4,4.4,0,0,1-2.65.78,5.16,5.16,0,0,1-4.16-1.86,6.35,6.35,0,0,1-1-1.59,9.58,9.58,0,0,1-.61-2.16,23.8,23.8,0,0,1-.32-2.94c-.07-1.13-.1-2.44-.1-3.94s0-2.81.1-3.92a24.71,24.71,0,0,1,.32-2.94,9.33,9.33,0,0,1,.61-2.18,6.23,6.23,0,0,1,1-1.6,5.36,5.36,0,0,1,4.16-1.81,4.72,4.72,0,0,1,2.75.78,5.17,5.17,0,0,1,1.42,1.38V70.11h3.87Zm-4-19.11a5.21,5.21,0,0,0-.24-1.71,3.2,3.2,0,0,0-.74-1.18,2.79,2.79,0,0,0-2.06-.78,2.54,2.54,0,0,0-2.15,1,2.72,2.72,0,0,0-.54,1,9.08,9.08,0,0,0-.32,1.52,21,21,0,0,0-.15,2.23c0,.88,0,1.93,0,3.13,0,2.42.06,4.21.17,5.37a4.68,4.68,0,0,0,.86,2.57,3.38,3.38,0,0,0,.93.74,2.59,2.59,0,0,0,1.22.29,2.77,2.77,0,0,0,2.06-.83,3.2,3.2,0,0,0,.74-1.18,5.21,5.21,0,0,0,.24-1.71Z" style="fill:#fff"/><path d="M348.46,95.49V93.24a5.37,5.37,0,0,1-.69,1A5.9,5.9,0,0,1,347,95a4.77,4.77,0,0,1-1.28.68,5.15,5.15,0,0,1-1.71.25,5.92,5.92,0,0,1-2.45-.47A5.8,5.8,0,0,1,339.64,94a6.24,6.24,0,0,1-1.18-2.26,11.81,11.81,0,0,1-.44-3.43,9.34,9.34,0,0,1,.56-3.26,6,6,0,0,1,1.7-2.47,7,7,0,0,1,2.18-1.28,9.64,9.64,0,0,1,3.21-.44h2.59v-4c0-2.42-1-3.63-3-3.63a2.46,2.46,0,0,0-1.12.22,3.21,3.21,0,0,0-.84.61,2.79,2.79,0,0,0-.73,1.23,6.32,6.32,0,0,0-.2,1.71h-4a9.85,9.85,0,0,1,.42-2.86,5.94,5.94,0,0,1,1.54-2.53,6.48,6.48,0,0,1,2.13-1.35,7.53,7.53,0,0,1,2.77-.51,6.7,6.7,0,0,1,5,1.76,7.47,7.47,0,0,1,1.47,2.31,8.69,8.69,0,0,1,.54,3.28V95.49Zm-.2-11.76H346a5.65,5.65,0,0,0-1.59.2,3.12,3.12,0,0,0-1.25.74,3.69,3.69,0,0,0-.86,1.49,6.32,6.32,0,0,0-.32,2,5.54,5.54,0,0,0,.76,3.14,2.62,2.62,0,0,0,2.33,1.13,2.81,2.81,0,0,0,2.3-1.11,4.42,4.42,0,0,0,.88-2.86Z" style="fill:#fff"/><path d="M368.16,95.49V76.83a3.52,3.52,0,0,0-.89-2.6,2.9,2.9,0,0,0-2.15-.88,2.84,2.84,0,0,0-2.13.88,3.59,3.59,0,0,0-.86,2.6V95.49h-4V70.11H362v2a3.92,3.92,0,0,1,.71-.88,6.48,6.48,0,0,1,.86-.69,5.15,5.15,0,0,1,2.74-.78,5.88,5.88,0,0,1,2.45.47,5.6,5.6,0,0,1,1.87,1.39,5.26,5.26,0,0,1,1.15,2,11.53,11.53,0,0,1,.36,3.24V95.49Z" style="fill:#fff"/><path d="M387.27,95.49V93.24a5.37,5.37,0,0,1-.69,1,5.9,5.9,0,0,1-.78.74,4.93,4.93,0,0,1-1.28.68,5.23,5.23,0,0,1-1.71.25,5.88,5.88,0,0,1-2.45-.47A5.7,5.7,0,0,1,378.45,94a6.09,6.09,0,0,1-1.18-2.26,11.81,11.81,0,0,1-.44-3.43,9.34,9.34,0,0,1,.56-3.26,6.09,6.09,0,0,1,1.69-2.47,7.27,7.27,0,0,1,2.18-1.28,9.64,9.64,0,0,1,3.21-.44h2.6v-4q0-3.63-3-3.63a2.5,2.5,0,0,0-1.13.22,3.34,3.34,0,0,0-.83.61,2.79,2.79,0,0,0-.73,1.23,5.94,5.94,0,0,0-.2,1.71h-4a9.85,9.85,0,0,1,.42-2.86,5.84,5.84,0,0,1,1.54-2.53,6.48,6.48,0,0,1,2.13-1.35,7.53,7.53,0,0,1,2.77-.51A6.73,6.73,0,0,1,389,71.48a7.47,7.47,0,0,1,1.47,2.31,8.69,8.69,0,0,1,.54,3.28V95.49Zm-.2-11.76h-2.25a5.67,5.67,0,0,0-1.6.2,3.26,3.26,0,0,0-1.25.74,3.68,3.68,0,0,0-.85,1.49,6,6,0,0,0-.32,2,5.54,5.54,0,0,0,.76,3.14,2.6,2.6,0,0,0,2.32,1.13,2.81,2.81,0,0,0,2.31-1.11,4.42,4.42,0,0,0,.88-2.86Z" style="fill:#fff"/><path d="M406.33,65.6V61H411v4.6Zm.34,29.89V70.11h4V95.49Z" style="fill:#fff"/><path d="M426.76,95.49V76.83a3.51,3.51,0,0,0-.88-2.6,2.93,2.93,0,0,0-2.16-.88,2.84,2.84,0,0,0-2.13.88,3.59,3.59,0,0,0-.86,2.6V95.49h-4V70.11h3.83v2a3.66,3.66,0,0,1,.71-.88,6.45,6.45,0,0,1,.85-.69,5.18,5.18,0,0,1,2.75-.78,6,6,0,0,1,2.45.47,5.67,5.67,0,0,1,1.86,1.39,5.14,5.14,0,0,1,1.15,2,11.12,11.12,0,0,1,.37,3.24V95.49Z" style="fill:#fff"/><path d="M450,88.39a12.74,12.74,0,0,1-.56,3.26A6.25,6.25,0,0,1,448,94.12a5.49,5.49,0,0,1-2.18,1.35,8.78,8.78,0,0,1-2.81.42,8.07,8.07,0,0,1-3-.54,5.43,5.43,0,0,1-2.35-1.82,8.38,8.38,0,0,1-1.52-4.21,52.33,52.33,0,0,1-.35-6.52,52.11,52.11,0,0,1,.35-6.54,8.38,8.38,0,0,1,1.52-4.19A5.41,5.41,0,0,1,440,70.26a8.07,8.07,0,0,1,3-.54,9.27,9.27,0,0,1,2.76.37A5.2,5.2,0,0,1,448,71.44a5.5,5.5,0,0,1,1.56,2.62,15.65,15.65,0,0,1,.49,3.11h-4a10,10,0,0,0-.12-1.55,2.8,2.8,0,0,0-.66-1.39,2.72,2.72,0,0,0-2.2-.93,2.62,2.62,0,0,0-2.26,1.08,5.72,5.72,0,0,0-.83,2.94c-.1,1.34-.15,3.16-.15,5.48s.05,4.1.15,5.44a6,6,0,0,0,.83,3,2.62,2.62,0,0,0,2.26,1.08,2.66,2.66,0,0,0,2.15-.93,2.73,2.73,0,0,0,.69-1.35,8.5,8.5,0,0,0,.14-1.64Z" style="fill:#fff"/><path d="M463.51,73.54a4.6,4.6,0,0,0-3.33,1.23,4.53,4.53,0,0,0-1.28,3.43V95.49h-4V70.11h3.83v2.7a3.86,3.86,0,0,1,.78-1,8.74,8.74,0,0,1,1-.81,7.13,7.13,0,0,1,4.16-1.27v3.82Z" style="fill:#fff"/><path d="M471.5,83.73c0,2,.05,3.65.17,4.85a4.92,4.92,0,0,0,.85,2.65,2.5,2.5,0,0,0,.91.79,3,3,0,0,0,1.35.29,3.12,3.12,0,0,0,1.22-.22,2.86,2.86,0,0,0,1-.76,2.76,2.76,0,0,0,.66-1.28,6.92,6.92,0,0,0,.18-1.66h4a10.64,10.64,0,0,1-.51,3.14,6.42,6.42,0,0,1-6.54,4.36,8.43,8.43,0,0,1-2.84-.44,5.5,5.5,0,0,1-2.21-1.52,7.9,7.9,0,0,1-1.84-4.34,48.55,48.55,0,0,1-.41-6.79,50.27,50.27,0,0,1,.39-6.81,7.68,7.68,0,0,1,1.81-4.31,5.57,5.57,0,0,1,2.21-1.52,9.07,9.07,0,0,1,5.58,0,5.57,5.57,0,0,1,2.21,1.52,8,8,0,0,1,1.84,4.43,57.59,57.59,0,0,1,.41,7.62Zm6.42-3a34.7,34.7,0,0,0-.2-4.27,4,4,0,0,0-.79-2.15,2.81,2.81,0,0,0-.9-.76,2.89,2.89,0,0,0-1.35-.27,2.71,2.71,0,0,0-1.32.27,2.86,2.86,0,0,0-.88.76,4,4,0,0,0-.79,2.15,35.11,35.11,0,0,0-.19,4.27Z" style="fill:#fff"/><path d="M487.08,95.49V70.11h4V95.49Zm3.33-28.71h-3l3.33-6.61h3.63Z" style="fill:#fff"/><path d="M511.38,82.8c0,1.51,0,2.84-.05,4a27.38,27.38,0,0,1-.24,3.11,10.94,10.94,0,0,1-.57,2.35,5.63,5.63,0,0,1-1,1.72,5.62,5.62,0,0,1-5.71,1.71,4.61,4.61,0,0,1-1.25-.59,4.2,4.2,0,0,1-.83-.71,5.29,5.29,0,0,1-.69-.86v2h-3.87V60.61h4V71.88a7.8,7.8,0,0,1,.66-.76,4.76,4.76,0,0,1,3.5-1.4,6,6,0,0,1,2.36.44,5.26,5.26,0,0,1,1.86,1.42,7.15,7.15,0,0,1,1.57,4.07A70,70,0,0,1,511.38,82.8Zm-4,0c0-1.3,0-2.43-.05-3.38s-.08-1.75-.14-2.42a8.83,8.83,0,0,0-.3-1.64,2.71,2.71,0,0,0-.54-1,2.54,2.54,0,0,0-2.15-1,2.79,2.79,0,0,0-2.06.78,3.2,3.2,0,0,0-.74,1.18,5.21,5.21,0,0,0-.24,1.71V88.58a4,4,0,0,0,1,3,2.79,2.79,0,0,0,2.06.78,2.54,2.54,0,0,0,2.15-1,5.1,5.1,0,0,0,.84-2.67C507.3,87.35,507.36,85.42,507.36,82.8Z" style="fill:#fff"/><path d="M524.22,95.49a14,14,0,0,1-3-.29,5.57,5.57,0,0,1-2.5-1.27,5.82,5.82,0,0,1-1.64-2.21,8.51,8.51,0,0,1-.61-3.48V60.61h4V88.09c0,2.55,1.25,3.83,3.77,3.83Z" style="fill:#fff"/><path d="M531.57,83.73c0,2,0,3.65.17,4.85a4.83,4.83,0,0,0,.86,2.65,2.55,2.55,0,0,0,.9.79,3,3,0,0,0,1.35.29,3.17,3.17,0,0,0,1.23-.22,2.92,2.92,0,0,0,1-.76,2.87,2.87,0,0,0,.67-1.28,7.5,7.5,0,0,0,.17-1.66h4a11,11,0,0,1-.52,3.14,6.42,6.42,0,0,1-6.54,4.36,8.47,8.47,0,0,1-2.84-.44,5.57,5.57,0,0,1-2.21-1.52A7.9,7.9,0,0,1,528,89.59a46.91,46.91,0,0,1-.42-6.79,50.27,50.27,0,0,1,.39-6.81,7.75,7.75,0,0,1,1.81-4.31A5.57,5.57,0,0,1,532,70.16a9.1,9.1,0,0,1,5.59,0,5.54,5.54,0,0,1,2.2,1.52,8,8,0,0,1,1.84,4.43,55.92,55.92,0,0,1,.41,7.62Zm6.42-3a34.7,34.7,0,0,0-.2-4.27,4.11,4.11,0,0,0-.78-2.15,2.85,2.85,0,0,0-.91-.76,2.89,2.89,0,0,0-1.35-.27,2.76,2.76,0,0,0-1.32.27,2.86,2.86,0,0,0-.88.76,4.11,4.11,0,0,0-.79,2.15,35.11,35.11,0,0,0-.19,4.27Z" style="fill:#fff"/><path d="M560.43,88.58a7.3,7.3,0,0,1-.59,3,7.67,7.67,0,0,1-1.57,2.28A5.94,5.94,0,0,1,556,95.42a8.51,8.51,0,0,1-2.87.47,8.23,8.23,0,0,1-2.87-.49A6,6,0,0,1,548,93.93a7.7,7.7,0,0,1-2.15-5.59h3.92a4.28,4.28,0,0,0,1.08,3.09,2.84,2.84,0,0,0,1,.66,3.47,3.47,0,0,0,1.2.22,3.25,3.25,0,0,0,2.4-.93,3.47,3.47,0,0,0,1-2.55,4.08,4.08,0,0,0-.64-2.3,5.06,5.06,0,0,0-.93-1,7.33,7.33,0,0,0-1.32-.84l-3.28-1.66a8.11,8.11,0,0,1-3.48-2.94,6.57,6.57,0,0,1-.79-3.33,7,7,0,0,1,.57-2.92,7.55,7.55,0,0,1,1.54-2.23,6.11,6.11,0,0,1,2.25-1.44,8,8,0,0,1,2.75-.47,6.73,6.73,0,0,1,5,1.81,7.37,7.37,0,0,1,2.06,5.59h-3.92a6.28,6.28,0,0,0-.22-1.81,3.33,3.33,0,0,0-.72-1.23,2.3,2.3,0,0,0-1-.68,3.28,3.28,0,0,0-1.15-.2,3,3,0,0,0-2.21.83,3.32,3.32,0,0,0-.93,2.45,3.76,3.76,0,0,0,.44,1.86A4.58,4.58,0,0,0,552.54,80l3.23,1.62a8.16,8.16,0,0,1,3.58,2.89A7.16,7.16,0,0,1,560.43,88.58Z" style="fill:#fff"/><path d="M589.19,82.8a63,63,0,0,1-.32,7.08,7.51,7.51,0,0,1-1.54,4.1,5,5,0,0,1-4.21,1.91,5.24,5.24,0,0,1-2.75-.74A6,6,0,0,1,579,93.73V105h-4V70.11h3.87v2a3.4,3.4,0,0,1,.69-.86,8.21,8.21,0,0,1,.83-.71,5,5,0,0,1,2.75-.78,6,6,0,0,1,2.35.44,5.26,5.26,0,0,1,1.86,1.42,7.51,7.51,0,0,1,1.54,4.12A63.62,63.62,0,0,1,589.19,82.8Zm-4,0c0-1.3,0-2.43,0-3.38S585,77.67,585,77a8.83,8.83,0,0,0-.3-1.64,2.71,2.71,0,0,0-.54-1,2.54,2.54,0,0,0-2.15-1,2.79,2.79,0,0,0-2.06.78,3.05,3.05,0,0,0-.73,1.18A4.94,4.94,0,0,0,579,77V88.58a4,4,0,0,0,1,3,2.79,2.79,0,0,0,2.06.78,2.54,2.54,0,0,0,2.15-1,5.1,5.1,0,0,0,.84-2.67C585.11,87.35,585.17,85.42,585.17,82.8Z" style="fill:#fff"/><path d="M603.06,73.54a4.6,4.6,0,0,0-3.33,1.23,4.53,4.53,0,0,0-1.28,3.43V95.49h-4V70.11h3.83v2.7a3.86,3.86,0,0,1,.78-1,8.74,8.74,0,0,1,1-.81,7.13,7.13,0,0,1,4.16-1.27v3.82Z" style="fill:#fff"/><path d="M611,83.73c0,2,.06,3.65.18,4.85a4.92,4.92,0,0,0,.85,2.65A2.5,2.5,0,0,0,613,92a3,3,0,0,0,1.35.29,3.16,3.16,0,0,0,1.22-.22,3,3,0,0,0,1-.76,2.76,2.76,0,0,0,.66-1.28,7,7,0,0,0,.17-1.66h4a10.64,10.64,0,0,1-.51,3.14A6.81,6.81,0,0,1,619.33,94a6.64,6.64,0,0,1-5,1.87,8.43,8.43,0,0,1-2.84-.44,5.5,5.5,0,0,1-2.21-1.52,7.9,7.9,0,0,1-1.84-4.34A48.55,48.55,0,0,1,607,82.8a50.27,50.27,0,0,1,.39-6.81,7.68,7.68,0,0,1,1.81-4.31,5.5,5.5,0,0,1,2.21-1.52,9.07,9.07,0,0,1,5.58,0,5.57,5.57,0,0,1,2.21,1.52,8,8,0,0,1,1.83,4.43,55.68,55.68,0,0,1,.42,7.62Zm6.42-3a35.11,35.11,0,0,0-.19-4.27,4,4,0,0,0-.79-2.15,2.81,2.81,0,0,0-.9-.76,3,3,0,0,0-1.35-.27,2.71,2.71,0,0,0-1.32.27,3,3,0,0,0-.89.76,4.11,4.11,0,0,0-.78,2.15,34.7,34.7,0,0,0-.2,4.27Z" style="fill:#fff"/><path d="M646.57,95.49V76.83a3.59,3.59,0,0,0-.86-2.6,3,3,0,0,0-4.26,0,3.59,3.59,0,0,0-.86,2.6V95.49h-4V76.83a3.51,3.51,0,0,0-.88-2.6,2.93,2.93,0,0,0-2.16-.88,2.85,2.85,0,0,0-2.13.88,3.59,3.59,0,0,0-.85,2.6V95.49h-4V70.11h3.82v2a3.66,3.66,0,0,1,.71-.88,5.89,5.89,0,0,1,.86-.69,5.15,5.15,0,0,1,2.74-.78,5.45,5.45,0,0,1,2.77.74,6,6,0,0,1,2.08,1.91,6.37,6.37,0,0,1,.93-1,7.91,7.91,0,0,1,1.08-.84,4.34,4.34,0,0,1,1.4-.58,6.38,6.38,0,0,1,1.49-.2,6.64,6.64,0,0,1,2.7.47,5.67,5.67,0,0,1,1.86,1.39,5,5,0,0,1,1.13,2,12.46,12.46,0,0,1,.34,3.24V95.49Z" style="fill:#fff"/><path d="M656.17,65.6V61h4.66v4.6Zm.35,29.89V70.11h4V95.49Z" style="fill:#fff"/><path d="M680.23,82.8a54.81,54.81,0,0,1-.32,6.54,8.38,8.38,0,0,1-1.49,4.19,5.49,5.49,0,0,1-2.33,1.82,8.18,8.18,0,0,1-3.06.54,8,8,0,0,1-3-.54,5.53,5.53,0,0,1-2.3-1.82,8.48,8.48,0,0,1-1.52-4.19,52.33,52.33,0,0,1-.34-6.54,52.33,52.33,0,0,1,.34-6.54,8.48,8.48,0,0,1,1.52-4.19,5.51,5.51,0,0,1,2.3-1.81,8,8,0,0,1,3-.54,8.18,8.18,0,0,1,3.06.54,5.47,5.47,0,0,1,2.33,1.81,8.38,8.38,0,0,1,1.49,4.19A54.81,54.81,0,0,1,680.23,82.8Zm-4,0c0-2.28,0-4.1-.14-5.44a6,6,0,0,0-.84-3,2.84,2.84,0,0,0-4.46,0,6.22,6.22,0,0,0-.85,3c-.12,1.34-.18,3.16-.18,5.44s.06,4.1.18,5.44a6.23,6.23,0,0,0,.85,3,2.84,2.84,0,0,0,4.46,0,6,6,0,0,0,.84-3C676.21,86.9,676.26,85.09,676.26,82.8Z" style="fill:#fff"/><path d="M698.85,88.58a7.14,7.14,0,0,1-.59,3,7.83,7.83,0,0,1-1.56,2.28,6,6,0,0,1-2.33,1.54,8.47,8.47,0,0,1-2.87.47,8.27,8.27,0,0,1-2.87-.49,6,6,0,0,1-2.22-1.47,7.67,7.67,0,0,1-2.16-5.59h3.92a4.28,4.28,0,0,0,1.08,3.09,2.84,2.84,0,0,0,1,.66,3.47,3.47,0,0,0,1.2.22,3.25,3.25,0,0,0,2.4-.93,3.43,3.43,0,0,0,1-2.55,4.15,4.15,0,0,0-.63-2.3,5.44,5.44,0,0,0-.94-1,7.33,7.33,0,0,0-1.32-.84l-3.28-1.66a8.17,8.17,0,0,1-3.48-2.94,6.67,6.67,0,0,1-.78-3.33,7,7,0,0,1,.56-2.92,7.55,7.55,0,0,1,1.54-2.23,6.23,6.23,0,0,1,2.26-1.44,7.92,7.92,0,0,1,2.74-.47,6.73,6.73,0,0,1,5,1.81,7.37,7.37,0,0,1,2.06,5.59h-3.92a6.28,6.28,0,0,0-.22-1.81,3.45,3.45,0,0,0-.71-1.23,2.38,2.38,0,0,0-1-.68,3.24,3.24,0,0,0-1.15-.2,3,3,0,0,0-2.2.83,3.29,3.29,0,0,0-.94,2.45,3.66,3.66,0,0,0,.45,1.86A4.55,4.55,0,0,0,691,80l3.24,1.62a8.18,8.18,0,0,1,3.57,2.89A7.16,7.16,0,0,1,698.85,88.58Z" style="fill:#fff"/></g></g></svg>