<svg xmlns="http://www.w3.org/2000/svg" viewBox="0 0 285 285"><title>adidas-kids</title><g id="Capa_2" data-name="Capa 2"><g id="Modo_de_aislamiento" data-name="Modo de aislamiento"><circle cx="142.5" cy="142.5" r="142.5" style="fill:#5e4c93"/><path d="M39.94,160.25S37,164.3,30.38,164.3a13.7,13.7,0,0,1,0-27.39,12.54,12.54,0,0,1,9.56,4v-3.58h4.58v26.6H39.94Zm-18.55-9.62a9.33,9.33,0,1,0,18.66,0,9.31,9.31,0,0,0-9.41-9.41A9.2,9.2,0,0,0,21.39,150.63Z" style="fill:#fff"/><path d="M47.57,150.63a13.58,13.58,0,0,1,13.51-13.72,12.36,12.36,0,0,1,9.56,4v-13h4.58v36H70.64v-3.63s-3,4.05-9.56,4.05A13.53,13.53,0,0,1,47.57,150.63Zm4.52,0a9.33,9.33,0,1,0,18.66,0,9.31,9.31,0,0,0-9.41-9.41A9.2,9.2,0,0,0,52.09,150.63Z" style="fill:#fff"/><path d="M78.9,132.5v-4.63h4.62v4.63Zm0,31.38v-26.6h4.62v26.6Z" style="fill:#fff"/><path d="M86.57,150.63a13.59,13.59,0,0,1,13.51-13.72,12.39,12.39,0,0,1,9.57,4v-13h4.57v36h-4.57v-3.63s-3.05,4.05-9.57,4.05A13.54,13.54,0,0,1,86.57,150.63Zm4.52,0a9.33,9.33,0,1,0,18.66,0,9.31,9.31,0,0,0-9.41-9.41A9.21,9.21,0,0,0,91.09,150.63Z" style="fill:#fff"/><path d="M140.34,160.25s-2.94,4.05-9.56,4.05a13.7,13.7,0,0,1,0-27.39,12.54,12.54,0,0,1,9.56,4v-3.58h4.58v26.6h-4.58Zm-18.55-9.62a9.33,9.33,0,1,0,18.66,0,9.31,9.31,0,0,0-9.41-9.41A9.2,9.2,0,0,0,121.79,150.63Z" style="fill:#fff"/><path d="M152.85,155.63c.27,2.68,2.27,4.94,6.89,5,3.94,0,5.89-1.73,5.89-4,0-6.57-16.77-.95-16.77-11.73,0-4.57,3.94-7.93,10.09-7.93,6.31,0,10.31,3.31,10.67,8.3H165c-.16-2.1-1.42-4.52-5.84-4.52-3.31,0-5.52,1.26-5.52,3.63,0,6.46,17,1.21,17,11.56,0,5.47-4.57,8.41-11,8.41-6.78,0-11-3.36-11.46-8.72Z" style="fill:#fff"/><path d="M185.08,127.93h2.52v22.34L199,138.49h3.37l-8.83,9.1,10.83,16.29h-2.9l-9.67-14.51-4.15,4.31v10.2h-2.52Z" style="fill:#fff"/><path d="M207,130.29h2.52V133H207Zm0,7.94h2.52v25.65H207Z" style="fill:#fff"/><path d="M212.88,151A13.32,13.32,0,0,1,237,143.17V127.93h2.52v35.95H237v-5A13.32,13.32,0,0,1,212.88,151ZM237,151a10.78,10.78,0,1,0-10.78,10.88A10.82,10.82,0,0,0,237,151Z" style="fill:#fff"/><path d="M243,155.94h2.52c.21,3.95,3.53,5.94,8.15,5.94,4.78,0,7.26-2.36,7.26-4.89,0-2.68-1.69-4.31-8.1-5.2-4.05-.58-8.94-1.79-8.94-7,0-4.21,3.58-7.1,9.1-7.1,5.73,0,9.56,3.05,9.56,7.62H260c0-2.57-2.1-5.2-6.88-5.2-4.1,0-6.73,1.89-6.73,4.47,0,3,3.26,4.31,7.41,4.78,6.15.79,9.62,2.68,9.62,7.36,0,6.2-5.94,7.57-10.2,7.57C247.31,164.3,243.42,161.62,243,155.94Z" style="fill:#fff"/></g></g></svg>