<svg xmlns="http://www.w3.org/2000/svg" viewBox="0 0 285 285"><title>adidas-triangulo</title><g id="Capa_2" data-name="Capa 2"><g id="Modo_de_aislamiento" data-name="Modo de aislamiento"><circle cx="142.5" cy="142.5" r="142.5"/><path d="M224.54,199.37c-9.58,0-15.26-4.91-15.61-11.84h9c0,2.15,1.37,5.35,7.17,5.45,3.87,0,5.71-2.28,5.71-4-.25-2.72-3.66-3-7.31-3.54a31.54,31.54,0,0,1-9-2.38,9.32,9.32,0,0,1-4.8-8.31c0-6.13,5.37-11.05,14.25-11.05,8.65,0,14.11,4.57,14.68,11.28H230c-.12-1.82-.46-4.66-5.58-4.66-3.42,0-5.68.68-5.91,3.07,0,3.52,7.16,3.3,12.74,4.77,5.35,1.36,8.76,4.68,8.76,9.35,0,8.53-6.94,11.84-15.46,11.84" style="fill:#fff"/><polygon points="59.25 142.23 89.18 125.03 105 152.35 65.06 152.35 59.25 142.23" style="fill:#fff"/><rect x="117.75" y="164.06" width="8.54" height="34.49" style="fill:#fff"/><path d="M55.26,199.37A18,18,0,0,1,37.4,181.48,18,18,0,0,1,65.51,166.8v-2.74h8.42v34.5H65.51v-2.28a18.2,18.2,0,0,1-10.25,3.09m-9.67-17.89a10,10,0,0,0,19.92,0,10,10,0,0,0-19.92,0" style="fill:#fff"/><polygon points="170.22 152.35 128.57 80.07 158.51 62.77 210.3 152.35 170.22 152.35" style="fill:#fff"/><path d="M94.87,199.37a18,18,0,0,1-18-17.89,17.82,17.82,0,0,1,18-17.76A17.42,17.42,0,0,1,105,166.8V152.35h8.54v46.21H105v-2.28a18.34,18.34,0,0,1-10.13,3.09m-9.79-17.89a10,10,0,1,0,10-9.9,10.07,10.07,0,0,0-10,9.9" style="fill:#fff"/><polygon points="94.19 111.48 124.25 94.3 157.82 152.35 126.29 152.35 126.29 160.9 117.75 160.9 117.75 152.35 94.19 111.48" style="fill:#fff"/><path d="M187,199.37a18,18,0,0,1-17.86-17.89A17.8,17.8,0,0,1,187,163.72a17.15,17.15,0,0,1,10.12,3.08v-2.74h8.55v34.5h-8.55v-2.28A17.77,17.77,0,0,1,187,199.37m-9.57-17.89a10,10,0,0,0,9.92,9.78,9.83,9.83,0,0,0,9.77-9.78,9.94,9.94,0,0,0-9.77-9.9,10.07,10.07,0,0,0-9.92,9.9" style="fill:#fff"/><path d="M157.82,152.35h8.43v46.21h-8.43v-2.28a18,18,0,0,1-28.12-14.8,17.81,17.81,0,0,1,17.87-17.76,17.5,17.5,0,0,1,10.25,3.08ZM138,181.48a9.91,9.91,0,0,0,19.81,0,9.91,9.91,0,0,0-19.81,0" style="fill:#fff"/></g></g></svg>