<svg xmlns="http://www.w3.org/2000/svg" viewBox="0 0 285 285"><title>adidas-flor</title><g id="Capa_2" data-name="Capa 2"><g id="Modo_de_aislamiento" data-name="Modo de aislamiento"><circle cx="142.5" cy="142.5" r="142.5" style="fill:#0081ff"/><path d="M71.18,224.81a15.42,15.42,0,0,1,0-30.83,15.92,15.92,0,0,1,9,2.62v-2.27h7.27v29.78H80.19v-1.9a17.13,17.13,0,0,1-9,2.6m-8.31-15.42a8.73,8.73,0,0,0,8.48,8.49,8.58,8.58,0,1,0-8.48-8.49m42.59,15.42a15.42,15.42,0,1,1,0-30.83,15.37,15.37,0,0,1,8.84,2.62V184.11h7.44v40H114.3v-1.9a17,17,0,0,1-8.84,2.6M97,209.39a8.66,8.66,0,1,0,8.84-8.66A8.8,8.8,0,0,0,97,209.39m35.67,14.72h-7.28V194.33h7.28Zm-7.28-40h7.28v7.45h-7.28Zm34.65,0h7.27v40H160v-1.9a16.56,16.56,0,0,1-8.84,2.6A15.42,15.42,0,1,1,160,196.6Zm-17.15,25.28a8.58,8.58,0,1,0,8.49-8.66,8.73,8.73,0,0,0-8.49,8.66m42.42,15.42a15.42,15.42,0,1,1,0-30.83A14.45,14.45,0,0,1,194,196.6v-2.27h7.45v29.78H194v-1.9a15.94,15.94,0,0,1-8.67,2.6M177,209.39a8.78,8.78,0,0,0,8.68,8.49,8.58,8.58,0,0,0,0-17.15,8.82,8.82,0,0,0-8.68,8.66m40.74,15.42c7.27,0,13.34-2.95,13.34-10.24,0-4.14-3-6.91-7.63-8.12-4.85-1.22-11.08-1-11.08-4.15.34-2.08,2.25-2.62,5.2-2.62,4.51,0,4.68,2.44,4.85,4h7.44c-.51-5.69-5.19-9.68-12.64-9.68-7.8,0-12.3,4.16-12.3,9.53a8.09,8.09,0,0,0,4.16,7.27,31.27,31.27,0,0,0,7.62,2.07c3.28.35,6.24.69,6.42,3,0,1.56-1.57,3.47-5.05,3.47-5,0-6-2.78-6-4.7h-7.78c.17,6.08,5.18,10.24,13.5,10.24m-51.64-97.67c.36-4,.7-7.79.7-12.3,0-24.23-10.91-49.35-22.87-60.61-12.12,11.26-22.84,36.38-22.84,60.61a71.55,71.55,0,0,0,.68,12.3Zm-48.31,0a73.46,73.46,0,0,0-7.09-9.53C95.77,100.14,72.74,89.39,57,88.35c-1,11.25,2.43,24.94,9.35,38.79ZM143.9,176a69,69,0,0,0,10.91-15.58h-22c3.63,6.58,7.11,11.77,11.07,15.58m-12.28-1a89.17,89.17,0,0,0-.53-14.54H95.77c12.47,9.17,26,13.84,35.85,14.54M231,88.35c-15.93,1-38.79,11.79-53.67,29.26a59.54,59.54,0,0,0-7.11,9.53h51.26c6.91-13.85,10.56-27.54,9.52-38.79m-39.13,72h-35a77.8,77.8,0,0,0-1,14.54c10.21-.7,23.73-5.37,36-14.54m15.76-12.81H80a36.93,36.93,0,0,0,6.58,6.22h114a22.76,22.76,0,0,0,7.1-6.22M218,133.72a29.74,29.74,0,0,1-4.68,6.74H74.3a44.45,44.45,0,0,1-4.5-6.74Z" style="fill:#fff"/></g></g></svg>