<svg xmlns="http://www.w3.org/2000/svg" viewBox="0 0 285 285"><title>basket</title><g id="Capa_2" data-name="Capa 2"><g id="Modo_de_aislamiento" data-name="Modo de aislamiento"><circle cx="142.5" cy="142.5" r="142.5" style="fill:#ff7034"/><path d="M214.7,157a4,4,0,0,0-3,3.9v17.6a3.25,3.25,0,0,1-1.1,2.5l-32.3,32.3-5.1-5.1,15.4-15.4-1.1-1.1a6.2,6.2,0,0,0-8.8-.5c-.2.1-.3.3-.5.5l-21.8,18.2a14.35,14.35,0,0,0-5.9,11.6v35.9h25.1v-18a3.65,3.65,0,0,1,1.5-2.9l24.4-17.4,17.2-34.4V160.4a3.59,3.59,0,0,0-3.6-3.6C215.2,156.9,214.9,157,214.7,157Z"/><path d="M113.6,181.4c23.9-29.2,30.3-57.7,30.1-80.3a129.88,129.88,0,0,0-18.7.6c-3.8,16.1-17.8,34.9-41.7,56.2A64.6,64.6,0,0,0,113.6,181.4Z"/><path d="M192.4,153.1c-16.3-18-24.8-34.4-25.6-48.9a109.11,109.11,0,0,0-16-2.7c.1,23.3-6.4,52.4-29.9,82.1A63.93,63.93,0,0,0,192.4,153.1Z"/><path d="M79.4,151.6c23.8-21.4,34.2-37.3,37.8-49A170.23,170.23,0,0,0,72,115.9c-.1,1.7-.3,3.3-.3,5.1A65.21,65.21,0,0,0,79.4,151.6Z"/><path d="M118.8,95.2a22.84,22.84,0,0,0-.5-7.8c-2.7-11.3-13.5-17-19-19.2a64.66,64.66,0,0,0-26.1,39.4A184.47,184.47,0,0,1,118.8,95.2Z"/><path d="M174.3,97.1a11,11,0,0,0-.2,1.8A110.91,110.91,0,0,1,200,110.3a63.9,63.9,0,0,0-14.4-30.9A27.55,27.55,0,0,0,174.3,97.1Z"/><path d="M201,121c0-.6-.1-1.1-.1-1.7a101.68,101.68,0,0,0-26.7-13c1.4,11.7,8.8,25.2,21.7,40A64.61,64.61,0,0,0,201,121Z"/><path d="M150.6,94.4A113.38,113.38,0,0,1,167.1,97c.1-.4.1-.9.2-1.3a35.08,35.08,0,0,1,13.3-21.6,64.2,64.2,0,0,0-38.5-17.4A122.19,122.19,0,0,1,150.6,94.4Z"/><path d="M126,94.5a144.48,144.48,0,0,1,17.4-.5,111,111,0,0,0-9.2-37.5,65.06,65.06,0,0,0-27.6,7.2,34.65,34.65,0,0,1,18.7,22.1A31.68,31.68,0,0,1,126,94.5Z"/><path d="M71.1,165.7l-5.9,4.1a86.22,86.22,0,0,0,71.2,37.5v-7.2A79.57,79.57,0,0,1,71.1,165.7Z"/><path d="M181.2,49.7l-3.6,6.2A73.22,73.22,0,0,1,215.3,121h7.2A80,80,0,0,0,181.2,49.7Z"/><rect x="59.14" y="156.49" width="7.2" height="8" transform="translate(-65.15 45) rotate(-26.57)"/></g></g></svg>