<svg xmlns="http://www.w3.org/2000/svg" viewBox="0 0 285 285"><title>calcetin</title><g id="Capa_2" data-name="Capa 2"><g id="Modo_de_aislamiento" data-name="Modo de aislamiento"><circle cx="142.5" cy="142.5" r="142.5" style="fill:#f2ff5c"/><path d="M179.54,80.64h33v41.29C203,126,195.19,134,190.12,143.23c-7.29,13.26-9.29,29.92-3.65,43.64l-20.69,18.45A31.07,31.07,0,0,1,136.51,212a40,40,0,0,0,2-30.41c-.19-.54-.4-1.08-.62-1.61l30.51-27.23a33.66,33.66,0,0,0,11.12-24.71C179.57,119.85,179.54,80.64,179.54,80.64ZM135.19,182.42a36.47,36.47,0,0,1,.46,22.81,32.1,32.1,0,0,1-2.38,5.66,30.76,30.76,0,0,1-11.38-8.07h0a31.54,31.54,0,0,1-5.78-9.38,35,35,0,0,0,15.44-7.77Zm41-124V99.67c-9.55,4.06-17.38,12.09-22.42,21.3-7.31,13.26-9.28,29.91-3.67,43.64l-20.69,18.45a31.06,31.06,0,0,1-29.27,6.69,40,40,0,0,0,2-30.41,39.44,39.44,0,0,0-16.46-20.4c.73-.79,1.51-1.55,2.32-2.28,0,0,8.66-7.74,16-14.27a29.84,29.84,0,0,0,10-22.31V58.38ZM83.58,141.52a35.84,35.84,0,0,1,10.52,9.59A36.46,36.46,0,0,1,99.28,183a34.85,34.85,0,0,1-2.37,5.66,31.05,31.05,0,0,1-11.42-8.08h0A31.11,31.11,0,0,1,83.58,141.52Zm129-15.8V150.2a29.87,29.87,0,0,1-10,22.31l-13.43,12a46,46,0,0,1-1.62-24.28C190.28,145.94,199.53,131.93,212.56,125.72Zm-36.39-22.26v24.48a29.88,29.88,0,0,1-10,22.31l-13.47,12A45.86,45.86,0,0,1,151.13,138C153.88,123.68,163.16,109.67,176.17,103.46Zm36.39-26.19h-33V69.82h33ZM176.17,55H114V47.56h62.19Z" style="fill-rule:evenodd"/><path d="M128.12,100.17a3.15,3.15,0,0,1,0-6.29,3.26,3.26,0,0,1,1.84.54V94h1.49V100H130v-.39a3.48,3.48,0,0,1-1.84.53M126.43,97A1.77,1.77,0,0,0,130,97a1.77,1.77,0,1,0-3.53,0m8.69,3.14a3.15,3.15,0,1,1,0-6.29,3.13,3.13,0,0,1,1.8.54V91.87h1.52V100h-1.52v-.39a3.45,3.45,0,0,1-1.8.53M133.39,97a1.77,1.77,0,1,0,1.8-1.77,1.79,1.79,0,0,0-1.8,1.77m7.28,3h-1.49V94h1.49Zm-1.49-8.16h1.49v1.52h-1.49Zm7.07,0h1.48V100h-1.48v-.39a3.34,3.34,0,0,1-1.8.53,3.15,3.15,0,1,1,1.8-5.75ZM142.75,97a1.75,1.75,0,1,0,1.73-1.77A1.78,1.78,0,0,0,142.75,97m8.66,3.14a3.15,3.15,0,1,1,0-6.29,3,3,0,0,1,1.77.54V94h1.51V100h-1.51v-.39a3.27,3.27,0,0,1-1.77.53M149.71,97a1.79,1.79,0,0,0,1.77,1.73,1.75,1.75,0,0,0,0-3.5A1.79,1.79,0,0,0,149.71,97m8.31,3.14c1.48,0,2.72-.6,2.72-2.09,0-.84-.6-1.41-1.55-1.65s-2.27-.21-2.27-.85c.07-.43.46-.53,1.07-.53.92,0,.95.49,1,.81h1.51a2.3,2.3,0,0,0-2.58-2c-1.59,0-2.5.85-2.5,2a1.64,1.64,0,0,0,.84,1.48,6.08,6.08,0,0,0,1.56.42c.67.07,1.27.14,1.31.6s-.32.71-1,.71c-1,0-1.24-.56-1.24-1h-1.58c0,1.24,1,2.09,2.75,2.09M147.49,80.24c.07-.81.14-1.59.14-2.51,0-4.94-2.23-10.06-4.67-12.36-2.47,2.3-4.66,7.42-4.66,12.36a14.45,14.45,0,0,0,.14,2.51Zm-9.86,0a15,15,0,0,0-1.45-1.94c-3-3.57-7.74-5.76-11-6a15.25,15.25,0,0,0,1.9,7.91Zm5.33,10A14.49,14.49,0,0,0,145.19,87H140.7A13.29,13.29,0,0,0,143,90.21m-2.5-.21a18.64,18.64,0,0,0-.11-3h-7.21a15,15,0,0,0,7.32,3m20.27-17.67c-3.25.21-7.91,2.4-10.95,6a12.71,12.71,0,0,0-1.45,1.94h10.46a15.33,15.33,0,0,0,1.94-7.91m-8,14.7h-7.14a15.89,15.89,0,0,0-.21,3,14.71,14.71,0,0,0,7.35-3M156,84.41h-26a6.89,6.89,0,0,0,1.34,1.27h23.25A4.56,4.56,0,0,0,156,84.41m2.12-2.82a6.39,6.39,0,0,1-1,1.37H128.76a9,9,0,0,1-.92-1.37Z" style="fill:#f2ff5c"/></g></g></svg>