<svg xmlns="http://www.w3.org/2000/svg" viewBox="0 0 285 285"><title>futbol</title><g id="Capa_2" data-name="Capa 2"><g id="Modo_de_aislamiento" data-name="Modo de aislamiento"><circle cx="142.5" cy="142.5" r="142.5" style="fill:#00afa2"/><path d="M142.5,61.9a80.6,80.6,0,1,0,80.6,80.6A80.75,80.75,0,0,0,142.5,61.9Zm62.4,39.7-1.1,8.5-29.2,8.3-19.4-13.3-5.4-30.2,11.3-4.6A75.26,75.26,0,0,1,204.9,101.6ZM178,197.1c-7.9,3.7-18.2,6.1-28.9,6.9a52.73,52.73,0,0,1-18.1-2.3l-8.5-11.1L143.3,156H172l15.3,28.1ZM92,105.7c1.7-4,5.8-12.4,12.2-18.4a68.3,68.3,0,0,1,21.2-13.5L143.8,76l5.2,29.2-19.4,17.6L92,119.4Zm-2.3,19.5,38.5,3.5,10.5,23.2-21.3,35.6-23-5.8a177.14,177.14,0,0,1-9.8-19.5c-2.7-6.8-4.7-17-5.6-22.6Zm18.6-48.9a67.09,67.09,0,0,0-8.1,6.6,58.74,58.74,0,0,0-12.6,18.2l-7.7,1.2A74,74,0,0,1,108.3,76.3ZM67.9,142.5c0-2.2.1-4.3.3-6.5l4.7,3.7c.9,5.5,3,17,6.1,24.7A197.11,197.11,0,0,0,89.4,185l-1.3,8.3A73.86,73.86,0,0,1,67.9,142.5Zm48.7,69.9,13.9-4.6a61.46,61.46,0,0,0,15.8,2.2c1.1,0,2.1,0,3.2-.1a99,99,0,0,0,26-5.4l1.7,4a73.58,73.58,0,0,1-34.6,8.6A74.5,74.5,0,0,1,116.6,212.4Zm94.8-41.2-19.7,8.6L175.4,150l4.4-26.8,24.2-6.8,10.2,17.2,2.4,1.1a70.26,70.26,0,0,1,.4,8A70.38,70.38,0,0,1,211.4,171.2Z"/></g></g></svg>