<svg xmlns="http://www.w3.org/2000/svg" viewBox="0 0 285 285"><title>gorro</title><g id="Capa_2" data-name="Capa 2"><g id="Modo_de_aislamiento" data-name="Modo de aislamiento"><circle cx="142.5" cy="142.5" r="142.5" style="fill:#00c1e3"/><path d="M217.27,99.76c-7-10.26-19.65-19.86-35.78-25a2.9,2.9,0,0,1-2-2.24A10.62,10.62,0,0,0,160,69.23a2.91,2.91,0,0,1-2.6,1.47c-38.93-1.2-66.38,23.84-70,66.74a4.26,4.26,0,0,1-1,2.4c-4.85,5.7-28.17,33.16-29,34.46-2.93,4.52-3.2,11.67,2.21,15.56A14.24,14.24,0,0,0,68,192.77c8.34,0,16.13-7.66,22-13.63a2.81,2.81,0,0,1,2.79-.75c20.65,6,35.6,22.3,45.29,27.4A19.91,19.91,0,0,0,151,207.67c17.44-2.87,35.92-24.07,42.77-32.65a8.89,8.89,0,0,1,7.33-3.31c3.59.15,7.48.17,11.1.14a16.53,16.53,0,0,0,16.16-14.28C231.42,135.94,230,118.29,217.27,99.76ZM68,188.51a10.1,10.1,0,0,1-6-2.11,6.32,6.32,0,0,1-2.6-4.4,7.49,7.49,0,0,1,0-1.77c6.71-4.15,15.66-5.45,26.84-3.38C81.07,182.15,74.35,188.51,68,188.51ZM188.56,169a2.19,2.19,0,0,1-2.86,1.2h0A248.54,248.54,0,0,1,159.1,156.5c-12-6.79-23.25-13.2-37.59-16.56a67.41,67.41,0,0,0-28.14-.51,2.13,2.13,0,0,1-2.51-1.68c0-.12,0-.24,0-.36a2.2,2.2,0,0,1,1.82-2.16,71.68,71.68,0,0,1,29.85.56c14.92,3.5,26.48,10.06,38.71,17,7,4,21.22,10.92,26.28,13.38a2.17,2.17,0,0,1,1.07,2.79Z"/></g></g></svg>