<svg xmlns="http://www.w3.org/2000/svg" viewBox="0 0 285 285"><title>mochila</title><g id="Capa_2" data-name="Capa 2"><g id="Modo_de_aislamiento" data-name="Modo de aislamiento"><circle cx="142.5" cy="142.5" r="142.5" style="fill:#bc73ff"/><path d="M174.86,158.05a2.35,2.35,0,0,0-2.34,2.35,2.33,2.33,0,0,0,4.66,0A2.34,2.34,0,0,0,174.86,158.05Z"/><path d="M190.31,140.2a2.33,2.33,0,1,0-2.34-2.32A2.34,2.34,0,0,0,190.31,140.2Z"/><path d="M205.5,142.19a94,94,0,0,0-8.08-34.47c-5.32-11.5-15-24.54-32.48-30.79a22.8,22.8,0,0,0,.19-2.48,23.43,23.43,0,1,0-46.85,0,20.74,20.74,0,0,0,.25,3c-17,6.49-26.68,19.34-32.07,30.63a94.52,94.52,0,0,0-8.55,34.15l-3.06,50.27A26.89,26.89,0,0,0,101.73,221h79.93a26.89,26.89,0,0,0,26.9-28.54ZM123.29,74.46a18.42,18.42,0,1,1,36.83,0c0,.33-.05.64-.07,1a70.35,70.35,0,0,0-18-2.23h-.36a70.25,70.25,0,0,0-18.31,2.62C123.37,75.35,123.29,74.91,123.29,74.46ZM91.36,129c3.86-15.59,15.52-41.89,50.31-42.4h.3c34.15,0,45.91,24.81,49.93,40.81a3.42,3.42,0,0,1,1.88,3v7.51a3.48,3.48,0,0,1-6.95,0v-7.51a3.35,3.35,0,0,1,1-2.4c-4.48-17.49-16.12-37.32-45.85-37.32h-.29c-30.4.41-42,21.6-46.37,39.28a2,2,0,0,1-2,1.53,1.34,1.34,0,0,1-.53-.07A2,2,0,0,1,91.36,129Zm57.79,84H138.22a2.9,2.9,0,0,1-2.89-2.91,2.87,2.87,0,0,1,2.89-2.86h10.93A2.85,2.85,0,0,1,152,210,2.89,2.89,0,0,1,149.15,212.93Zm45.78-16.36a3.42,3.42,0,1,1-6.83,0v-37.9a8.2,8.2,0,0,0-8.18-8.17h-2.64a3.44,3.44,0,0,1,1,2.45v7.49a3.47,3.47,0,0,1-6.93,0V153a3.38,3.38,0,0,1,1-2.45H106.23a8.2,8.2,0,0,0-8.2,8.17v37.9a3.41,3.41,0,1,1-6.82,0v-37.9a15.05,15.05,0,0,1,15-15h73.7a15.07,15.07,0,0,1,15,15v37.9Z"/><path d="M191.38,90.49C198,80.85,208.92,72,212.27,79.21s-3.94,24.84-8.2,34.1a95.79,95.79,0,0,1,3,10.26c7.52-13.34,19.17-41.07,7.86-52.73-10.29-10.64-34.77,1.08-42.06,5A57.24,57.24,0,0,1,191.38,90.49Z"/><path d="M79.61,113.86c-4.23-9.06-11.84-27.34-8.47-34.66s14.73,2,21.34,11.89a59,59,0,0,1,18.71-15c-6.33-3.42-32.08-16.26-42.71-5.3-11.42,11.79.57,39.92,8.07,53.12A103.26,103.26,0,0,1,79.61,113.86Z"/></g></g></svg>