<svg xmlns="http://www.w3.org/2000/svg" viewBox="0 0 285 285"><title>polera</title><g id="Capa_2" data-name="Capa 2"><g id="Modo_de_aislamiento" data-name="Modo de aislamiento"><circle cx="142.5" cy="142.5" r="142.5" style="fill:#ff73ef"/><path d="M203.53,221.88V124.46l35,7.36,8-42.7L182.81,63.9a36.53,36.53,0,0,1-72.42,0L46.72,89.12l8,42.7,35-7.36v97.42ZM146.6,89.42A30.42,30.42,0,0,0,168,80.6a30,30,0,0,0,8.65-17.48,207.35,207.35,0,0,1-30,2.34,193.23,193.23,0,0,1-30-2.34,29.76,29.76,0,0,0,8.61,17.48A30.49,30.49,0,0,0,146.6,89.42Z" style="fill-rule:evenodd"/><path d="M172.66,162c-2.69,0-4.28-1.37-4.38-3.32h2.52c0,.61.39,1.51,2,1.53,1.09,0,1.6-.64,1.6-1.11-.06-.77-1-.83-2-1a8.86,8.86,0,0,1-2.52-.67,2.62,2.62,0,0,1-1.35-2.33c0-1.72,1.51-3.1,4-3.1s3.95,1.28,4.11,3.16h-2.42c0-.51-.13-1.3-1.57-1.3-1,0-1.59.19-1.65.86,0,1,2,.92,3.57,1.33s2.45,1.32,2.45,2.62c0,2.39-1.94,3.32-4.33,3.32" style="fill:#ff73ef"/><polygon points="126.33 146.02 134.72 141.2 139.16 148.85 127.96 148.85 126.33 146.02" style="fill:#ff73ef"/><rect x="142.73" y="152.14" width="2.4" height="9.67" style="fill:#ff73ef"/><path d="M125.21,162a5,5,0,0,1-5-5,5.06,5.06,0,0,1,7.88-4.12v-.76h2.36v9.67h-2.36v-.64a5.12,5.12,0,0,1-2.88.86m-2.71-5a2.8,2.8,0,0,0,5.59,0,2.8,2.8,0,0,0-5.59,0" style="fill:#ff73ef"/><polygon points="157.44 148.85 145.76 128.59 154.15 123.75 168.67 148.85 157.44 148.85" style="fill:#ff73ef"/><path d="M136.32,162a5,5,0,0,1-5-5,5,5,0,0,1,5-5,4.93,4.93,0,0,1,2.84.86v-4.05h2.39v13h-2.39v-.64a5.16,5.16,0,0,1-2.84.86m-2.75-5a2.8,2.8,0,1,0,2.81-2.78,2.83,2.83,0,0,0-2.81,2.78" style="fill:#ff73ef"/><polygon points="136.12 137.4 144.55 132.58 153.96 148.85 145.12 148.85 145.12 151.25 142.73 151.25 142.73 148.85 136.12 137.4" style="fill:#ff73ef"/><path d="M162.13,162a5,5,0,0,1-5-5,5,5,0,0,1,5-5,4.81,4.81,0,0,1,2.83.86v-.76h2.4v9.67H165v-.64a5,5,0,0,1-2.83.86m-2.69-5a2.79,2.79,0,0,0,2.79,2.74A2.76,2.76,0,0,0,165,157a2.79,2.79,0,0,0-2.73-2.78,2.83,2.83,0,0,0-2.79,2.78" style="fill:#ff73ef"/><path d="M154,148.85h2.36v13H154v-.64a5.09,5.09,0,0,1-2.87.86,5,5,0,0,1-5-5,5,5,0,0,1,5-5,4.94,4.94,0,0,1,2.87.86ZM148.41,157a2.78,2.78,0,0,0,5.55,0,2.78,2.78,0,1,0-5.55,0" style="fill:#ff73ef"/></g></g></svg>