<svg xmlns="http://www.w3.org/2000/svg" viewBox="0 0 285 285"><title>tenis</title><g id="Capa_2" data-name="Capa 2"><g id="Modo_de_aislamiento" data-name="Modo de aislamiento"><circle cx="142.5" cy="142.5" r="142.5" style="fill:#a5c84f"/><polygon points="173.65 93.06 164.69 84.1 155.74 93.06 164.69 102.03 173.65 93.06"/><polygon points="173.65 119.23 164.69 110.27 155.74 119.23 164.69 128.2 173.65 119.23"/><polygon points="129.62 119.23 138.57 128.2 147.52 119.23 138.57 110.27 129.62 119.23"/><path d="M210.54,103.85l-6.66-6.67-8.95,9L206,117.28A56.17,56.17,0,0,0,210.54,103.85Z"/><path d="M203.18,122.65l-12.36-12.38-8.95,9,13.58,13.61A66.75,66.75,0,0,0,203.18,122.65Z"/><polygon points="186.71 106.15 177.76 97.18 168.81 106.15 177.76 115.11 186.71 106.15"/><polygon points="199.78 93.06 190.82 84.1 181.87 93.06 190.82 102.03 199.78 93.06"/><polygon points="160.58 106.15 151.63 97.18 142.68 106.15 151.63 115.11 160.58 106.15"/><path d="M104.48,137.93l-11.71,22.9,16.77,16.8.56.55,22.59-11.6a48.44,48.44,0,0,1-28.21-28.65Z"/><path d="M123.88,147.29c-8.52-8.53-12.5-20.74-11.21-34.37,1.36-14.26,8.25-28.26,19.4-39.43C144.56,61,160.71,53.82,176.4,53.82c11.73,0,21.89,4,29.38,11.46,18.06,18.09,14.38,51.2-8.19,73.81-1.23,1.23-2.56,2.44-3.94,3.62a39.43,39.43,0,0,1,6,2.35c.67-.6,1.36-1.2,2-1.85,24.85-24.89,28.52-61.69,8.19-82.05C201.4,52.68,189.51,48,176.4,48c-17.21,0-34.86,7.79-48.42,21.37-24.84,24.88-28.51,61.69-8.19,82A45,45,0,0,0,145.59,164a39.53,39.53,0,0,1,3.16-5.43A39.39,39.39,0,0,1,123.88,147.29Z"/><path d="M57.75,197A11.48,11.48,0,1,0,74,213.27l31.47-31.53L89.22,165.51Zm10.31,10-4.12-4.12,14.51-14.53,4.12,4.11Zm26.12-26.17-5.81,5.81-4.11-4.11,5.8-5.81Z"/><path d="M153.27,153h.12c.29-.28.59-.52.87-.79l-2.63-2.63-3.13,3.14A43.49,43.49,0,0,0,153.27,153Z"/><polygon points="177.76 88.95 186.71 79.98 177.76 71.01 168.81 79.98 177.76 88.95"/><path d="M180.68,59.86a42.84,42.84,0,0,0-4.28-.23c-.56,0-1.13.08-1.69.1l3,3.05Z"/><polygon points="151.63 123.35 142.68 132.31 151.63 141.28 160.58 132.31 151.63 123.35"/><path d="M147.52,145.4l-9-9L130,145a32.46,32.46,0,0,0,11.65,6.27Z"/><path d="M118.47,122.17l2.93-2.94-3.07-3.07A44.25,44.25,0,0,0,118.47,122.17Z"/><path d="M134.46,132.31l-9-9L119.82,129a32.85,32.85,0,0,0,6.12,11.81Z"/><path d="M182.11,141c1.36,0,2.71.06,4,.19a65.37,65.37,0,0,0,5.19-4.29l-13.58-13.59-8.95,9,8.94,9A42.31,42.31,0,0,1,182.11,141Z"/><path d="M170.88,142.63l-6.19-6.2-8.95,9,3,3A40.11,40.11,0,0,1,170.88,142.63Z"/><path d="M208.24,178.83a22.59,22.59,0,0,0,8.35-1.61,34.67,34.67,0,0,0-30-30,23,23,0,0,0-1.61,8.39A23.26,23.26,0,0,0,208.24,178.83Z"/><path d="M211.15,89.9,208,93.07l3.43,3.43A42.47,42.47,0,0,0,211.15,89.9Z"/><path d="M156,184.65a22.88,22.88,0,0,0-8.36,1.61,34.69,34.69,0,0,0,30,30,23,23,0,0,0,1.61-8.39A23.26,23.26,0,0,0,156,184.65Z"/><path d="M179.2,155.57a28.76,28.76,0,0,1,1.37-8.65,34.7,34.7,0,0,0-33.2,33.28,28.57,28.57,0,0,1,8.62-1.37,29.08,29.08,0,0,1,29,29.07,28.71,28.71,0,0,1-1.37,8.65,34.69,34.69,0,0,0,33.2-33.27,28.55,28.55,0,0,1-8.61,1.37A29.09,29.09,0,0,1,179.2,155.57Z"/><path d="M181.87,66.9l8.95,9,8.54-8.56a32.6,32.6,0,0,0-11.78-6.14Z"/><path d="M153.88,65,164.7,75.87l9-9-6.32-6.34A55.64,55.64,0,0,0,153.88,65Z"/><path d="M194.93,80l8.95,9,5.88-5.89a32.87,32.87,0,0,0-6.3-11.62Z"/><path d="M119.14,108.74l6.37,6.38,9-9L123.62,95.3A55.9,55.9,0,0,0,119.14,108.74Z"/><path d="M138.33,75.63,151.63,89l9-9-12-12.06A65.77,65.77,0,0,0,138.33,75.63Z"/><path d="M126.49,89.93,138.57,102l9-9-13.3-13.34A64.75,64.75,0,0,0,126.49,89.93Z"/></g></g></svg>