<svg xmlns="http://www.w3.org/2000/svg" viewBox="0 0 285 285"><title>zapatilla</title><g id="Capa_2" data-name="Capa 2"><g id="Modo_de_aislamiento" data-name="Modo de aislamiento"><circle cx="142.5" cy="142.5" r="142.5" style="fill:#ff5c69"/><path d="M259,116.27c.25-1.23-2.46-5.41-2.95-6.64a82.61,82.61,0,0,0-4.67-7.86c-2.45-3.69-3.93-6.64-9.09-6.14-4.18.49-5.9,4.67-7.12,8.11-1.48,3.93-2.95,7.37-6.64,9.82-6.88,4.67-16.46,3.94-24.33,2.46a98.75,98.75,0,0,1-16.71-4.67,23.75,23.75,0,0,1-2.46-1c0-.25.25-.49.25-.74s.25-1,.25-1.23c.24-1.22.49-2.21.73-3.44a14.08,14.08,0,0,0-2-8.35c-2-3-6.39-6.64-10.08-7.13-2.7-.24-6.88,3.44-9.09,4.92-4.42,2.7-8.6,5.65-13,8.35-8.61,5.41-17.45,11.06-26.79,15-5.16,2.21-10.57,4.18-15.73,6.64-4.91,2.45-9.58,4.91-14.74,6.88-9.34,3.93-18.92,4.42-29,5.65-6.39.74-13.27,2.21-18.43,6.39-6.14,4.91-8.11,13.52-7.86,21.13.24,7.87,7.12,13.52,13.76,16.71,9.34,4.43,19.66,6.15,30,7.13,10.81,1,21.62,2,32.44,2.46a244.69,244.69,0,0,0,32.92-1c6.15-.49,12.29-1.22,18.44-1.72s12.28-.24,18.18-.24c12.53.24,25.07.49,37.6,0,8.6-.25,17.94-.74,26-3.69,3.93-1.23,7.86-3.19,10.32-6.39,2.7-3.44,2.46-7.86,3-12,1-10.81,2-21.87.49-32.68A56.64,56.64,0,0,0,259,116.27M257.49,160c-15.73,5.9-34.41,4.18-50.87,3.93h-4.18c-1,0-5.9.49-6.39,0-.73-1-.49-5.16-.49-6.63,0-.25,0-2.21-.24-2.21-.5-.5-2.22.73-2.71.24s.25-2.7-.24-3.19c-.25-.25-1.72,0-2.22,0,0-1-.24-2-.24-3-.74,0-2.95.49-3.44.24-.49-.49-.25-2.95-.25-3.68-1,0-2.21.24-3.19.24,0-.73.24-3.19-.25-3.44-.49-.49-2.21.49-2.95,0s.25-2.7-.24-3.19c-.25-.49-2.21,0-2.71,0a13.31,13.31,0,0,0-.24-3.2c-.49-1.23,0-.73-1.48-.73-1.72,0-1,.49-1.47-.74a12.79,12.79,0,0,1-.25-3.2c-2,.25-3.68.25-5.65.5,5.16-2.95,10.57-7.62,13.52-13,11.06,7.86,24.82,15.48,38.83,14.75,3.19,0,6.38-.25,9.33-.25,3.2,0,6.15-1.23,9.1-2,6.14-1.22,12.53-3.93,16.71-9.09,3.44,12.53,3.19,25.07,2.21,37.6M147.64,166.4c0-1.48-.24-3-.24-4.42,0-.5.24-4.18-.25-4.43s-1.72.49-2.21.25c-.74-.25-.25,0-.74-1-.74-2.22.49-2.22-2.46-2,0-1-.24-2-.24-2.95-.74,0-2.95.49-3.44.25-.49-.5-.25-3-.25-3.69-1,0-2.21.25-3.19.25,0-.74.24-3.2-.25-3.44-.49-.5-2.21.49-3,0s.25-2.71-.24-3.2c-.25-.49-2.21,0-2.71,0,0-.49-.24-1.47-.24-1.72.24-.49,3-.74,3.68-1,3.2-.49,6.64-1.23,9.83-1.72.25,2.21.25,4.42.5,6.63.24,2.71.24,2.21,2.94,2,0,1,0,3.68.5,3.93.49.49,2-.49,2.7-.25.49.25.24,1.48.24,2,.25,1.23-.24,1,.74,1.47.49.25,2.21-.49,2.71-.24.73.49-.25,3,.49,3.69.49.49,2.21-.5,2.7-.25.74.49.25,0,.74,1.23,0,.49-.25,2.21.24,2.46.25.24,1.72-.5,2.21-.25s0,1.47.25,2c.49,1.22-.25.49,1.23.73.49,0,1.47-.24,1.72,0a10.37,10.37,0,0,1,.24,2.95C156.73,165.91,152.31,166.15,147.64,166.4Zm23.59-1.48c0-1.47-.24-2.94-.24-4.66,0-1,.24-4.67-.49-5.16-.25-.25-1.23.24-1.72,0-1.48-.25-.74.49-1.23-1-.74-2.21.49-2.21-2.46-2,0-1-.25-2-.25-3-.73,0-3,.49-3.44.24-.49-.49-.24-2.95-.24-3.68-1,0-2.21.24-3.2.24,0-.73.25-3.19-.24-3.44-.49-.49-2.21.49-2.95,0s.24-2.7-.25-3.19c-.24-.49-2.21,0-2.7,0,0-.74-.49-2-.25-2.71,0-.24-.24-.73,0-1a10.82,10.82,0,0,1,3-.49c2.95-.49,5.9-1,8.85-1.72.24,2-.25,8.11,1.23,8.6.49.25,2-.49,2.46-.24a9.39,9.39,0,0,1,.24,2.7c.49,2,.74,1.47,2.95,1.23,0,.73,0,3.68.49,3.93.49.49,2.21-.49,2.7-.25.25.25.25,1.23.25,1.72s0,1.48.25,1.72c.49.49,2.21-.49,2.7-.24,1,.49-.25,3,.49,3.68,1,.74,2.7-1,3.44.25.49.74-.24,2.46.25,3s.73,0,1.47.24c1.23.5.49-.49,1,1,.25.49,0,1.47.25,1.72.49.49,2-.49,2.46-.25.24.25.24,1.23.24,1.72C181.06,164.43,176.15,164.68,171.23,164.92Zm67.83-39.07c4.91-4.67,7.86-10.81,10.07-17.2,1,1.72,3,4.42,3.2,6.64.24,1.72-1.48,3.93-2.71,5.16a25.51,25.51,0,0,1-10.56,5.4m-24.58-3.19c7.13,0,14.5-1.72,19.66-6.64A24.84,24.84,0,0,0,240,106c1-2.46,2.21-7.13,4.91-3.2-.73.74-1,3-1.47,4.18-.49,1.47-1.23,3.19-1.72,4.67a43.65,43.65,0,0,1-4.18,7.37,23.18,23.18,0,0,1-11.79,8.6c-12.54,3.93-26.54-2.95-36.86-9.34C197.28,120.45,205.88,122.66,214.48,122.66Zm-48.65-21.87c2.21-1.48,4.91-3.69,7.37-4.67,1.47-.74,2.46,0,3.93,1a12.66,12.66,0,0,1,2.7,2.46c2.46,3.44.74,6.88,0,10.56-2.7-2-4.91-4.66-8.11-5.65-4.17-1.47-8.84,0-13,1,2.21-1.48,4.67-3.2,7.13-4.67C169.27,98.57,163.61,102.26,165.83,100.79Zm-26.3,16.46a9.22,9.22,0,0,1,2.71-1.23,11.87,11.87,0,0,1-1.72,5.9c-1.23-.49-2.71-2.7-3.2-3.69a9.08,9.08,0,0,1,2.21-1C140.52,116.76,139,117.5,139.53,117.25Zm-12.28,6.88a10.56,10.56,0,0,1-1,2.46,5,5,0,0,1-1.47-1.72c.74-.25,1.47-.49,2.46-.74C127,124.38,126.51,124.13,127.25,124.13Zm-14.5,5.41a10.14,10.14,0,0,1-1,2.46c-.49-.5-1-.74-1.22-1.48a9.46,9.46,0,0,1,2.21-1C112.5,129.78,112.5,129.54,112.75,129.54Zm-4.92,2.21c1.23,1.72,3.2,3.93,5.41,2.46,1.23-.74,2-2.71,2.21-4.18.49-2,.25-2.21,2.21-3,1.48-.74,3.44-2,4.42-1.23s1.48,2.21,2.71,3c2.7,1.48,4.42-1.47,4.91-3.69.25-1.22,0-2.7.49-3.44a11.48,11.48,0,0,1,2.46-1.22c1-.5,1.48-1,2.46-.5,2,1.23,2.46,4.18,4.91,4.67,3.94.74,6.15-7.37,4.67-10.32,3.93-1,7.87-1.72,11.8-2.7,3.68-.74,8.85-3.2,12.78-2a12,12,0,0,1,4.17,2.71c1.23,1.22,3.2,1.72,2.95,3.44-.24,1.23-2,3-2.7,3.68a46.19,46.19,0,0,1-6.39,5.65c-3,2.22-5.41,2.71-9.09,3.45-4.92,1-9.83,1.72-15,2.45-9.83,1.72-19.66,3.44-29.49,5.65-4.42,1-8.85,2.46-13.27,3.44-3.19.74-10.57,2.71-12.78-.73a18.65,18.65,0,0,0,3.93-1.23c1.72-.49,1.23-.25,2.46.49s2,1.72,3.69,1.23c1.72-.74,1.72-3,2.7-4.42,1.47-1.48,5.16-2.46,7.37-3.69m-10.32,4.91c-.24.74-.24,1.23-1,.5a1.26,1.26,0,0,1,1-.5ZM82,141.09a13.33,13.33,0,0,1,1.72,2.7,7.51,7.51,0,0,0,3.69,2.46c2.94,1.23,6.14,1,9.09.74,7.37-1,14.5-3.69,21.62-5.41.25,1.72,0,3.69.49,5.41.5,2,.74,1.22,3,1,0,.74-.24,3.44.25,3.93.74.74,2.21-.74,3,.25,1.23,2-1.23,2.7,1.47,2.7,2.71.25,1.48-.49,2.21,2.21.74,2.21.5.49,2.71,1,1,.25.49-.24.73.5.5.73-.24,2.21.25,2.94s1.72-.24,2.21.5c.49.49-.24,2,.25,2.45.24.49,1.47-.24,2,0,1.23.25.49-.24,1,.49.73,1.48-.25,1.72-1,2a8.19,8.19,0,0,1-3.44.25c-1-.5-2.45-3.2-3.44-3.94a28.44,28.44,0,0,0-15-7.12c-13.27-2.46-26.78-1.48-40-4.43-1.48-.24-11.31-2.21-10.32-4.66,1-2,5.89-3.44,7.86-4.18,3.69-.74,6.14-1,9.83-1.72Zm-21.38,2.7c-11.8,12,24.33,16,29.49,16.47,11.55,1,27.77-1.23,36.61,8.1a265.53,265.53,0,0,1-37.1,0c-13.27-1-28.75-2.21-40.3-9.58a13.54,13.54,0,0,1-2-1.23c-1-1-.74-.73-.49-2.21a12,12,0,0,1,2.7-5.65c2.7-3.44,6.88-4.92,11.06-5.9m195.61,27.52c-.25,5.9-8.11,7.87-12.78,8.85-8.85,2-18.18,2.21-27.28,2.46-19.66.24-39.07-1-58.73,1a328,328,0,0,1-53.82,1c-9.83-.73-19.65-1.22-29.48-3-6.64-1.22-13.52-2.94-19.42-6.14-4.67-2.46-9.34-6.63-9.09-12.29C58.19,171.31,74.9,173,89.4,174s29.49,1.23,43.74-.74c8.6-1.23,17.7-1.47,26.3-2,15-1,29.73-1.72,44.72-1.47,17.2.25,36.13,1.72,52.84-3.44C256.75,167.87,256.5,169.59,256.26,171.31Z"/></g></g></svg>